{
.appVersion = "1290";
DisplayStrings = (
a
);
customParameters = (
{
name = note;

glyphs = (
{
glyphname = A;
lastChange = "2020-02-16 00:32:26 +0000";
layers = (
{
layerId = "EBA6CC13-AC95-47AE-A422-BCD5D8D196D3";
paths = (
{
closed = 1;
nodes = (
"700 700 LINE",
"200 700 LINE",
"200 600 LINE",
"100 600 LINE",
"100 -100 LINE",
"300 -100 LINE",
"300 0 LINE",
"500 0 LINE",
"500 -100 LINE",
"800 -100 LINE",
"800 600 LINE",
"700 600 LINE"
);
}
);
width = 800;
},
{
associatedMasterId = "EBA6CC13-AC95-47AE-A422-BCD5D8D196D3";
components = (
{
alignment = -1;
name = _pixel;
transform = "{1, 0, 0, 1, 200, 300}";
},
{
alignment = -1;
name = _pixel;
transform = "{1, 0, 0, 1, 200, 200}";
},
{
alignment = -1;
name = _pixel;
transform = "{1, 0, 0, 1, 200, 100}";
},
{
alignment = -1;
name = _pixel;
transform = "{1, 0, 0, 1, 200, 0}";
},
{
alignment = -1;
name = _pixel;
transform = "{1, 0, 0, 1, 200, -100}";
},
{
alignment = -1;
name = _pixel;
transform = "{1, 0, 0, 1, 100, -100}";
},
{
alignment = -1;
name = _pixel;
transform = "{1, 0, 0, 1, 100, 0}";
},
{
alignment = -1;
name = _pixel;
transform = "{1, 0, 0, 1, 100, 100}";
},
{
alignment = -1;
name = _pixel;
transform = "{1, 0, 0, 1, 100, 200}";
},
{
alignment = -1;
name = _pixel;
transform = "{1, 0, 0, 1, 500, 100}";
},
{
alignment = -1;
name = _pixel;
transform = "{1, 0, 0, 1, 700, 200}";
},
{
alignment = -1;
name = _pixel;
transform = "{1, 0, 0, 1, 700, 100}";
},
{
alignment = -1;
name = _pixel;
transform = "{1, 0, 0, 1, 700, 0}";
},
{
alignment = -1;
name = _pixel;
transform = "{1, 0, 0, 1, 700, -100}";
},
{
alignment = -1;
name = _pixel;
transform = "{1, 0, 0, 1, 600, -100}";
},
{
alignment = -1;
name = _pixel;
transform = "{1, 0, 0, 1, 500, -100}";
},
{
alignment = -1;
name = _pixel;
transform = "{1, 0, 0, 1, 500, 0}";
},
{
alignment = -1;
name = _pixel;
transform = "{1, 0, 0, 1, 500, 200}";
},
{
alignment = -1;
name = _pixel;
transform = "{1, 0, 0, 1, 500, 300}";
},
{
alignment = -1;
name = _pixel;
transform = "{1, 0, 0, 1, 600, 300}";
},
{
alignment = -1;
name = _pixel;
transform = "{1, 0, 0, 1, 600, 200}";
},
{
alignment = -1;
name = _pixel;
transform = "{1, 0, 0, 1, 600, 100}";
},
{
alignment = -1;
name = _pixel;
transform = "{1, 0, 0, 1, 600, 0}";
},
{
alignment = -1;
name = _pixel;
transform = "{1, 0, 0, 1, 300, 0}";
},
{
alignment = -1;
name = _pixel;
transform = "{1, 0, 0, 1, 400, 0}";
},
{
alignment = -1;
name = _pixel;
transform = "{1, 0, 0, 1, 400, 300}";
},
{
alignment = -1;
name = _pixel;
transform = "{1, 0, 0, 1, 300, 300}";
}
);
layerId = "29895EA3-C0A8-407E-9700-9C421B21F5CB";
name = "Color 3";
width = 800;
},
{
associatedMasterId = "EBA6CC13-AC95-47AE-A422-BCD5D8D196D3";
components = (
{
alignment = -1;
name = _pixel;
transform = "{1, 0, 0, 1, 200, 400}";
},
{
alignment = -1;
name = _pixel;
transform = "{1, 0, 0, 1, 200, 300}";
},
{
alignment = -1;
name = _pixel;
transform = "{1, 0, 0, 1, 200, 200}";
},
{
alignment = -1;
name = _pixel;
transform = "{1, 0, 0, 1, 200, 100}";
},
{
alignment = -1;
name = _pixel;
transform = "{1, 0, 0, 1, 200, 0}";
},
{
alignment = -1;
name = _pixel;
transform = "{1, 0, 0, 1, 100, 0}";
},
{
alignment = -1;
name = _pixel;
transform = "{1, 0, 0, 1, 100, 100}";
},
{
alignment = -1;
name = _pixel;
transform = "{1, 0, 0, 1, 100, 200}";
},
{
alignment = -1;
name = _pixel;
transform = "{1, 0, 0, 1, 100, 300}";
},
{
alignment = -1;
name = _pixel;
transform = "{1, 0, 0, 1, 500, 200}";
},
{
alignment = -1;
name = _pixel;
transform = "{1, 0, 0, 1, 700, 300}";
},
{
alignment = -1;
name = _pixel;
transform = "{1, 0, 0, 1, 700, 200}";
},
{
alignment = -1;
name = _pixel;
transform = "{1, 0, 0, 1, 700, 100}";
},
{
alignment = -1;
name = _pixel;
transform = "{1, 0, 0, 1, 700, 0}";
},
{
alignment = -1;
name = _pixel;
transform = "{1, 0, 0, 1, 600, 0}";
},
{
alignment = -1;
name = _pixel;
transform = "{1, 0, 0, 1, 500, 0}";
},
{
alignment = -1;
name = _pixel;
transform = "{1, 0, 0, 1, 500, 100}";
},
{
alignment = -1;
name = _pixel;
transform = "{1, 0, 0, 1, 500, 300}";
},
{
alignment = -1;
name = _pixel;
transform = "{1, 0, 0, 1, 500, 400}";
},
{
alignment = -1;
name = _pixel;
transform = "{1, 0, 0, 1, 600, 400}";
},
{
alignment = -1;
name = _pixel;
transform = "{1, 0, 0, 1, 600, 300}";
},
{
alignment = -1;
name = _pixel;
transform = "{1, 0, 0, 1, 600, 200}";
},
{
alignment = -1;
name = _pixel;
transform = "{1, 0, 0, 1, 600, 100}";
},
{
alignment = -1;
name = _pixel;
transform = "{1, 0, 0, 1, 300, 100}";
},
{
alignment = -1;
name = _pixel;
transform = "{1, 0, 0, 1, 400, 100}";
},
{
alignment = -1;
name = _pixel;
transform = "{1, 0, 0, 1, 400, 400}";
},
{
alignment = -1;
name = _pixel;
transform = "{1, 0, 0, 1, 300, 400}";
}
);
layerId = "6BDB1F0B-2B1B-407F-A896-AC70F68403C9";
name = "Color 2";
width = 800;
},
{
associatedMasterId = "EBA6CC13-AC95-47AE-A422-BCD5D8D196D3";
components = (
{
alignment = -1;
name = _pixel;
transform = "{1, 0, 0, 1, 200, 500}";
},
{
alignment = -1;
name = _pixel;
transform = "{1, 0, 0, 1, 200, 400}";
},
{
alignment = -1;
name = _pixel;
transform = "{1, 0, 0, 1, 200, 300}";
},
{
alignment = -1;
name = _pixel;
transform = "{1, 0, 0, 1, 200, 200}";
},
{
alignment = -1;
name = _pixel;
transform = "{1, 0, 0, 1, 200, 100}";
},
{
alignment = -1;
name = _pixel;
transform = "{1, 0, 0, 1, 100, 100}";
},
{
alignment = -1;
name = _pixel;
transform = "{1, 0, 0, 1, 100, 200}";
},
{
alignment = -1;
name = _pixel;
transform = "{1, 0, 0, 1, 100, 300}";
},
{
alignment = -1;
name = _pixel;
transform = "{1, 0, 0, 1, 100, 400}";
},
{
alignment = -1;
name = _pixel;
transform = "{1, 0, 0, 1, 500, 300}";
},
{
alignment = -1;
name = _pixel;
transform = "{1, 0, 0, 1, 700, 400}";
},
{
alignment = -1;
name = _pixel;
transform = "{1, 0, 0, 1, 700, 300}";
},
{
alignment = -1;
name = _pixel;
transform = "{1, 0, 0, 1, 700, 200}";
},
{
alignment = -1;
name = _pixel;
transform = "{1, 0, 0, 1, 700, 100}";
},
{
alignment = -1;
name = _pixel;
transform = "{1, 0, 0, 1, 600, 100}";
},
{
alignment = -1;
name = _pixel;
transform = "{1, 0, 0, 1, 500, 100}";
},
{
alignment = -1;
name = _pixel;
transform = "{1, 0, 0, 1, 500, 200}";
},
{
alignment = -1;
name = _pixel;
transform = "{1, 0, 0, 1, 500, 400}";
},
{
alignment = -1;
name = _pixel;
transform = "{1, 0, 0, 1, 500, 500}";
},
{
alignment = -1;
name = _pixel;
transform = "{1, 0, 0, 1, 600, 500}";
},
{
alignment = -1;
name = _pixel;
transform = "{1, 0, 0, 1, 600, 400}";
},
{
alignment = -1;
name = _pixel;
transform = "{1, 0, 0, 1, 600, 300}";
},
{
alignment = -1;
name = _pixel;
transform = "{1, 0, 0, 1, 600, 200}";
},
{
alignment = -1;
name = _pixel;
transform = "{1, 0, 0, 1, 300, 200}";
},
{
alignment = -1;
name = _pixel;
transform = "{1, 0, 0, 1, 400, 200}";
},
{
alignment = -1;
name = _pixel;
transform = "{1, 0, 0, 1, 400, 500}";
},
{
alignment = -1;
name = _pixel;
transform = "{1, 0, 0, 1, 300, 500}";
}
);
layerId = "DC2F6F49-0614-4506-825E-CA2227696917";
name = "Color 1";
width = 800;
},
{
associatedMasterId = "EBA6CC13-AC95-47AE-A422-BCD5D8D196D3";
components = (
{
alignment = -1;
name = _pixel;
transform = "{1, 0, 0, 1, 200, 600}";
},
{
alignment = -1;
name = _pixel;
transform = "{1, 0, 0, 1, 200, 500}";
},
{
alignment = -1;
name = _pixel;
transform = "{1, 0, 0, 1, 200, 400}";
},
{
alignment = -1;
name = _pixel;
transform = "{1, 0, 0, 1, 200, 300}";
},
{
alignment = -1;
name = _pixel;
transform = "{1, 0, 0, 1, 200, 200}";
},
{
alignment = -1;
name = _pixel;
transform = "{1, 0, 0, 1, 100, 200}";
},
{
alignment = -1;
name = _pixel;
transform = "{1, 0, 0, 1, 100, 300}";
},
{
alignment = -1;
name = _pixel;
transform = "{1, 0, 0, 1, 100, 400}";
},
{
alignment = -1;
name = _pixel;
transform = "{1, 0, 0, 1, 100, 500}";
},
{
alignment = -1;
name = _pixel;
transform = "{1, 0, 0, 1, 500, 400}";
},
{
alignment = -1;
name = _pixel;
transform = "{1, 0, 0, 1, 700, 500}";
},
{
alignment = -1;
name = _pixel;
transform = "{1, 0, 0, 1, 700, 400}";
},
{
alignment = -1;
name = _pixel;
transform = "{1, 0, 0, 1, 700, 300}";
},
{
alignment = -1;
name = _pixel;
transform = "{1, 0, 0, 1, 700, 200}";
},
{
alignment = -1;
name = _pixel;
transform = "{1, 0, 0, 1, 600, 200}";
},
{
alignment = -1;
name = _pixel;
transform = "{1, 0, 0, 1, 500, 200}";
},
{
alignment = -1;
name = _pixel;
transform = "{1, 0, 0, 1, 500, 300}";
},
{
alignment = -1;
name = _pixel;
transform = "{1, 0, 0, 1, 500, 500}";
},
{
alignment = -1;
name = _pixel;
transform = "{1, 0, 0, 1, 500, 600}";
},
{
alignment = -1;
name = _pixel;
transform = "{1, 0, 0, 1, 600, 600}";
},
{
alignment = -1;
name = _pixel;
transform = "{1, 0, 0, 1, 600, 500}";
},
{
alignment = -1;
name = _pixel;
transform = "{1, 0, 0, 1, 600, 400}";
},
{
alignment = -1;
name = _pixel;
transform = "{1, 0, 0, 1, 600, 300}";
},
{
alignment = -1;
name = _pixel;
transform = "{1, 0, 0, 1, 300, 300}";
},
{
alignment = -1;
name = _pixel;
transform = "{1, 0, 0, 1, 400, 300}";
},
{
alignment = -1;
name = _pixel;
transform = "{1, 0, 0, 1, 400, 600}";
},
{
alignment = -1;
name = _pixel;
transform = "{1, 0, 0, 1, 300, 600}";
}
);
layerId = "333BF133-DB41-4575-B232-D783EF459194";
name = "Color 0";
width = 800;
}
);
unicode = 0041;
},
{
glyphname = B;
lastChange = "2020-02-16 00:17:53 +0000";
layers = (
{
layerId = "EBA6CC13-AC95-47AE-A422-BCD5D8D196D3";
paths = (
{
closed = 1;
nodes = (
"700 700 LINE",
"100 700 LINE",
"100 -100 LINE",
"700 -100 LINE",
"700 0 LINE",
"800 0 LINE",
"800 600 LINE",
"700 600 LINE"
);
}
);
width = 800;
},
{
associatedMasterId = "EBA6CC13-AC95-47AE-A422-BCD5D8D196D3";
components = (
{
alignment = -1;
name = _pixel;
transform = "{1, 0, 0, 1, 100, 300}";
},
{
alignment = -1;
name = _pixel;
transform = "{1, 0, 0, 1, 200, 300}";
},
{
alignment = -1;
name = _pixel;
transform = "{1, 0, 0, 1, 200, 200}";
},
{
alignment = -1;
name = _pixel;
transform = "{1, 0, 0, 1, 200, 100}";
},
{
alignment = -1;
name = _pixel;
transform = "{1, 0, 0, 1, 200, 0}";
},
{
alignment = -1;
name = _pixel;
transform = "{1, 0, 0, 1, 200, -100}";
},
{
alignment = -1;
name = _pixel;
transform = "{1, 0, 0, 1, 100, -100}";
},
{
alignment = -1;
name = _pixel;
transform = "{1, 0, 0, 1, 100, 0}";
},
{
alignment = -1;
name = _pixel;
transform = "{1, 0, 0, 1, 100, 100}";
},
{
alignment = -1;
name = _pixel;
transform = "{1, 0, 0, 1, 100, 200}";
},
{
alignment = -1;
name = _pixel;
transform = "{1, 0, 0, 1, 600, -100}";
},
{
alignment = -1;
name = _pixel;
transform = "{1, 0, 0, 1, 500, -100}";
},
{
alignment = -1;
name = _pixel;
transform = "{1, 0, 0, 1, 500, 300}";
},
{
alignment = -1;
name = _pixel;
transform = "{1, 0, 0, 1, 600, 300}";
},
{
alignment = -1;
name = _pixel;
transform = "{1, 0, 0, 1, 300, 300}";
},
{
alignment = -1;
name = _pixel;
transform = "{1, 0, 0, 1, 400, 300}";
},
{
alignment = -1;
name = _pixel;
transform = "{1, 0, 0, 1, 300, -100}";
},
{
alignment = -1;
name = _pixel;
transform = "{1, 0, 0, 1, 400, -100}";
},
{
alignment = -1;
name = _pixel;
transform = "{1, 0, 0, 1, 300, 100}";
},
{
alignment = -1;
name = _pixel;
transform = "{1, 0, 0, 1, 400, 100}";
},
{
alignment = -1;
name = _pixel;
transform = "{1, 0, 0, 1, 500, 100}";
},
{
alignment = -1;
name = _pixel;
transform = "{1, 0, 0, 1, 700, 0}";
},
{
alignment = -1;
name = _pixel;
transform = "{1, 0, 0, 1, 700, 200}";
},
{
alignment = -1;
name = _pixel;
transform = "{1, 0, 0, 1, 600, 100}";
},
{
alignment = -1;
name = _pixel;
transform = "{1, 0, 0, 1, 600, 200}";
},
{
alignment = -1;
name = _pixel;
transform = "{1, 0, 0, 1, 500, 200}";
},
{
alignment = -1;
name = _pixel;
transform = "{1, 0, 0, 1, 500, 0}";
},
{
alignment = -1;
name = _pixel;
transform = "{1, 0, 0, 1, 600, 0}";
}
);
layerId = "29895EA3-C0A8-407E-9700-9C421B21F5CB";
name = "Color 3";
width = 800;
},
{
associatedMasterId = "EBA6CC13-AC95-47AE-A422-BCD5D8D196D3";
components = (
{
alignment = -1;
name = _pixel;
transform = "{1, 0, 0, 1, 100, 400}";
},
{
alignment = -1;
name = _pixel;
transform = "{1, 0, 0, 1, 200, 400}";
},
{
alignment = -1;
name = _pixel;
transform = "{1, 0, 0, 1, 200, 300}";
},
{
alignment = -1;
name = _pixel;
transform = "{1, 0, 0, 1, 200, 200}";
},
{
alignment = -1;
name = _pixel;
transform = "{1, 0, 0, 1, 200, 100}";
},
{
alignment = -1;
name = _pixel;
transform = "{1, 0, 0, 1, 200, 0}";
},
{
alignment = -1;
name = _pixel;
transform = "{1, 0, 0, 1, 100, 0}";
},
{
alignment = -1;
name = _pixel;
transform = "{1, 0, 0, 1, 100, 100}";
},
{
alignment = -1;
name = _pixel;
transform = "{1, 0, 0, 1, 100, 200}";
},
{
alignment = -1;
name = _pixel;
transform = "{1, 0, 0, 1, 100, 300}";
},
{
alignment = -1;
name = _pixel;
transform = "{1, 0, 0, 1, 600, 0}";
},
{
alignment = -1;
name = _pixel;
transform = "{1, 0, 0, 1, 500, 0}";
},
{
alignment = -1;
name = _pixel;
transform = "{1, 0, 0, 1, 500, 400}";
},
{
alignment = -1;
name = _pixel;
transform = "{1, 0, 0, 1, 600, 400}";
},
{
alignment = -1;
name = _pixel;
transform = "{1, 0, 0, 1, 300, 400}";
},
{
alignment = -1;
name = _pixel;
transform = "{1, 0, 0, 1, 400, 400}";
},
{
alignment = -1;
name = _pixel;
transform = "{1, 0, 0, 1, 300, 0}";
},
{
alignment = -1;
name = _pixel;
transform = "{1, 0, 0, 1, 400, 0}";
},
{
alignment = -1;
name = _pixel;
transform = "{1, 0, 0, 1, 300, 200}";
},
{
alignment = -1;
name = _pixel;
transform = "{1, 0, 0, 1, 400, 200}";
},
{
alignment = -1;
name = _pixel;
transform = "{1, 0, 0, 1, 500, 200}";
},
{
alignment = -1;
name = _pixel;
transform = "{1, 0, 0, 1, 700, 100}";
},
{
alignment = -1;
name = _pixel;
transform = "{1, 0, 0, 1, 700, 300}";
},
{
alignment = -1;
name = _pixel;
transform = "{1, 0, 0, 1, 600, 200}";
},
{
alignment = -1;
name = _pixel;
transform = "{1, 0, 0, 1, 600, 300}";
},
{
alignment = -1;
name = _pixel;
transform = "{1, 0, 0, 1, 500, 300}";
},
{
alignment = -1;
name = _pixel;
transform = "{1, 0, 0, 1, 500, 100}";
},
{
alignment = -1;
name = _pixel;
transform = "{1, 0, 0, 1, 600, 100}";
}
);
layerId = "6BDB1F0B-2B1B-407F-A896-AC70F68403C9";
name = "Color 2";
width = 800;
},
{
associatedMasterId = "EBA6CC13-AC95-47AE-A422-BCD5D8D196D3";
components = (
{
alignment = -1;
name = _pixel;
transform = "{1, 0, 0, 1, 100, 500}";
},
{
alignment = -1;
name = _pixel;
transform = "{1, 0, 0, 1, 200, 500}";
},
{
alignment = -1;
name = _pixel;
transform = "{1, 0, 0, 1, 200, 400}";
},
{
alignment = -1;
name = _pixel;
transform = "{1, 0, 0, 1, 200, 300}";
},
{
alignment = -1;
name = _pixel;
transform = "{1, 0, 0, 1, 200, 200}";
},
{
alignment = -1;
name = _pixel;
transform = "{1, 0, 0, 1, 200, 100}";
},
{
alignment = -1;
name = _pixel;
transform = "{1, 0, 0, 1, 100, 100}";
},
{
alignment = -1;
name = _pixel;
transform = "{1, 0, 0, 1, 100, 200}";
},
{
alignment = -1;
name = _pixel;
transform = "{1, 0, 0, 1, 100, 300}";
},
{
alignment = -1;
name = _pixel;
transform = "{1, 0, 0, 1, 100, 400}";
},
{
alignment = -1;
name = _pixel;
transform = "{1, 0, 0, 1, 600, 100}";
},
{
alignment = -1;
name = _pixel;
transform = "{1, 0, 0, 1, 500, 100}";
},
{
alignment = -1;
name = _pixel;
transform = "{1, 0, 0, 1, 500, 500}";
},
{
alignment = -1;
name = _pixel;
transform = "{1, 0, 0, 1, 600, 500}";
},
{
alignment = -1;
name = _pixel;
transform = "{1, 0, 0, 1, 300, 500}";
},
{
alignment = -1;
name = _pixel;
transform = "{1, 0, 0, 1, 400, 500}";
},
{
alignment = -1;
name = _pixel;
transform = "{1, 0, 0, 1, 300, 100}";
},
{
alignment = -1;
name = _pixel;
transform = "{1, 0, 0, 1, 400, 100}";
},
{
alignment = -1;
name = _pixel;
transform = "{1, 0, 0, 1, 300, 300}";
},
{
alignment = -1;
name = _pixel;
transform = "{1, 0, 0, 1, 400, 300}";
},
{
alignment = -1;
name = _pixel;
transform = "{1, 0, 0, 1, 500, 300}";
},
{
alignment = -1;
name = _pixel;
transform = "{1, 0, 0, 1, 700, 200}";
},
{
alignment = -1;
name = _pixel;
transform = "{1, 0, 0, 1, 700, 400}";
},
{
alignment = -1;
name = _pixel;
transform = "{1, 0, 0, 1, 600, 300}";
},
{
alignment = -1;
name = _pixel;
transform = "{1, 0, 0, 1, 600, 400}";
},
{
alignment = -1;
name = _pixel;
transform = "{1, 0, 0, 1, 500, 400}";
},
{
alignment = -1;
name = _pixel;
transform = "{1, 0, 0, 1, 500, 200}";
},
{
alignment = -1;
name = _pixel;
transform = "{1, 0, 0, 1, 600, 200}";
}
);
layerId = "DC2F6F49-0614-4506-825E-CA2227696917";
name = "Color 1";
width = 800;
},
{
associatedMasterId = "EBA6CC13-AC95-47AE-A422-BCD5D8D196D3";
components = (
{
alignment = -1;
name = _pixel;
transform = "{1, 0, 0, 1, 100, 600}";
},
{
alignment = -1;
name = _pixel;
transform = "{1, 0, 0, 1, 200, 600}";
},
{
alignment = -1;
name = _pixel;
transform = "{1, 0, 0, 1, 200, 500}";
},
{
alignment = -1;
name = _pixel;
transform = "{1, 0, 0, 1, 200, 400}";
},
{
alignment = -1;
name = _pixel;
transform = "{1, 0, 0, 1, 200, 300}";
},
{
alignment = -1;
name = _pixel;
transform = "{1, 0, 0, 1, 200, 200}";
},
{
alignment = -1;
name = _pixel;
transform = "{1, 0, 0, 1, 100, 200}";
},
{
alignment = -1;
name = _pixel;
transform = "{1, 0, 0, 1, 100, 300}";
},
{
alignment = -1;
name = _pixel;
transform = "{1, 0, 0, 1, 100, 400}";
},
{
alignment = -1;
name = _pixel;
transform = "{1, 0, 0, 1, 100, 500}";
},
{
alignment = -1;
name = _pixel;
transform = "{1, 0, 0, 1, 600, 200}";
},
{
alignment = -1;
name = _pixel;
transform = "{1, 0, 0, 1, 500, 200}";
},
{
alignment = -1;
name = _pixel;
transform = "{1, 0, 0, 1, 500, 600}";
},
{
alignment = -1;
name = _pixel;
transform = "{1, 0, 0, 1, 600, 600}";
},
{
alignment = -1;
name = _pixel;
transform = "{1, 0, 0, 1, 300, 600}";
},
{
alignment = -1;
name = _pixel;
transform = "{1, 0, 0, 1, 400, 600}";
},
{
alignment = -1;
name = _pixel;
transform = "{1, 0, 0, 1, 300, 200}";
},
{
alignment = -1;
name = _pixel;
transform = "{1, 0, 0, 1, 400, 200}";
},
{
alignment = -1;
name = _pixel;
transform = "{1, 0, 0, 1, 300, 400}";
},
{
alignment = -1;
name = _pixel;
transform = "{1, 0, 0, 1, 400, 400}";
},
{
alignment = -1;
name = _pixel;
transform = "{1, 0, 0, 1, 500, 400}";
},
{
alignment = -1;
name = _pixel;
transform = "{1, 0, 0, 1, 700, 300}";
},
{
alignment = -1;
name = _pixel;
transform = "{1, 0, 0, 1, 700, 500}";
},
{
alignment = -1;
name = _pixel;
transform = "{1, 0, 0, 1, 600, 400}";
},
{
alignment = -1;
name = _pixel;
transform = "{1, 0, 0, 1, 600, 500}";
},
{
alignment = -1;
name = _pixel;
transform = "{1, 0, 0, 1, 500, 500}";
},
{
alignment = -1;
name = _pixel;
transform = "{1, 0, 0, 1, 500, 300}";
},
{
alignment = -1;
name = _pixel;
transform = "{1, 0, 0, 1, 600, 300}";
}
);
layerId = "333BF133-DB41-4575-B232-D783EF459194";
name = "Color 0";
width = 800;
}
);
unicode = "0042,0062";
},
{
glyphname = C;
lastChange = "2020-02-16 00:19:29 +0000";
layers = (
{
layerId = "EBA6CC13-AC95-47AE-A422-BCD5D8D196D3";
paths = (
{
closed = 1;
nodes = (
"700 700 LINE",
"200 700 LINE",
"200 600 LINE",
"100 600 LINE",
"100 0 LINE",
"200 0 LINE",
"200 -100 LINE",
"700 -100 LINE",
"700 0 LINE",
"800 0 LINE",
"800 600 LINE",
"700 600 LINE"
);
}
);
width = 800;
},
{
associatedMasterId = "EBA6CC13-AC95-47AE-A422-BCD5D8D196D3";
components = (
{
alignment = -1;
name = _pixel;
transform = "{1, 0, 0, 1, 200, 300}";
},
{
alignment = -1;
name = _pixel;
transform = "{1, 0, 0, 1, 200, 200}";
},
{
alignment = -1;
name = _pixel;
transform = "{1, 0, 0, 1, 200, 100}";
},
{
alignment = -1;
name = _pixel;
transform = "{1, 0, 0, 1, 200, 0}";
},
{
alignment = -1;
name = _pixel;
transform = "{1, 0, 0, 1, 200, -100}";
},
{
alignment = -1;
name = _pixel;
transform = "{1, 0, 0, 1, 100, 0}";
},
{
alignment = -1;
name = _pixel;
transform = "{1, 0, 0, 1, 100, 100}";
},
{
alignment = -1;
name = _pixel;
transform = "{1, 0, 0, 1, 100, 200}";
},
{
alignment = -1;
name = _pixel;
transform = "{1, 0, 0, 1, 700, 200}";
},
{
alignment = -1;
name = _pixel;
transform = "{1, 0, 0, 1, 600, -100}";
},
{
alignment = -1;
name = _pixel;
transform = "{1, 0, 0, 1, 500, -100}";
},
{
alignment = -1;
name = _pixel;
transform = "{1, 0, 0, 1, 500, 0}";
},
{
alignment = -1;
name = _pixel;
transform = "{1, 0, 0, 1, 500, 200}";
},
{
alignment = -1;
name = _pixel;
transform = "{1, 0, 0, 1, 500, 300}";
},
{
alignment = -1;
name = _pixel;
transform = "{1, 0, 0, 1, 600, 300}";
},
{
alignment = -1;
name = _pixel;
transform = "{1, 0, 0, 1, 600, 200}";
},
{
alignment = -1;
name = _pixel;
transform = "{1, 0, 0, 1, 300, 300}";
},
{
alignment = -1;
name = _pixel;
transform = "{1, 0, 0, 1, 400, 300}";
},
{
alignment = -1;
name = _pixel;
transform = "{1, 0, 0, 1, 600, 0}";
},
{
alignment = -1;
name = _pixel;
transform = "{1, 0, 0, 1, 300, -100}";
},
{
alignment = -1;
name = _pixel;
transform = "{1, 0, 0, 1, 400, -100}";
},
{
alignment = -1;
name = _pixel;
transform = "{1, 0, 0, 1, 700, 0}";
}
);
layerId = "29895EA3-C0A8-407E-9700-9C421B21F5CB";
name = "Color 3";
width = 800;
},
{
associatedMasterId = "EBA6CC13-AC95-47AE-A422-BCD5D8D196D3";
components = (
{
alignment = -1;
name = _pixel;
transform = "{1, 0, 0, 1, 200, 400}";
},
{
alignment = -1;
name = _pixel;
transform = "{1, 0, 0, 1, 200, 300}";
},
{
alignment = -1;
name = _pixel;
transform = "{1, 0, 0, 1, 200, 200}";
},
{
alignment = -1;
name = _pixel;
transform = "{1, 0, 0, 1, 200, 100}";
},
{
alignment = -1;
name = _pixel;
transform = "{1, 0, 0, 1, 200, 0}";
},
{
alignment = -1;
name = _pixel;
transform = "{1, 0, 0, 1, 100, 100}";
},
{
alignment = -1;
name = _pixel;
transform = "{1, 0, 0, 1, 100, 200}";
},
{
alignment = -1;
name = _pixel;
transform = "{1, 0, 0, 1, 100, 300}";
},
{
alignment = -1;
name = _pixel;
transform = "{1, 0, 0, 1, 700, 300}";
},
{
alignment = -1;
name = _pixel;
transform = "{1, 0, 0, 1, 600, 0}";
},
{
alignment = -1;
name = _pixel;
transform = "{1, 0, 0, 1, 500, 0}";
},
{
alignment = -1;
name = _pixel;
transform = "{1, 0, 0, 1, 500, 100}";
},
{
alignment = -1;
name = _pixel;
transform = "{1, 0, 0, 1, 500, 300}";
},
{
alignment = -1;
name = _pixel;
transform = "{1, 0, 0, 1, 500, 400}";
},
{
alignment = -1;
name = _pixel;
transform = "{1, 0, 0, 1, 600, 400}";
},
{
alignment = -1;
name = _pixel;
transform = "{1, 0, 0, 1, 600, 300}";
},
{
alignment = -1;
name = _pixel;
transform = "{1, 0, 0, 1, 300, 400}";
},
{
alignment = -1;
name = _pixel;
transform = "{1, 0, 0, 1, 400, 400}";
},
{
alignment = -1;
name = _pixel;
transform = "{1, 0, 0, 1, 600, 100}";
},
{
alignment = -1;
name = _pixel;
transform = "{1, 0, 0, 1, 300, 0}";
},
{
alignment = -1;
name = _pixel;
transform = "{1, 0, 0, 1, 400, 0}";
},
{
alignment = -1;
name = _pixel;
transform = "{1, 0, 0, 1, 700, 100}";
}
);
layerId = "6BDB1F0B-2B1B-407F-A896-AC70F68403C9";
name = "Color 2";
width = 800;
},
{
associatedMasterId = "EBA6CC13-AC95-47AE-A422-BCD5D8D196D3";
components = (
{
alignment = -1;
name = _pixel;
transform = "{1, 0, 0, 1, 200, 500}";
},
{
alignment = -1;
name = _pixel;
transform = "{1, 0, 0, 1, 200, 400}";
},
{
alignment = -1;
name = _pixel;
transform = "{1, 0, 0, 1, 200, 300}";
},
{
alignment = -1;
name = _pixel;
transform = "{1, 0, 0, 1, 200, 200}";
},
{
alignment = -1;
name = _pixel;
transform = "{1, 0, 0, 1, 200, 100}";
},
{
alignment = -1;
name = _pixel;
transform = "{1, 0, 0, 1, 100, 200}";
},
{
alignment = -1;
name = _pixel;
transform = "{1, 0, 0, 1, 100, 300}";
},
{
alignment = -1;
name = _pixel;
transform = "{1, 0, 0, 1, 100, 400}";
},
{
alignment = -1;
name = _pixel;
transform = "{1, 0, 0, 1, 700, 400}";
},
{
alignment = -1;
name = _pixel;
transform = "{1, 0, 0, 1, 600, 100}";
},
{
alignment = -1;
name = _pixel;
transform = "{1, 0, 0, 1, 500, 100}";
},
{
alignment = -1;
name = _pixel;
transform = "{1, 0, 0, 1, 500, 200}";
},
{
alignment = -1;
name = _pixel;
transform = "{1, 0, 0, 1, 500, 400}";
},
{
alignment = -1;
name = _pixel;
transform = "{1, 0, 0, 1, 500, 500}";
},
{
alignment = -1;
name = _pixel;
transform = "{1, 0, 0, 1, 600, 500}";
},
{
alignment = -1;
name = _pixel;
transform = "{1, 0, 0, 1, 600, 400}";
},
{
alignment = -1;
name = _pixel;
transform = "{1, 0, 0, 1, 300, 500}";
},
{
alignment = -1;
name = _pixel;
transform = "{1, 0, 0, 1, 400, 500}";
},
{
alignment = -1;
name = _pixel;
transform = "{1, 0, 0, 1, 600, 200}";
},
{
alignment = -1;
name = _pixel;
transform = "{1, 0, 0, 1, 300, 100}";
},
{
alignment = -1;
name = _pixel;
transform = "{1, 0, 0, 1, 400, 100}";
},
{
alignment = -1;
name = _pixel;
transform = "{1, 0, 0, 1, 700, 200}";
}
);
layerId = "DC2F6F49-0614-4506-825E-CA2227696917";
name = "Color 1";
width = 800;
},
{
associatedMasterId = "EBA6CC13-AC95-47AE-A422-BCD5D8D196D3";
components = (
{
alignment = -1;
name = _pixel;
transform = "{1, 0, 0, 1, 200, 600}";
},
{
alignment = -1;
name = _pixel;
transform = "{1, 0, 0, 1, 200, 500}";
},
{
alignment = -1;
name = _pixel;
transform = "{1, 0, 0, 1, 200, 400}";
},
{
alignment = -1;
name = _pixel;
transform = "{1, 0, 0, 1, 200, 300}";
},
{
alignment = -1;
name = _pixel;
transform = "{1, 0, 0, 1, 200, 200}";
},
{
alignment = -1;
name = _pixel;
transform = "{1, 0, 0, 1, 100, 300}";
},
{
alignment = -1;
name = _pixel;
transform = "{1, 0, 0, 1, 100, 400}";
},
{
alignment = -1;
name = _pixel;
transform = "{1, 0, 0, 1, 100, 500}";
},
{
alignment = -1;
name = _pixel;
transform = "{1, 0, 0, 1, 700, 500}";
},
{
alignment = -1;
name = _pixel;
transform = "{1, 0, 0, 1, 600, 200}";
},
{
alignment = -1;
name = _pixel;
transform = "{1, 0, 0, 1, 500, 200}";
},
{
alignment = -1;
name = _pixel;
transform = "{1, 0, 0, 1, 500, 300}";
},
{
alignment = -1;
name = _pixel;
transform = "{1, 0, 0, 1, 500, 500}";
},
{
alignment = -1;
name = _pixel;
transform = "{1, 0, 0, 1, 500, 600}";
},
{
alignment = -1;
name = _pixel;
transform = "{1, 0, 0, 1, 600, 600}";
},
{
alignment = -1;
name = _pixel;
transform = "{1, 0, 0, 1, 600, 500}";
},
{
alignment = -1;
name = _pixel;
transform = "{1, 0, 0, 1, 300, 600}";
},
{
alignment = -1;
name = _pixel;
transform = "{1, 0, 0, 1, 400, 600}";
},
{
alignment = -1;
name = _pixel;
transform = "{1, 0, 0, 1, 600, 300}";
},
{
alignment = -1;
name = _pixel;
transform = "{1, 0, 0, 1, 300, 200}";
},
{
alignment = -1;
name = _pixel;
transform = "{1, 0, 0, 1, 400, 200}";
},
{
alignment = -1;
name = _pixel;
transform = "{1, 0, 0, 1, 700, 300}";
}
);
layerId = "333BF133-DB41-4575-B232-D783EF459194";
name = "Color 0";
width = 800;
}
);
unicode = "0043,0063";
},
{
glyphname = D;
lastChange = "2020-02-16 00:19:29 +0000";
layers = (
{
layerId = "EBA6CC13-AC95-47AE-A422-BCD5D8D196D3";
paths = (
{
closed = 1;
nodes = (
"700 700 LINE",
"100 700 LINE",
"100 -100 LINE",
"700 -100 LINE",
"700 0 LINE",
"800 0 LINE",
"800 600 LINE",
"700 600 LINE"
);
}
);
width = 800;
},
{
associatedMasterId = "EBA6CC13-AC95-47AE-A422-BCD5D8D196D3";
components = (
{
alignment = -1;
name = _pixel;
transform = "{1, 0, 0, 1, 100, 300}";
},
{
alignment = -1;
name = _pixel;
transform = "{1, 0, 0, 1, 200, 300}";
},
{
alignment = -1;
name = _pixel;
transform = "{1, 0, 0, 1, 200, 200}";
},
{
alignment = -1;
name = _pixel;
transform = "{1, 0, 0, 1, 200, 100}";
},
{
alignment = -1;
name = _pixel;
transform = "{1, 0, 0, 1, 200, 0}";
},
{
alignment = -1;
name = _pixel;
transform = "{1, 0, 0, 1, 200, -100}";
},
{
alignment = -1;
name = _pixel;
transform = "{1, 0, 0, 1, 100, -100}";
},
{
alignment = -1;
name = _pixel;
transform = "{1, 0, 0, 1, 100, 0}";
},
{
alignment = -1;
name = _pixel;
transform = "{1, 0, 0, 1, 100, 100}";
},
{
alignment = -1;
name = _pixel;
transform = "{1, 0, 0, 1, 100, 200}";
},
{
alignment = -1;
name = _pixel;
transform = "{1, 0, 0, 1, 500, 100}";
},
{
alignment = -1;
name = _pixel;
transform = "{1, 0, 0, 1, 700, 200}";
},
{
alignment = -1;
name = _pixel;
transform = "{1, 0, 0, 1, 600, -100}";
},
{
alignment = -1;
name = _pixel;
transform = "{1, 0, 0, 1, 500, -100}";
},
{
alignment = -1;
name = _pixel;
transform = "{1, 0, 0, 1, 500, 0}";
},
{
alignment = -1;
name = _pixel;
transform = "{1, 0, 0, 1, 500, 200}";
},
{
alignment = -1;
name = _pixel;
transform = "{1, 0, 0, 1, 500, 300}";
},
{
alignment = -1;
name = _pixel;
transform = "{1, 0, 0, 1, 600, 300}";
},
{
alignment = -1;
name = _pixel;
transform = "{1, 0, 0, 1, 600, 200}";
},
{
alignment = -1;
name = _pixel;
transform = "{1, 0, 0, 1, 300, 300}";
},
{
alignment = -1;
name = _pixel;
transform = "{1, 0, 0, 1, 400, 300}";
},
{
alignment = -1;
name = _pixel;
transform = "{1, 0, 0, 1, 600, 100}";
},
{
alignment = -1;
name = _pixel;
transform = "{1, 0, 0, 1, 700, 100}";
},
{
alignment = -1;
name = _pixel;
transform = "{1, 0, 0, 1, 600, 0}";
},
{
alignment = -1;
name = _pixel;
transform = "{1, 0, 0, 1, 300, -100}";
},
{
alignment = -1;
name = _pixel;
transform = "{1, 0, 0, 1, 400, -100}";
},
{
alignment = -1;
name = _pixel;
transform = "{1, 0, 0, 1, 700, 0}";
}
);
layerId = "29895EA3-C0A8-407E-9700-9C421B21F5CB";
name = "Color 3";
width = 800;
},
{
associatedMasterId = "EBA6CC13-AC95-47AE-A422-BCD5D8D196D3";
components = (
{
alignment = -1;
name = _pixel;
transform = "{1, 0, 0, 1, 100, 400}";
},
{
alignment = -1;
name = _pixel;
transform = "{1, 0, 0, 1, 200, 400}";
},
{
alignment = -1;
name = _pixel;
transform = "{1, 0, 0, 1, 200, 300}";
},
{
alignment = -1;
name = _pixel;
transform = "{1, 0, 0, 1, 200, 200}";
},
{
alignment = -1;
name = _pixel;
transform = "{1, 0, 0, 1, 200, 100}";
},
{
alignment = -1;
name = _pixel;
transform = "{1, 0, 0, 1, 200, 0}";
},
{
alignment = -1;
name = _pixel;
transform = "{1, 0, 0, 1, 100, 0}";
},
{
alignment = -1;
name = _pixel;
transform = "{1, 0, 0, 1, 100, 100}";
},
{
alignment = -1;
name = _pixel;
transform = "{1, 0, 0, 1, 100, 200}";
},
{
alignment = -1;
name = _pixel;
transform = "{1, 0, 0, 1, 100, 300}";
},
{
alignment = -1;
name = _pixel;
transform = "{1, 0, 0, 1, 500, 200}";
},
{
alignment = -1;
name = _pixel;
transform = "{1, 0, 0, 1, 700, 300}";
},
{
alignment = -1;
name = _pixel;
transform = "{1, 0, 0, 1, 600, 0}";
},
{
alignment = -1;
name = _pixel;
transform = "{1, 0, 0, 1, 500, 0}";
},
{
alignment = -1;
name = _pixel;
transform = "{1, 0, 0, 1, 500, 100}";
},
{
alignment = -1;
name = _pixel;
transform = "{1, 0, 0, 1, 500, 300}";
},
{
alignment = -1;
name = _pixel;
transform = "{1, 0, 0, 1, 500, 400}";
},
{
alignment = -1;
name = _pixel;
transform = "{1, 0, 0, 1, 600, 400}";
},
{
alignment = -1;
name = _pixel;
transform = "{1, 0, 0, 1, 600, 300}";
},
{
alignment = -1;
name = _pixel;
transform = "{1, 0, 0, 1, 300, 400}";
},
{
alignment = -1;
name = _pixel;
transform = "{1, 0, 0, 1, 400, 400}";
},
{
alignment = -1;
name = _pixel;
transform = "{1, 0, 0, 1, 600, 200}";
},
{
alignment = -1;
name = _pixel;
transform = "{1, 0, 0, 1, 700, 200}";
},
{
alignment = -1;
name = _pixel;
transform = "{1, 0, 0, 1, 600, 100}";
},
{
alignment = -1;
name = _pixel;
transform = "{1, 0, 0, 1, 300, 0}";
},
{
alignment = -1;
name = _pixel;
transform = "{1, 0, 0, 1, 400, 0}";
},
{
alignment = -1;
name = _pixel;
transform = "{1, 0, 0, 1, 700, 100}";
}
);
layerId = "6BDB1F0B-2B1B-407F-A896-AC70F68403C9";
name = "Color 2";
width = 800;
},
{
associatedMasterId = "EBA6CC13-AC95-47AE-A422-BCD5D8D196D3";
components = (
{
alignment = -1;
name = _pixel;
transform = "{1, 0, 0, 1, 100, 500}";
},
{
alignment = -1;
name = _pixel;
transform = "{1, 0, 0, 1, 200, 500}";
},
{
alignment = -1;
name = _pixel;
transform = "{1, 0, 0, 1, 200, 400}";
},
{
alignment = -1;
name = _pixel;
transform = "{1, 0, 0, 1, 200, 300}";
},
{
alignment = -1;
name = _pixel;
transform = "{1, 0, 0, 1, 200, 200}";
},
{
alignment = -1;
name = _pixel;
transform = "{1, 0, 0, 1, 200, 100}";
},
{
alignment = -1;
name = _pixel;
transform = "{1, 0, 0, 1, 100, 100}";
},
{
alignment = -1;
name = _pixel;
transform = "{1, 0, 0, 1, 100, 200}";
},
{
alignment = -1;
name = _pixel;
transform = "{1, 0, 0, 1, 100, 300}";
},
{
alignment = -1;
name = _pixel;
transform = "{1, 0, 0, 1, 100, 400}";
},
{
alignment = -1;
name = _pixel;
transform = "{1, 0, 0, 1, 500, 300}";
},
{
alignment = -1;
name = _pixel;
transform = "{1, 0, 0, 1, 700, 400}";
},
{
alignment = -1;
name = _pixel;
transform = "{1, 0, 0, 1, 600, 100}";
},
{
alignment = -1;
name = _pixel;
transform = "{1, 0, 0, 1, 500, 100}";
},
{
alignment = -1;
name = _pixel;
transform = "{1, 0, 0, 1, 500, 200}";
},
{
alignment = -1;
name = _pixel;
transform = "{1, 0, 0, 1, 500, 400}";
},
{
alignment = -1;
name = _pixel;
transform = "{1, 0, 0, 1, 500, 500}";
},
{
alignment = -1;
name = _pixel;
transform = "{1, 0, 0, 1, 600, 500}";
},
{
alignment = -1;
name = _pixel;
transform = "{1, 0, 0, 1, 600, 400}";
},
{
alignment = -1;
name = _pixel;
transform = "{1, 0, 0, 1, 300, 500}";
},
{
alignment = -1;
name = _pixel;
transform = "{1, 0, 0, 1, 400, 500}";
},
{
alignment = -1;
name = _pixel;
transform = "{1, 0, 0, 1, 600, 300}";
},
{
alignment = -1;
name = _pixel;
transform = "{1, 0, 0, 1, 700, 300}";
},
{
alignment = -1;
name = _pixel;
transform = "{1, 0, 0, 1, 600, 200}";
},
{
alignment = -1;
name = _pixel;
transform = "{1, 0, 0, 1, 300, 100}";
},
{
alignment = -1;
name = _pixel;
transform = "{1, 0, 0, 1, 400, 100}";
},
{
alignment = -1;
name = _pixel;
transform = "{1, 0, 0, 1, 700, 200}";
}
);
layerId = "DC2F6F49-0614-4506-825E-CA2227696917";
name = "Color 1";
width = 800;
},
{
associatedMasterId = "EBA6CC13-AC95-47AE-A422-BCD5D8D196D3";
components = (
{
alignment = -1;
name = _pixel;
transform = "{1, 0, 0, 1, 100, 600}";
},
{
alignment = -1;
name = _pixel;
transform = "{1, 0, 0, 1, 200, 600}";
},
{
alignment = -1;
name = _pixel;
transform = "{1, 0, 0, 1, 200, 500}";
},
{
alignment = -1;
name = _pixel;
transform = "{1, 0, 0, 1, 200, 400}";
},
{
alignment = -1;
name = _pixel;
transform = "{1, 0, 0, 1, 200, 300}";
},
{
alignment = -1;
name = _pixel;
transform = "{1, 0, 0, 1, 200, 200}";
},
{
alignment = -1;
name = _pixel;
transform = "{1, 0, 0, 1, 100, 200}";
},
{
alignment = -1;
name = _pixel;
transform = "{1, 0, 0, 1, 100, 300}";
},
{
alignment = -1;
name = _pixel;
transform = "{1, 0, 0, 1, 100, 400}";
},
{
alignment = -1;
name = _pixel;
transform = "{1, 0, 0, 1, 100, 500}";
},
{
alignment = -1;
name = _pixel;
transform = "{1, 0, 0, 1, 500, 400}";
},
{
alignment = -1;
name = _pixel;
transform = "{1, 0, 0, 1, 700, 500}";
},
{
alignment = -1;
name = _pixel;
transform = "{1, 0, 0, 1, 600, 200}";
},
{
alignment = -1;
name = _pixel;
transform = "{1, 0, 0, 1, 500, 200}";
},
{
alignment = -1;
name = _pixel;
transform = "{1, 0, 0, 1, 500, 300}";
},
{
alignment = -1;
name = _pixel;
transform = "{1, 0, 0, 1, 500, 500}";
},
{
alignment = -1;
name = _pixel;
transform = "{1, 0, 0, 1, 500, 600}";
},
{
alignment = -1;
name = _pixel;
transform = "{1, 0, 0, 1, 600, 600}";
},
{
alignment = -1;
name = _pixel;
transform = "{1, 0, 0, 1, 600, 500}";
},
{
alignment = -1;
name = _pixel;
transform = "{1, 0, 0, 1, 300, 600}";
},
{
alignment = -1;
name = _pixel;
transform = "{1, 0, 0, 1, 400, 600}";
},
{
alignment = -1;
name = _pixel;
transform = "{1, 0, 0, 1, 600, 400}";
},
{
alignment = -1;
name = _pixel;
transform = "{1, 0, 0, 1, 700, 400}";
},
{
alignment = -1;
name = _pixel;
transform = "{1, 0, 0, 1, 600, 300}";
},
{
alignment = -1;
name = _pixel;
transform = "{1, 0, 0, 1, 300, 200}";
},
{
alignment = -1;
name = _pixel;
transform = "{1, 0, 0, 1, 400, 200}";
},
{
alignment = -1;
name = _pixel;
transform = "{1, 0, 0, 1, 700, 300}";
}
);
layerId = "333BF133-DB41-4575-B232-D783EF459194";
name = "Color 0";
width = 800;
}
);
unicode = "0044,0064";
},
{
glyphname = E;
lastChange = "2020-02-16 00:19:29 +0000";
layers = (
{
layerId = "EBA6CC13-AC95-47AE-A422-BCD5D8D196D3";
paths = (
{
closed = 1;
nodes = (
"100 700 LINE",
"100 -100 LINE",
"800 -100 LINE",
"800 700 LINE"
);
}
);
width = 800;
},
{
associatedMasterId = "EBA6CC13-AC95-47AE-A422-BCD5D8D196D3";
components = (
{
alignment = -1;
name = _pixel;
transform = "{1, 0, 0, 1, 100, 300}";
},
{
alignment = -1;
name = _pixel;
transform = "{1, 0, 0, 1, 200, 300}";
},
{
alignment = -1;
name = _pixel;
transform = "{1, 0, 0, 1, 200, 200}";
},
{
alignment = -1;
name = _pixel;
transform = "{1, 0, 0, 1, 200, 100}";
},
{
alignment = -1;
name = _pixel;
transform = "{1, 0, 0, 1, 200, 0}";
},
{
alignment = -1;
name = _pixel;
transform = "{1, 0, 0, 1, 200, -100}";
},
{
alignment = -1;
name = _pixel;
transform = "{1, 0, 0, 1, 100, -100}";
},
{
alignment = -1;
name = _pixel;
transform = "{1, 0, 0, 1, 100, 0}";
},
{
alignment = -1;
name = _pixel;
transform = "{1, 0, 0, 1, 100, 100}";
},
{
alignment = -1;
name = _pixel;
transform = "{1, 0, 0, 1, 100, 200}";
},
{
alignment = -1;
name = _pixel;
transform = "{1, 0, 0, 1, 700, -100}";
},
{
alignment = -1;
name = _pixel;
transform = "{1, 0, 0, 1, 600, -100}";
},
{
alignment = -1;
name = _pixel;
transform = "{1, 0, 0, 1, 500, -100}";
},
{
alignment = -1;
name = _pixel;
transform = "{1, 0, 0, 1, 500, 300}";
},
{
alignment = -1;
name = _pixel;
transform = "{1, 0, 0, 1, 600, 300}";
},
{
alignment = -1;
name = _pixel;
transform = "{1, 0, 0, 1, 300, 300}";
},
{
alignment = -1;
name = _pixel;
transform = "{1, 0, 0, 1, 400, 300}";
},
{
alignment = -1;
name = _pixel;
transform = "{1, 0, 0, 1, 300, -100}";
},
{
alignment = -1;
name = _pixel;
transform = "{1, 0, 0, 1, 400, -100}";
},
{
alignment = -1;
name = _pixel;
transform = "{1, 0, 0, 1, 300, 100}";
},
{
alignment = -1;
name = _pixel;
transform = "{1, 0, 0, 1, 700, 300}";
},
{
alignment = -1;
name = _pixel;
transform = "{1, 0, 0, 1, 700, 0}";
},
{
alignment = -1;
name = _pixel;
transform = "{1, 0, 0, 1, 700, 200}";
},
{
alignment = -1;
name = _pixel;
transform = "{1, 0, 0, 1, 500, 200}";
},
{
alignment = -1;
name = _pixel;
transform = "{1, 0, 0, 1, 600, 200}";
},
{
alignment = -1;
name = _pixel;
transform = "{1, 0, 0, 1, 500, 0}";
},
{
alignment = -1;
name = _pixel;
transform = "{1, 0, 0, 1, 600, 0}";
}
);
layerId = "29895EA3-C0A8-407E-9700-9C421B21F5CB";
name = "Color 3";
width = 800;
},
{
associatedMasterId = "EBA6CC13-AC95-47AE-A422-BCD5D8D196D3";
components = (
{
alignment = -1;
name = _pixel;
transform = "{1, 0, 0, 1, 100, 400}";
},
{
alignment = -1;
name = _pixel;
transform = "{1, 0, 0, 1, 200, 400}";
},
{
alignment = -1;
name = _pixel;
transform = "{1, 0, 0, 1, 200, 300}";
},
{
alignment = -1;
name = _pixel;
transform = "{1, 0, 0, 1, 200, 200}";
},
{
alignment = -1;
name = _pixel;
transform = "{1, 0, 0, 1, 200, 100}";
},
{
alignment = -1;
name = _pixel;
transform = "{1, 0, 0, 1, 200, 0}";
},
{
alignment = -1;
name = _pixel;
transform = "{1, 0, 0, 1, 100, 0}";
},
{
alignment = -1;
name = _pixel;
transform = "{1, 0, 0, 1, 100, 100}";
},
{
alignment = -1;
name = _pixel;
transform = "{1, 0, 0, 1, 100, 200}";
},
{
alignment = -1;
name = _pixel;
transform = "{1, 0, 0, 1, 100, 300}";
},
{
alignment = -1;
name = _pixel;
transform = "{1, 0, 0, 1, 700, 0}";
},
{
alignment = -1;
name = _pixel;
transform = "{1, 0, 0, 1, 600, 0}";
},
{
alignment = -1;
name = _pixel;
transform = "{1, 0, 0, 1, 500, 0}";
},
{
alignment = -1;
name = _pixel;
transform = "{1, 0, 0, 1, 500, 400}";
},
{
alignment = -1;
name = _pixel;
transform = "{1, 0, 0, 1, 600, 400}";
},
{
alignment = -1;
name = _pixel;
transform = "{1, 0, 0, 1, 300, 400}";
},
{
alignment = -1;
name = _pixel;
transform = "{1, 0, 0, 1, 400, 400}";
},
{
alignment = -1;
name = _pixel;
transform = "{1, 0, 0, 1, 300, 0}";
},
{
alignment = -1;
name = _pixel;
transform = "{1, 0, 0, 1, 400, 0}";
},
{
alignment = -1;
name = _pixel;
transform = "{1, 0, 0, 1, 300, 200}";
},
{
alignment = -1;
name = _pixel;
transform = "{1, 0, 0, 1, 700, 400}";
},
{
alignment = -1;
name = _pixel;
transform = "{1, 0, 0, 1, 700, 100}";
},
{
alignment = -1;
name = _pixel;
transform = "{1, 0, 0, 1, 700, 300}";
},
{
alignment = -1;
name = _pixel;
transform = "{1, 0, 0, 1, 500, 300}";
},
{
alignment = -1;
name = _pixel;
transform = "{1, 0, 0, 1, 600, 300}";
},
{
alignment = -1;
name = _pixel;
transform = "{1, 0, 0, 1, 500, 100}";
},
{
alignment = -1;
name = _pixel;
transform = "{1, 0, 0, 1, 600, 100}";
}
);
layerId = "6BDB1F0B-2B1B-407F-A896-AC70F68403C9";
name = "Color 2";
width = 800;
},
{
associatedMasterId = "EBA6CC13-AC95-47AE-A422-BCD5D8D196D3";
components = (
{
alignment = -1;
name = _pixel;
transform = "{1, 0, 0, 1, 100, 500}";
},
{
alignment = -1;
name = _pixel;
transform = "{1, 0, 0, 1, 200, 500}";
},
{
alignment = -1;
name = _pixel;
transform = "{1, 0, 0, 1, 200, 400}";
},
{
alignment = -1;
name = _pixel;
transform = "{1, 0, 0, 1, 200, 300}";
},
{
alignment = -1;
name = _pixel;
transform = "{1, 0, 0, 1, 200, 200}";
},
{
alignment = -1;
name = _pixel;
transform = "{1, 0, 0, 1, 200, 100}";
},
{
alignment = -1;
name = _pixel;
transform = "{1, 0, 0, 1, 100, 100}";
},
{
alignment = -1;
name = _pixel;
transform = "{1, 0, 0, 1, 100, 200}";
},
{
alignment = -1;
name = _pixel;
transform = "{1, 0, 0, 1, 100, 300}";
},
{
alignment = -1;
name = _pixel;
transform = "{1, 0, 0, 1, 100, 400}";
},
{
alignment = -1;
name = _pixel;
transform = "{1, 0, 0, 1, 700, 100}";
},
{
alignment = -1;
name = _pixel;
transform = "{1, 0, 0, 1, 600, 100}";
},
{
alignment = -1;
name = _pixel;
transform = "{1, 0, 0, 1, 500, 100}";
},
{
alignment = -1;
name = _pixel;
transform = "{1, 0, 0, 1, 500, 500}";
},
{
alignment = -1;
name = _pixel;
transform = "{1, 0, 0, 1, 600, 500}";
},
{
alignment = -1;
name = _pixel;
transform = "{1, 0, 0, 1, 300, 500}";
},
{
alignment = -1;
name = _pixel;
transform = "{1, 0, 0, 1, 400, 500}";
},
{
alignment = -1;
name = _pixel;
transform = "{1, 0, 0, 1, 300, 100}";
},
{
alignment = -1;
name = _pixel;
transform = "{1, 0, 0, 1, 400, 100}";
},
{
alignment = -1;
name = _pixel;
transform = "{1, 0, 0, 1, 300, 300}";
},
{
alignment = -1;
name = _pixel;
transform = "{1, 0, 0, 1, 700, 500}";
},
{
alignment = -1;
name = _pixel;
transform = "{1, 0, 0, 1, 700, 200}";
},
{
alignment = -1;
name = _pixel;
transform = "{1, 0, 0, 1, 700, 400}";
},
{
alignment = -1;
name = _pixel;
transform = "{1, 0, 0, 1, 500, 400}";
},
{
alignment = -1;
name = _pixel;
transform = "{1, 0, 0, 1, 600, 400}";
},
{
alignment = -1;
name = _pixel;
transform = "{1, 0, 0, 1, 500, 200}";
},
{
alignment = -1;
name = _pixel;
transform = "{1, 0, 0, 1, 600, 200}";
}
);
layerId = "DC2F6F49-0614-4506-825E-CA2227696917";
name = "Color 1";
width = 800;
},
{
associatedMasterId = "EBA6CC13-AC95-47AE-A422-BCD5D8D196D3";
components = (
{
alignment = -1;
name = _pixel;
transform = "{1, 0, 0, 1, 100, 600}";
},
{
alignment = -1;
name = _pixel;
transform = "{1, 0, 0, 1, 200, 600}";
},
{
alignment = -1;
name = _pixel;
transform = "{1, 0, 0, 1, 200, 500}";
},
{
alignment = -1;
name = _pixel;
transform = "{1, 0, 0, 1, 200, 400}";
},
{
alignment = -1;
name = _pixel;
transform = "{1, 0, 0, 1, 200, 300}";
},
{
alignment = -1;
name = _pixel;
transform = "{1, 0, 0, 1, 200, 200}";
},
{
alignment = -1;
name = _pixel;
transform = "{1, 0, 0, 1, 100, 200}";
},
{
alignment = -1;
name = _pixel;
transform = "{1, 0, 0, 1, 100, 300}";
},
{
alignment = -1;
name = _pixel;
transform = "{1, 0, 0, 1, 100, 400}";
},
{
alignment = -1;
name = _pixel;
transform = "{1, 0, 0, 1, 100, 500}";
},
{
alignment = -1;
name = _pixel;
transform = "{1, 0, 0, 1, 700, 200}";
},
{
alignment = -1;
name = _pixel;
transform = "{1, 0, 0, 1, 600, 200}";
},
{
alignment = -1;
name = _pixel;
transform = "{1, 0, 0, 1, 500, 200}";
},
{
alignment = -1;
name = _pixel;
transform = "{1, 0, 0, 1, 500, 600}";
},
{
alignment = -1;
name = _pixel;
transform = "{1, 0, 0, 1, 600, 600}";
},
{
alignment = -1;
name = _pixel;
transform = "{1, 0, 0, 1, 300, 600}";
},
{
alignment = -1;
name = _pixel;
transform = "{1, 0, 0, 1, 400, 600}";
},
{
alignment = -1;
name = _pixel;
transform = "{1, 0, 0, 1, 300, 200}";
},
{
alignment = -1;
name = _pixel;
transform = "{1, 0, 0, 1, 400, 200}";
},
{
alignment = -1;
name = _pixel;
transform = "{1, 0, 0, 1, 300, 400}";
},
{
alignment = -1;
name = _pixel;
transform = "{1, 0, 0, 1, 700, 600}";
},
{
alignment = -1;
name = _pixel;
transform = "{1, 0, 0, 1, 700, 300}";
},
{
alignment = -1;
name = _pixel;
transform = "{1, 0, 0, 1, 700, 500}";
},
{
alignment = -1;
name = _pixel;
transform = "{1, 0, 0, 1, 500, 500}";
},
{
alignment = -1;
name = _pixel;
transform = "{1, 0, 0, 1, 600, 500}";
},
{
alignment = -1;
name = _pixel;
transform = "{1, 0, 0, 1, 500, 300}";
},
{
alignment = -1;
name = _pixel;
transform = "{1, 0, 0, 1, 600, 300}";
}
);
layerId = "333BF133-DB41-4575-B232-D783EF459194";
name = "Color 0";
width = 800;
}
);
unicode = "0045,0065";
},
{
glyphname = F;
lastChange = "2020-02-16 00:19:35 +0000";
layers = (
{
layerId = "EBA6CC13-AC95-47AE-A422-BCD5D8D196D3";
paths = (
{
closed = 1;
nodes = (
"100 700 LINE",
"100 -100 LINE",
"300 -100 LINE",
"300 0 LINE",
"600 0 LINE",
"600 200 LINE",
"800 200 LINE",
"800 700 LINE"
);
}
);
width = 800;
},
{
associatedMasterId = "EBA6CC13-AC95-47AE-A422-BCD5D8D196D3";
components = (
{
alignment = -1;
name = _pixel;
transform = "{1, 0, 0, 1, 100, 300}";
},
{
alignment = -1;
name = _pixel;
transform = "{1, 0, 0, 1, 200, 300}";
},
{
alignment = -1;
name = _pixel;
transform = "{1, 0, 0, 1, 200, 200}";
},
{
alignment = -1;
name = _pixel;
transform = "{1, 0, 0, 1, 200, 100}";
},
{
alignment = -1;
name = _pixel;
transform = "{1, 0, 0, 1, 200, 0}";
},
{
alignment = -1;
name = _pixel;
transform = "{1, 0, 0, 1, 200, -100}";
},
{
alignment = -1;
name = _pixel;
transform = "{1, 0, 0, 1, 100, -100}";
},
{
alignment = -1;
name = _pixel;
transform = "{1, 0, 0, 1, 100, 0}";
},
{
alignment = -1;
name = _pixel;
transform = "{1, 0, 0, 1, 100, 100}";
},
{
alignment = -1;
name = _pixel;
transform = "{1, 0, 0, 1, 100, 200}";
},
{
alignment = -1;
name = _pixel;
transform = "{1, 0, 0, 1, 500, 300}";
},
{
alignment = -1;
name = _pixel;
transform = "{1, 0, 0, 1, 600, 300}";
},
{
alignment = -1;
name = _pixel;
transform = "{1, 0, 0, 1, 300, 300}";
},
{
alignment = -1;
name = _pixel;
transform = "{1, 0, 0, 1, 400, 300}";
},
{
alignment = -1;
name = _pixel;
transform = "{1, 0, 0, 1, 300, 0}";
},
{
alignment = -1;
name = _pixel;
transform = "{1, 0, 0, 1, 700, 300}";
},
{
alignment = -1;
name = _pixel;
transform = "{1, 0, 0, 1, 700, 200}";
},
{
alignment = -1;
name = _pixel;
transform = "{1, 0, 0, 1, 400, 0}";
},
{
alignment = -1;
name = _pixel;
transform = "{1, 0, 0, 1, 600, 200}";
},
{
alignment = -1;
name = _pixel;
transform = "{1, 0, 0, 1, 500, 200}";
},
{
alignment = -1;
name = _pixel;
transform = "{1, 0, 0, 1, 500, 0}";
}
);
layerId = "29895EA3-C0A8-407E-9700-9C421B21F5CB";
name = "Color 3";
width = 800;
},
{
associatedMasterId = "EBA6CC13-AC95-47AE-A422-BCD5D8D196D3";
components = (
{
alignment = -1;
name = _pixel;
transform = "{1, 0, 0, 1, 100, 400}";
},
{
alignment = -1;
name = _pixel;
transform = "{1, 0, 0, 1, 200, 400}";
},
{
alignment = -1;
name = _pixel;
transform = "{1, 0, 0, 1, 200, 300}";
},
{
alignment = -1;
name = _pixel;
transform = "{1, 0, 0, 1, 200, 200}";
},
{
alignment = -1;
name = _pixel;
transform = "{1, 0, 0, 1, 200, 100}";
},
{
alignment = -1;
name = _pixel;
transform = "{1, 0, 0, 1, 200, 0}";
},
{
alignment = -1;
name = _pixel;
transform = "{1, 0, 0, 1, 100, 0}";
},
{
alignment = -1;
name = _pixel;
transform = "{1, 0, 0, 1, 100, 100}";
},
{
alignment = -1;
name = _pixel;
transform = "{1, 0, 0, 1, 100, 200}";
},
{
alignment = -1;
name = _pixel;
transform = "{1, 0, 0, 1, 100, 300}";
},
{
alignment = -1;
name = _pixel;
transform = "{1, 0, 0, 1, 500, 400}";
},
{
alignment = -1;
name = _pixel;
transform = "{1, 0, 0, 1, 600, 400}";
},
{
alignment = -1;
name = _pixel;
transform = "{1, 0, 0, 1, 300, 400}";
},
{
alignment = -1;
name = _pixel;
transform = "{1, 0, 0, 1, 400, 400}";
},
{
alignment = -1;
name = _pixel;
transform = "{1, 0, 0, 1, 300, 100}";
},
{
alignment = -1;
name = _pixel;
transform = "{1, 0, 0, 1, 700, 400}";
},
{
alignment = -1;
name = _pixel;
transform = "{1, 0, 0, 1, 700, 300}";
},
{
alignment = -1;
name = _pixel;
transform = "{1, 0, 0, 1, 400, 100}";
},
{
alignment = -1;
name = _pixel;
transform = "{1, 0, 0, 1, 600, 300}";
},
{
alignment = -1;
name = _pixel;
transform = "{1, 0, 0, 1, 500, 300}";
},
{
alignment = -1;
name = _pixel;
transform = "{1, 0, 0, 1, 500, 100}";
}
);
layerId = "6BDB1F0B-2B1B-407F-A896-AC70F68403C9";
name = "Color 2";
width = 800;
},
{
associatedMasterId = "EBA6CC13-AC95-47AE-A422-BCD5D8D196D3";
components = (
{
alignment = -1;
name = _pixel;
transform = "{1, 0, 0, 1, 100, 500}";
},
{
alignment = -1;
name = _pixel;
transform = "{1, 0, 0, 1, 200, 500}";
},
{
alignment = -1;
name = _pixel;
transform = "{1, 0, 0, 1, 200, 400}";
},
{
alignment = -1;
name = _pixel;
transform = "{1, 0, 0, 1, 200, 300}";
},
{
alignment = -1;
name = _pixel;
transform = "{1, 0, 0, 1, 200, 200}";
},
{
alignment = -1;
name = _pixel;
transform = "{1, 0, 0, 1, 200, 100}";
},
{
alignment = -1;
name = _pixel;
transform = "{1, 0, 0, 1, 100, 100}";
},
{
alignment = -1;
name = _pixel;
transform = "{1, 0, 0, 1, 100, 200}";
},
{
alignment = -1;
name = _pixel;
transform = "{1, 0, 0, 1, 100, 300}";
},
{
alignment = -1;
name = _pixel;
transform = "{1, 0, 0, 1, 100, 400}";
},
{
alignment = -1;
name = _pixel;
transform = "{1, 0, 0, 1, 500, 500}";
},
{
alignment = -1;
name = _pixel;
transform = "{1, 0, 0, 1, 600, 500}";
},
{
alignment = -1;
name = _pixel;
transform = "{1, 0, 0, 1, 300, 500}";
},
{
alignment = -1;
name = _pixel;
transform = "{1, 0, 0, 1, 400, 500}";
},
{
alignment = -1;
name = _pixel;
transform = "{1, 0, 0, 1, 300, 200}";
},
{
alignment = -1;
name = _pixel;
transform = "{1, 0, 0, 1, 700, 500}";
},
{
alignment = -1;
name = _pixel;
transform = "{1, 0, 0, 1, 700, 400}";
},
{
alignment = -1;
name = _pixel;
transform = "{1, 0, 0, 1, 400, 200}";
},
{
alignment = -1;
name = _pixel;
transform = "{1, 0, 0, 1, 600, 400}";
},
{
alignment = -1;
name = _pixel;
transform = "{1, 0, 0, 1, 500, 400}";
},
{
alignment = -1;
name = _pixel;
transform = "{1, 0, 0, 1, 500, 200}";
}
);
layerId = "DC2F6F49-0614-4506-825E-CA2227696917";
name = "Color 1";
width = 800;
},
{
associatedMasterId = "EBA6CC13-AC95-47AE-A422-BCD5D8D196D3";
components = (
{
alignment = -1;
name = _pixel;
transform = "{1, 0, 0, 1, 100, 600}";
},
{
alignment = -1;
name = _pixel;
transform = "{1, 0, 0, 1, 200, 600}";
},
{
alignment = -1;
name = _pixel;
transform = "{1, 0, 0, 1, 200, 500}";
},
{
alignment = -1;
name = _pixel;
transform = "{1, 0, 0, 1, 200, 400}";
},
{
alignment = -1;
name = _pixel;
transform = "{1, 0, 0, 1, 200, 300}";
},
{
alignment = -1;
name = _pixel;
transform = "{1, 0, 0, 1, 200, 200}";
},
{
alignment = -1;
name = _pixel;
transform = "{1, 0, 0, 1, 100, 200}";
},
{
alignment = -1;
name = _pixel;
transform = "{1, 0, 0, 1, 100, 300}";
},
{
alignment = -1;
name = _pixel;
transform = "{1, 0, 0, 1, 100, 400}";
},
{
alignment = -1;
name = _pixel;
transform = "{1, 0, 0, 1, 100, 500}";
},
{
alignment = -1;
name = _pixel;
transform = "{1, 0, 0, 1, 500, 600}";
},
{
alignment = -1;
name = _pixel;
transform = "{1, 0, 0, 1, 600, 600}";
},
{
alignment = -1;
name = _pixel;
transform = "{1, 0, 0, 1, 300, 600}";
},
{
alignment = -1;
name = _pixel;
transform = "{1, 0, 0, 1, 400, 600}";
},
{
alignment = -1;
name = _pixel;
transform = "{1, 0, 0, 1, 300, 300}";
},
{
alignment = -1;
name = _pixel;
transform = "{1, 0, 0, 1, 700, 600}";
},
{
alignment = -1;
name = _pixel;
transform = "{1, 0, 0, 1, 700, 500}";
},
{
alignment = -1;
name = _pixel;
transform = "{1, 0, 0, 1, 400, 300}";
},
{
alignment = -1;
name = _pixel;
transform = "{1, 0, 0, 1, 600, 500}";
},
{
alignment = -1;
name = _pixel;
transform = "{1, 0, 0, 1, 500, 500}";
},
{
alignment = -1;
name = _pixel;
transform = "{1, 0, 0, 1, 500, 300}";
}
);
layerId = "333BF133-DB41-4575-B232-D783EF459194";
name = "Color 0";
width = 800;
}
);
unicode = "0046,0066";
},
{
glyphname = G;
lastChange = "2020-02-16 00:19:35 +0000";
layers = (
{
layerId = "EBA6CC13-AC95-47AE-A422-BCD5D8D196D3";
paths = (
{
closed = 1;
nodes = (
"200 700 LINE",
"200 600 LINE",
"100 600 LINE",
"100 0 LINE",
"200 0 LINE",
"200 -100 LINE",
"800 -100 LINE",
"800 700 LINE"
);
}
);
width = 800;
},
{
associatedMasterId = "EBA6CC13-AC95-47AE-A422-BCD5D8D196D3";
components = (
{
alignment = -1;
name = _pixel;
transform = "{1, 0, 0, 1, 200, 300}";
},
{
alignment = -1;
name = _pixel;
transform = "{1, 0, 0, 1, 200, 200}";
},
{
alignment = -1;
name = _pixel;
transform = "{1, 0, 0, 1, 200, 100}";
},
{
alignment = -1;
name = _pixel;
transform = "{1, 0, 0, 1, 200, 0}";
},
{
alignment = -1;
name = _pixel;
transform = "{1, 0, 0, 1, 200, -100}";
},
{
alignment = -1;
name = _pixel;
transform = "{1, 0, 0, 1, 100, 0}";
},
{
alignment = -1;
name = _pixel;
transform = "{1, 0, 0, 1, 100, 100}";
},
{
alignment = -1;
name = _pixel;
transform = "{1, 0, 0, 1, 100, 200}";
},
{
alignment = -1;
name = _pixel;
transform = "{1, 0, 0, 1, 600, -100}";
},
{
alignment = -1;
name = _pixel;
transform = "{1, 0, 0, 1, 500, -100}";
},
{
alignment = -1;
name = _pixel;
transform = "{1, 0, 0, 1, 500, 0}";
},
{
alignment = -1;
name = _pixel;
transform = "{1, 0, 0, 1, 500, 300}";
},
{
alignment = -1;
name = _pixel;
transform = "{1, 0, 0, 1, 600, 300}";
},
{
alignment = -1;
name = _pixel;
transform = "{1, 0, 0, 1, 300, 300}";
},
{
alignment = -1;
name = _pixel;
transform = "{1, 0, 0, 1, 400, 300}";
},
{
alignment = -1;
name = _pixel;
transform = "{1, 0, 0, 1, 600, 0}";
},
{
alignment = -1;
name = _pixel;
transform = "{1, 0, 0, 1, 300, -100}";
},
{
alignment = -1;
name = _pixel;
transform = "{1, 0, 0, 1, 400, -100}";
},
{
alignment = -1;
name = _pixel;
transform = "{1, 0, 0, 1, 700, 0}";
},
{
alignment = -1;
name = _pixel;
transform = "{1, 0, 0, 1, 700, 100}";
},
{
alignment = -1;
name = _pixel;
transform = "{1, 0, 0, 1, 600, 100}";
},
{
alignment = -1;
name = _pixel;
transform = "{1, 0, 0, 1, 500, 100}";
},
{
alignment = -1;
name = _pixel;
transform = "{1, 0, 0, 1, 400, 100}";
},
{
alignment = -1;
name = _pixel;
transform = "{1, 0, 0, 1, 700, 300}";
},
{
alignment = -1;
name = _pixel;
transform = "{1, 0, 0, 1, 700, -100}";
}
);
layerId = "29895EA3-C0A8-407E-9700-9C421B21F5CB";
name = "Color 3";
width = 800;
},
{
associatedMasterId = "EBA6CC13-AC95-47AE-A422-BCD5D8D196D3";
components = (
{
alignment = -1;
name = _pixel;
transform = "{1, 0, 0, 1, 200, 400}";
},
{
alignment = -1;
name = _pixel;
transform = "{1, 0, 0, 1, 200, 300}";
},
{
alignment = -1;
name = _pixel;
transform = "{1, 0, 0, 1, 200, 200}";
},
{
alignment = -1;
name = _pixel;
transform = "{1, 0, 0, 1, 200, 100}";
},
{
alignment = -1;
name = _pixel;
transform = "{1, 0, 0, 1, 200, 0}";
},
{
alignment = -1;
name = _pixel;
transform = "{1, 0, 0, 1, 100, 100}";
},
{
alignment = -1;
name = _pixel;
transform = "{1, 0, 0, 1, 100, 200}";
},
{
alignment = -1;
name = _pixel;
transform = "{1, 0, 0, 1, 100, 300}";
},
{
alignment = -1;
name = _pixel;
transform = "{1, 0, 0, 1, 600, 0}";
},
{
alignment = -1;
name = _pixel;
transform = "{1, 0, 0, 1, 500, 0}";
},
{
alignment = -1;
name = _pixel;
transform = "{1, 0, 0, 1, 500, 100}";
},
{
alignment = -1;
name = _pixel;
transform = "{1, 0, 0, 1, 500, 400}";
},
{
alignment = -1;
name = _pixel;
transform = "{1, 0, 0, 1, 600, 400}";
},
{
alignment = -1;
name = _pixel;
transform = "{1, 0, 0, 1, 300, 400}";
},
{
alignment = -1;
name = _pixel;
transform = "{1, 0, 0, 1, 400, 400}";
},
{
alignment = -1;
name = _pixel;
transform = "{1, 0, 0, 1, 600, 100}";
},
{
alignment = -1;
name = _pixel;
transform = "{1, 0, 0, 1, 300, 0}";
},
{
alignment = -1;
name = _pixel;
transform = "{1, 0, 0, 1, 400, 0}";
},
{
alignment = -1;
name = _pixel;
transform = "{1, 0, 0, 1, 700, 100}";
},
{
alignment = -1;
name = _pixel;
transform = "{1, 0, 0, 1, 700, 200}";
},
{
alignment = -1;
name = _pixel;
transform = "{1, 0, 0, 1, 600, 200}";
},
{
alignment = -1;
name = _pixel;
transform = "{1, 0, 0, 1, 500, 200}";
},
{
alignment = -1;
name = _pixel;
transform = "{1, 0, 0, 1, 400, 200}";
},
{
alignment = -1;
name = _pixel;
transform = "{1, 0, 0, 1, 700, 400}";
},
{
alignment = -1;
name = _pixel;
transform = "{1, 0, 0, 1, 700, 0}";
}
);
layerId = "6BDB1F0B-2B1B-407F-A896-AC70F68403C9";
name = "Color 2";
width = 800;
},
{
associatedMasterId = "EBA6CC13-AC95-47AE-A422-BCD5D8D196D3";
components = (
{
alignment = -1;
name = _pixel;
transform = "{1, 0, 0, 1, 200, 500}";
},
{
alignment = -1;
name = _pixel;
transform = "{1, 0, 0, 1, 200, 400}";
},
{
alignment = -1;
name = _pixel;
transform = "{1, 0, 0, 1, 200, 300}";
},
{
alignment = -1;
name = _pixel;
transform = "{1, 0, 0, 1, 200, 200}";
},
{
alignment = -1;
name = _pixel;
transform = "{1, 0, 0, 1, 200, 100}";
},
{
alignment = -1;
name = _pixel;
transform = "{1, 0, 0, 1, 100, 200}";
},
{
alignment = -1;
name = _pixel;
transform = "{1, 0, 0, 1, 100, 300}";
},
{
alignment = -1;
name = _pixel;
transform = "{1, 0, 0, 1, 100, 400}";
},
{
alignment = -1;
name = _pixel;
transform = "{1, 0, 0, 1, 600, 100}";
},
{
alignment = -1;
name = _pixel;
transform = "{1, 0, 0, 1, 500, 100}";
},
{
alignment = -1;
name = _pixel;
transform = "{1, 0, 0, 1, 500, 200}";
},
{
alignment = -1;
name = _pixel;
transform = "{1, 0, 0, 1, 500, 500}";
},
{
alignment = -1;
name = _pixel;
transform = "{1, 0, 0, 1, 600, 500}";
},
{
alignment = -1;
name = _pixel;
transform = "{1, 0, 0, 1, 300, 500}";
},
{
alignment = -1;
name = _pixel;
transform = "{1, 0, 0, 1, 400, 500}";
},
{
alignment = -1;
name = _pixel;
transform = "{1, 0, 0, 1, 600, 200}";
},
{
alignment = -1;
name = _pixel;
transform = "{1, 0, 0, 1, 300, 100}";
},
{
alignment = -1;
name = _pixel;
transform = "{1, 0, 0, 1, 400, 100}";
},
{
alignment = -1;
name = _pixel;
transform = "{1, 0, 0, 1, 700, 200}";
},
{
alignment = -1;
name = _pixel;
transform = "{1, 0, 0, 1, 700, 300}";
},
{
alignment = -1;
name = _pixel;
transform = "{1, 0, 0, 1, 600, 300}";
},
{
alignment = -1;
name = _pixel;
transform = "{1, 0, 0, 1, 500, 300}";
},
{
alignment = -1;
name = _pixel;
transform = "{1, 0, 0, 1, 400, 300}";
},
{
alignment = -1;
name = _pixel;
transform = "{1, 0, 0, 1, 700, 500}";
},
{
alignment = -1;
name = _pixel;
transform = "{1, 0, 0, 1, 700, 100}";
}
);
layerId = "DC2F6F49-0614-4506-825E-CA2227696917";
name = "Color 1";
width = 800;
},
{
associatedMasterId = "EBA6CC13-AC95-47AE-A422-BCD5D8D196D3";
components = (
{
alignment = -1;
name = _pixel;
transform = "{1, 0, 0, 1, 200, 600}";
},
{
alignment = -1;
name = _pixel;
transform = "{1, 0, 0, 1, 200, 500}";
},
{
alignment = -1;
name = _pixel;
transform = "{1, 0, 0, 1, 200, 400}";
},
{
alignment = -1;
name = _pixel;
transform = "{1, 0, 0, 1, 200, 300}";
},
{
alignment = -1;
name = _pixel;
transform = "{1, 0, 0, 1, 200, 200}";
},
{
alignment = -1;
name = _pixel;
transform = "{1, 0, 0, 1, 100, 300}";
},
{
alignment = -1;
name = _pixel;
transform = "{1, 0, 0, 1, 100, 400}";
},
{
alignment = -1;
name = _pixel;
transform = "{1, 0, 0, 1, 100, 500}";
},
{
alignment = -1;
name = _pixel;
transform = "{1, 0, 0, 1, 600, 200}";
},
{
alignment = -1;
name = _pixel;
transform = "{1, 0, 0, 1, 500, 200}";
},
{
alignment = -1;
name = _pixel;
transform = "{1, 0, 0, 1, 500, 300}";
},
{
alignment = -1;
name = _pixel;
transform = "{1, 0, 0, 1, 500, 600}";
},
{
alignment = -1;
name = _pixel;
transform = "{1, 0, 0, 1, 600, 600}";
},
{
alignment = -1;
name = _pixel;
transform = "{1, 0, 0, 1, 300, 600}";
},
{
alignment = -1;
name = _pixel;
transform = "{1, 0, 0, 1, 400, 600}";
},
{
alignment = -1;
name = _pixel;
transform = "{1, 0, 0, 1, 600, 300}";
},
{
alignment = -1;
name = _pixel;
transform = "{1, 0, 0, 1, 300, 200}";
},
{
alignment = -1;
name = _pixel;
transform = "{1, 0, 0, 1, 400, 200}";
},
{
alignment = -1;
name = _pixel;
transform = "{1, 0, 0, 1, 700, 300}";
},
{
alignment = -1;
name = _pixel;
transform = "{1, 0, 0, 1, 700, 400}";
},
{
alignment = -1;
name = _pixel;
transform = "{1, 0, 0, 1, 600, 400}";
},
{
alignment = -1;
name = _pixel;
transform = "{1, 0, 0, 1, 500, 400}";
},
{
alignment = -1;
name = _pixel;
transform = "{1, 0, 0, 1, 400, 400}";
},
{
alignment = -1;
name = _pixel;
transform = "{1, 0, 0, 1, 700, 600}";
},
{
alignment = -1;
name = _pixel;
transform = "{1, 0, 0, 1, 700, 200}";
}
);
layerId = "333BF133-DB41-4575-B232-D783EF459194";
name = "Color 0";
width = 800;
}
);
unicode = "0047,0067";
},
{
glyphname = H;
lastChange = "2020-02-16 00:19:35 +0000";
layers = (
{
layerId = "EBA6CC13-AC95-47AE-A422-BCD5D8D196D3";
paths = (
{
closed = 1;
nodes = (
"500 700 LINE",
"500 400 LINE",
"300 400 LINE",
"300 700 LINE",
"100 700 LINE",
"100 -100 LINE",
"300 -100 LINE",
"300 0 LINE",
"500 0 LINE",
"500 -100 LINE",
"800 -100 LINE",
"800 700 LINE"
);
}
);
width = 800;
},
{
associatedMasterId = "EBA6CC13-AC95-47AE-A422-BCD5D8D196D3";
components = (
{
alignment = -1;
name = _pixel;
transform = "{1, 0, 0, 1, 100, 300}";
},
{
alignment = -1;
name = _pixel;
transform = "{1, 0, 0, 1, 200, 300}";
},
{
alignment = -1;
name = _pixel;
transform = "{1, 0, 0, 1, 200, 200}";
},
{
alignment = -1;
name = _pixel;
transform = "{1, 0, 0, 1, 200, 100}";
},
{
alignment = -1;
name = _pixel;
transform = "{1, 0, 0, 1, 200, 0}";
},
{
alignment = -1;
name = _pixel;
transform = "{1, 0, 0, 1, 200, -100}";
},
{
alignment = -1;
name = _pixel;
transform = "{1, 0, 0, 1, 100, -100}";
},
{
alignment = -1;
name = _pixel;
transform = "{1, 0, 0, 1, 100, 0}";
},
{
alignment = -1;
name = _pixel;
transform = "{1, 0, 0, 1, 100, 100}";
},
{
alignment = -1;
name = _pixel;
transform = "{1, 0, 0, 1, 100, 200}";
},
{
alignment = -1;
name = _pixel;
transform = "{1, 0, 0, 1, 500, 100}";
},
{
alignment = -1;
name = _pixel;
transform = "{1, 0, 0, 1, 700, 300}";
},
{
alignment = -1;
name = _pixel;
transform = "{1, 0, 0, 1, 700, 200}";
},
{
alignment = -1;
name = _pixel;
transform = "{1, 0, 0, 1, 700, 100}";
},
{
alignment = -1;
name = _pixel;
transform = "{1, 0, 0, 1, 700, 0}";
},
{
alignment = -1;
name = _pixel;
transform = "{1, 0, 0, 1, 700, -100}";
},
{
alignment = -1;
name = _pixel;
transform = "{1, 0, 0, 1, 600, -100}";
},
{
alignment = -1;
name = _pixel;
transform = "{1, 0, 0, 1, 500, -100}";
},
{
alignment = -1;
name = _pixel;
transform = "{1, 0, 0, 1, 500, 0}";
},
{
alignment = -1;
name = _pixel;
transform = "{1, 0, 0, 1, 500, 200}";
},
{
alignment = -1;
name = _pixel;
transform = "{1, 0, 0, 1, 500, 300}";
},
{
alignment = -1;
name = _pixel;
transform = "{1, 0, 0, 1, 600, 300}";
},
{
alignment = -1;
name = _pixel;
transform = "{1, 0, 0, 1, 600, 200}";
},
{
alignment = -1;
name = _pixel;
transform = "{1, 0, 0, 1, 600, 100}";
},
{
alignment = -1;
name = _pixel;
transform = "{1, 0, 0, 1, 600, 0}";
},
{
alignment = -1;
name = _pixel;
transform = "{1, 0, 0, 1, 300, 0}";
},
{
alignment = -1;
name = _pixel;
transform = "{1, 0, 0, 1, 400, 0}";
}
);
layerId = "29895EA3-C0A8-407E-9700-9C421B21F5CB";
name = "Color 3";
width = 800;
},
{
associatedMasterId = "EBA6CC13-AC95-47AE-A422-BCD5D8D196D3";
components = (
{
alignment = -1;
name = _pixel;
transform = "{1, 0, 0, 1, 100, 400}";
},
{
alignment = -1;
name = _pixel;
transform = "{1, 0, 0, 1, 200, 400}";
},
{
alignment = -1;
name = _pixel;
transform = "{1, 0, 0, 1, 200, 300}";
},
{
alignment = -1;
name = _pixel;
transform = "{1, 0, 0, 1, 200, 200}";
},
{
alignment = -1;
name = _pixel;
transform = "{1, 0, 0, 1, 200, 100}";
},
{
alignment = -1;
name = _pixel;
transform = "{1, 0, 0, 1, 200, 0}";
},
{
alignment = -1;
name = _pixel;
transform = "{1, 0, 0, 1, 100, 0}";
},
{
alignment = -1;
name = _pixel;
transform = "{1, 0, 0, 1, 100, 100}";
},
{
alignment = -1;
name = _pixel;
transform = "{1, 0, 0, 1, 100, 200}";
},
{
alignment = -1;
name = _pixel;
transform = "{1, 0, 0, 1, 100, 300}";
},
{
alignment = -1;
name = _pixel;
transform = "{1, 0, 0, 1, 500, 200}";
},
{
alignment = -1;
name = _pixel;
transform = "{1, 0, 0, 1, 700, 400}";
},
{
alignment = -1;
name = _pixel;
transform = "{1, 0, 0, 1, 700, 300}";
},
{
alignment = -1;
name = _pixel;
transform = "{1, 0, 0, 1, 700, 200}";
},
{
alignment = -1;
name = _pixel;
transform = "{1, 0, 0, 1, 700, 100}";
},
{
alignment = -1;
name = _pixel;
transform = "{1, 0, 0, 1, 700, 0}";
},
{
alignment = -1;
name = _pixel;
transform = "{1, 0, 0, 1, 600, 0}";
},
{
alignment = -1;
name = _pixel;
transform = "{1, 0, 0, 1, 500, 0}";
},
{
alignment = -1;
name = _pixel;
transform = "{1, 0, 0, 1, 500, 100}";
},
{
alignment = -1;
name = _pixel;
transform = "{1, 0, 0, 1, 500, 300}";
},
{
alignment = -1;
name = _pixel;
transform = "{1, 0, 0, 1, 500, 400}";
},
{
alignment = -1;
name = _pixel;
transform = "{1, 0, 0, 1, 600, 400}";
},
{
alignment = -1;
name = _pixel;
transform = "{1, 0, 0, 1, 600, 300}";
},
{
alignment = -1;
name = _pixel;
transform = "{1, 0, 0, 1, 600, 200}";
},
{
alignment = -1;
name = _pixel;
transform = "{1, 0, 0, 1, 600, 100}";
},
{
alignment = -1;
name = _pixel;
transform = "{1, 0, 0, 1, 300, 100}";
},
{
alignment = -1;
name = _pixel;
transform = "{1, 0, 0, 1, 400, 100}";
}
);
layerId = "6BDB1F0B-2B1B-407F-A896-AC70F68403C9";
name = "Color 2";
width = 800;
},
{
associatedMasterId = "EBA6CC13-AC95-47AE-A422-BCD5D8D196D3";
components = (
{
alignment = -1;
name = _pixel;
transform = "{1, 0, 0, 1, 100, 500}";
},
{
alignment = -1;
name = _pixel;
transform = "{1, 0, 0, 1, 200, 500}";
},
{
alignment = -1;
name = _pixel;
transform = "{1, 0, 0, 1, 200, 400}";
},
{
alignment = -1;
name = _pixel;
transform = "{1, 0, 0, 1, 200, 300}";
},
{
alignment = -1;
name = _pixel;
transform = "{1, 0, 0, 1, 200, 200}";
},
{
alignment = -1;
name = _pixel;
transform = "{1, 0, 0, 1, 200, 100}";
},
{
alignment = -1;
name = _pixel;
transform = "{1, 0, 0, 1, 100, 100}";
},
{
alignment = -1;
name = _pixel;
transform = "{1, 0, 0, 1, 100, 200}";
},
{
alignment = -1;
name = _pixel;
transform = "{1, 0, 0, 1, 100, 300}";
},
{
alignment = -1;
name = _pixel;
transform = "{1, 0, 0, 1, 100, 400}";
},
{
alignment = -1;
name = _pixel;
transform = "{1, 0, 0, 1, 500, 300}";
},
{
alignment = -1;
name = _pixel;
transform = "{1, 0, 0, 1, 700, 500}";
},
{
alignment = -1;
name = _pixel;
transform = "{1, 0, 0, 1, 700, 400}";
},
{
alignment = -1;
name = _pixel;
transform = "{1, 0, 0, 1, 700, 300}";
},
{
alignment = -1;
name = _pixel;
transform = "{1, 0, 0, 1, 700, 200}";
},
{
alignment = -1;
name = _pixel;
transform = "{1, 0, 0, 1, 700, 100}";
},
{
alignment = -1;
name = _pixel;
transform = "{1, 0, 0, 1, 600, 100}";
},
{
alignment = -1;
name = _pixel;
transform = "{1, 0, 0, 1, 500, 100}";
},
{
alignment = -1;
name = _pixel;
transform = "{1, 0, 0, 1, 500, 200}";
},
{
alignment = -1;
name = _pixel;
transform = "{1, 0, 0, 1, 500, 400}";
},
{
alignment = -1;
name = _pixel;
transform = "{1, 0, 0, 1, 500, 500}";
},
{
alignment = -1;
name = _pixel;
transform = "{1, 0, 0, 1, 600, 500}";
},
{
alignment = -1;
name = _pixel;
transform = "{1, 0, 0, 1, 600, 400}";
},
{
alignment = -1;
name = _pixel;
transform = "{1, 0, 0, 1, 600, 300}";
},
{
alignment = -1;
name = _pixel;
transform = "{1, 0, 0, 1, 600, 200}";
},
{
alignment = -1;
name = _pixel;
transform = "{1, 0, 0, 1, 300, 200}";
},
{
alignment = -1;
name = _pixel;
transform = "{1, 0, 0, 1, 400, 200}";
}
);
layerId = "DC2F6F49-0614-4506-825E-CA2227696917";
name = "Color 1";
width = 800;
},
{
associatedMasterId = "EBA6CC13-AC95-47AE-A422-BCD5D8D196D3";
components = (
{
alignment = -1;
name = _pixel;
transform = "{1, 0, 0, 1, 100, 600}";
},
{
alignment = -1;
name = _pixel;
transform = "{1, 0, 0, 1, 200, 600}";
},
{
alignment = -1;
name = _pixel;
transform = "{1, 0, 0, 1, 200, 500}";
},
{
alignment = -1;
name = _pixel;
transform = "{1, 0, 0, 1, 200, 400}";
},
{
alignment = -1;
name = _pixel;
transform = "{1, 0, 0, 1, 200, 300}";
},
{
alignment = -1;
name = _pixel;
transform = "{1, 0, 0, 1, 200, 200}";
},
{
alignment = -1;
name = _pixel;
transform = "{1, 0, 0, 1, 100, 200}";
},
{
alignment = -1;
name = _pixel;
transform = "{1, 0, 0, 1, 100, 300}";
},
{
alignment = -1;
name = _pixel;
transform = "{1, 0, 0, 1, 100, 400}";
},
{
alignment = -1;
name = _pixel;
transform = "{1, 0, 0, 1, 100, 500}";
},
{
alignment = -1;
name = _pixel;
transform = "{1, 0, 0, 1, 500, 400}";
},
{
alignment = -1;
name = _pixel;
transform = "{1, 0, 0, 1, 700, 600}";
},
{
alignment = -1;
name = _pixel;
transform = "{1, 0, 0, 1, 700, 500}";
},
{
alignment = -1;
name = _pixel;
transform = "{1, 0, 0, 1, 700, 400}";
},
{
alignment = -1;
name = _pixel;
transform = "{1, 0, 0, 1, 700, 300}";
},
{
alignment = -1;
name = _pixel;
transform = "{1, 0, 0, 1, 700, 200}";
},
{
alignment = -1;
name = _pixel;
transform = "{1, 0, 0, 1, 600, 200}";
},
{
alignment = -1;
name = _pixel;
transform = "{1, 0, 0, 1, 500, 200}";
},
{
alignment = -1;
name = _pixel;
transform = "{1, 0, 0, 1, 500, 300}";
},
{
alignment = -1;
name = _pixel;
transform = "{1, 0, 0, 1, 500, 500}";
},
{
alignment = -1;
name = _pixel;
transform = "{1, 0, 0, 1, 500, 600}";
},
{
alignment = -1;
name = _pixel;
transform = "{1, 0, 0, 1, 600, 600}";
},
{
alignment = -1;
name = _pixel;
transform = "{1, 0, 0, 1, 600, 500}";
},
{
alignment = -1;
name = _pixel;
transform = "{1, 0, 0, 1, 600, 400}";
},
{
alignment = -1;
name = _pixel;
transform = "{1, 0, 0, 1, 600, 300}";
},
{
alignment = -1;
name = _pixel;
transform = "{1, 0, 0, 1, 300, 300}";
},
{
alignment = -1;
name = _pixel;
transform = "{1, 0, 0, 1, 400, 300}";
}
);
layerId = "333BF133-DB41-4575-B232-D783EF459194";
name = "Color 0";
width = 800;
}
);
unicode = "0048,0068";
},
{
glyphname = I;
lastChange = "2020-02-16 00:19:35 +0000";
layers = (
{
layerId = "EBA6CC13-AC95-47AE-A422-BCD5D8D196D3";
paths = (
{
closed = 1;
nodes = (
"100 700 LINE",
"100 -100 LINE",
"800 -100 LINE",
"800 700 LINE"
);
}
);
width = 800;
},
{
associatedMasterId = "EBA6CC13-AC95-47AE-A422-BCD5D8D196D3";
components = (
{
alignment = -1;
name = _pixel;
transform = "{1, 0, 0, 1, 200, 300}";
},
{
alignment = -1;
name = _pixel;
transform = "{1, 0, 0, 1, 500, 100}";
},
{
alignment = -1;
name = _pixel;
transform = "{1, 0, 0, 1, 500, -100}";
},
{
alignment = -1;
name = _pixel;
transform = "{1, 0, 0, 1, 500, 0}";
},
{
alignment = -1;
name = _pixel;
transform = "{1, 0, 0, 1, 500, 200}";
},
{
alignment = -1;
name = _pixel;
transform = "{1, 0, 0, 1, 500, 300}";
},
{
alignment = -1;
name = _pixel;
transform = "{1, 0, 0, 1, 600, 300}";
},
{
alignment = -1;
name = _pixel;
transform = "{1, 0, 0, 1, 300, 0}";
},
{
alignment = -1;
name = _pixel;
transform = "{1, 0, 0, 1, 400, 0}";
},
{
alignment = -1;
name = _pixel;
transform = "{1, 0, 0, 1, 400, 300}";
},
{
alignment = -1;
name = _pixel;
transform = "{1, 0, 0, 1, 400, 200}";
},
{
alignment = -1;
name = _pixel;
transform = "{1, 0, 0, 1, 400, 100}";
},
{
alignment = -1;
name = _pixel;
transform = "{1, 0, 0, 1, 400, -100}";
},
{
alignment = -1;
name = _pixel;
transform = "{1, 0, 0, 1, 300, -100}";
},
{
alignment = -1;
name = _pixel;
transform = "{1, 0, 0, 1, 300, 100}";
},
{
alignment = -1;
name = _pixel;
transform = "{1, 0, 0, 1, 300, 200}";
},
{
alignment = -1;
name = _pixel;
transform = "{1, 0, 0, 1, 300, 300}";
},
{
alignment = -1;
name = _pixel;
transform = "{1, 0, 0, 1, 100, 300}";
},
{
alignment = -1;
name = _pixel;
transform = "{1, 0, 0, 1, 700, 300}";
},
{
alignment = -1;
name = _pixel;
transform = "{1, 0, 0, 1, 100, -100}";
},
{
alignment = -1;
name = _pixel;
transform = "{1, 0, 0, 1, 200, -100}";
},
{
alignment = -1;
name = _pixel;
transform = "{1, 0, 0, 1, 600, -100}";
},
{
alignment = -1;
name = _pixel;
transform = "{1, 0, 0, 1, 700, -100}";
}
);
layerId = "29895EA3-C0A8-407E-9700-9C421B21F5CB";
name = "Color 3";
width = 800;
},
{
associatedMasterId = "EBA6CC13-AC95-47AE-A422-BCD5D8D196D3";
components = (
{
alignment = -1;
name = _pixel;
transform = "{1, 0, 0, 1, 200, 400}";
},
{
alignment = -1;
name = _pixel;
transform = "{1, 0, 0, 1, 500, 200}";
},
{
alignment = -1;
name = _pixel;
transform = "{1, 0, 0, 1, 500, 0}";
},
{
alignment = -1;
name = _pixel;
transform = "{1, 0, 0, 1, 500, 100}";
},
{
alignment = -1;
name = _pixel;
transform = "{1, 0, 0, 1, 500, 300}";
},
{
alignment = -1;
name = _pixel;
transform = "{1, 0, 0, 1, 500, 400}";
},
{
alignment = -1;
name = _pixel;
transform = "{1, 0, 0, 1, 600, 400}";
},
{
alignment = -1;
name = _pixel;
transform = "{1, 0, 0, 1, 300, 100}";
},
{
alignment = -1;
name = _pixel;
transform = "{1, 0, 0, 1, 400, 100}";
},
{
alignment = -1;
name = _pixel;
transform = "{1, 0, 0, 1, 400, 400}";
},
{
alignment = -1;
name = _pixel;
transform = "{1, 0, 0, 1, 400, 300}";
},
{
alignment = -1;
name = _pixel;
transform = "{1, 0, 0, 1, 400, 200}";
},
{
alignment = -1;
name = _pixel;
transform = "{1, 0, 0, 1, 400, 0}";
},
{
alignment = -1;
name = _pixel;
transform = "{1, 0, 0, 1, 300, 0}";
},
{
alignment = -1;
name = _pixel;
transform = "{1, 0, 0, 1, 300, 200}";
},
{
alignment = -1;
name = _pixel;
transform = "{1, 0, 0, 1, 300, 300}";
},
{
alignment = -1;
name = _pixel;
transform = "{1, 0, 0, 1, 300, 400}";
},
{
alignment = -1;
name = _pixel;
transform = "{1, 0, 0, 1, 100, 400}";
},
{
alignment = -1;
name = _pixel;
transform = "{1, 0, 0, 1, 700, 400}";
},
{
alignment = -1;
name = _pixel;
transform = "{1, 0, 0, 1, 100, 0}";
},
{
alignment = -1;
name = _pixel;
transform = "{1, 0, 0, 1, 200, 0}";
},
{
alignment = -1;
name = _pixel;
transform = "{1, 0, 0, 1, 600, 0}";
},
{
alignment = -1;
name = _pixel;
transform = "{1, 0, 0, 1, 700, 0}";
}
);
layerId = "6BDB1F0B-2B1B-407F-A896-AC70F68403C9";
name = "Color 2";
width = 800;
},
{
associatedMasterId = "EBA6CC13-AC95-47AE-A422-BCD5D8D196D3";
components = (
{
alignment = -1;
name = _pixel;
transform = "{1, 0, 0, 1, 200, 500}";
},
{
alignment = -1;
name = _pixel;
transform = "{1, 0, 0, 1, 500, 300}";
},
{
alignment = -1;
name = _pixel;
transform = "{1, 0, 0, 1, 500, 100}";
},
{
alignment = -1;
name = _pixel;
transform = "{1, 0, 0, 1, 500, 200}";
},
{
alignment = -1;
name = _pixel;
transform = "{1, 0, 0, 1, 500, 400}";
},
{
alignment = -1;
name = _pixel;
transform = "{1, 0, 0, 1, 500, 500}";
},
{
alignment = -1;
name = _pixel;
transform = "{1, 0, 0, 1, 600, 500}";
},
{
alignment = -1;
name = _pixel;
transform = "{1, 0, 0, 1, 300, 200}";
},
{
alignment = -1;
name = _pixel;
transform = "{1, 0, 0, 1, 400, 200}";
},
{
alignment = -1;
name = _pixel;
transform = "{1, 0, 0, 1, 400, 500}";
},
{
alignment = -1;
name = _pixel;
transform = "{1, 0, 0, 1, 400, 400}";
},
{
alignment = -1;
name = _pixel;
transform = "{1, 0, 0, 1, 400, 300}";
},
{
alignment = -1;
name = _pixel;
transform = "{1, 0, 0, 1, 400, 100}";
},
{
alignment = -1;
name = _pixel;
transform = "{1, 0, 0, 1, 300, 100}";
},
{
alignment = -1;
name = _pixel;
transform = "{1, 0, 0, 1, 300, 300}";
},
{
alignment = -1;
name = _pixel;
transform = "{1, 0, 0, 1, 300, 400}";
},
{
alignment = -1;
name = _pixel;
transform = "{1, 0, 0, 1, 300, 500}";
},
{
alignment = -1;
name = _pixel;
transform = "{1, 0, 0, 1, 100, 500}";
},
{
alignment = -1;
name = _pixel;
transform = "{1, 0, 0, 1, 700, 500}";
},
{
alignment = -1;
name = _pixel;
transform = "{1, 0, 0, 1, 100, 100}";
},
{
alignment = -1;
name = _pixel;
transform = "{1, 0, 0, 1, 200, 100}";
},
{
alignment = -1;
name = _pixel;
transform = "{1, 0, 0, 1, 600, 100}";
},
{
alignment = -1;
name = _pixel;
transform = "{1, 0, 0, 1, 700, 100}";
}
);
layerId = "DC2F6F49-0614-4506-825E-CA2227696917";
name = "Color 1";
width = 800;
},
{
associatedMasterId = "EBA6CC13-AC95-47AE-A422-BCD5D8D196D3";
components = (
{
alignment = -1;
name = _pixel;
transform = "{1, 0, 0, 1, 200, 600}";
},
{
alignment = -1;
name = _pixel;
transform = "{1, 0, 0, 1, 500, 400}";
},
{
alignment = -1;
name = _pixel;
transform = "{1, 0, 0, 1, 500, 200}";
},
{
alignment = -1;
name = _pixel;
transform = "{1, 0, 0, 1, 500, 300}";
},
{
alignment = -1;
name = _pixel;
transform = "{1, 0, 0, 1, 500, 500}";
},
{
alignment = -1;
name = _pixel;
transform = "{1, 0, 0, 1, 500, 600}";
},
{
alignment = -1;
name = _pixel;
transform = "{1, 0, 0, 1, 600, 600}";
},
{
alignment = -1;
name = _pixel;
transform = "{1, 0, 0, 1, 300, 300}";
},
{
alignment = -1;
name = _pixel;
transform = "{1, 0, 0, 1, 400, 300}";
},
{
alignment = -1;
name = _pixel;
transform = "{1, 0, 0, 1, 400, 600}";
},
{
alignment = -1;
name = _pixel;
transform = "{1, 0, 0, 1, 400, 500}";
},
{
alignment = -1;
name = _pixel;
transform = "{1, 0, 0, 1, 400, 400}";
},
{
alignment = -1;
name = _pixel;
transform = "{1, 0, 0, 1, 400, 200}";
},
{
alignment = -1;
name = _pixel;
transform = "{1, 0, 0, 1, 300, 200}";
},
{
alignment = -1;
name = _pixel;
transform = "{1, 0, 0, 1, 300, 400}";
},
{
alignment = -1;
name = _pixel;
transform = "{1, 0, 0, 1, 300, 500}";
},
{
alignment = -1;
name = _pixel;
transform = "{1, 0, 0, 1, 300, 600}";
},
{
alignment = -1;
name = _pixel;
transform = "{1, 0, 0, 1, 100, 600}";
},
{
alignment = -1;
name = _pixel;
transform = "{1, 0, 0, 1, 700, 600}";
},
{
alignment = -1;
name = _pixel;
transform = "{1, 0, 0, 1, 100, 200}";
},
{
alignment = -1;
name = _pixel;
transform = "{1, 0, 0, 1, 200, 200}";
},
{
alignment = -1;
name = _pixel;
transform = "{1, 0, 0, 1, 600, 200}";
},
{
alignment = -1;
name = _pixel;
transform = "{1, 0, 0, 1, 700, 200}";
}
);
layerId = "333BF133-DB41-4575-B232-D783EF459194";
name = "Color 0";
width = 800;
}
);
unicode = "0049,0069";
},
{
glyphname = J;
lastChange = "2020-02-16 00:31:19 +0000";
layers = (
{
layerId = "EBA6CC13-AC95-47AE-A422-BCD5D8D196D3";
paths = (
{
closed = 1;
nodes = (
"500 700 LINE",
"500 300 LINE",
"300 300 LINE",
"300 700 LINE",
"100 700 LINE",
"100 0 LINE",
"200 0 LINE",
"200 -100 LINE",
"700 -100 LINE",
"700 0 LINE",
"800 0 LINE",
"800 700 LINE"
);
}
);
width = 800;
},
{
associatedMasterId = "EBA6CC13-AC95-47AE-A422-BCD5D8D196D3";
components = (
{
alignment = -1;
name = _pixel;
transform = "{1, 0, 0, 1, 200, 0}";
},
{
alignment = -1;
name = _pixel;
transform = "{1, 0, 0, 1, 200, -100}";
},
{
alignment = -1;
name = _pixel;
transform = "{1, 0, 0, 1, 100, 0}";
},
{
alignment = -1;
name = _pixel;
transform = "{1, 0, 0, 1, 500, 100}";
},
{
alignment = -1;
name = _pixel;
transform = "{1, 0, 0, 1, 700, 200}";
},
{
alignment = -1;
name = _pixel;
transform = "{1, 0, 0, 1, 600, -100}";
},
{
alignment = -1;
name = _pixel;
transform = "{1, 0, 0, 1, 500, -100}";
},
{
alignment = -1;
name = _pixel;
transform = "{1, 0, 0, 1, 500, 0}";
},
{
alignment = -1;
name = _pixel;
transform = "{1, 0, 0, 1, 500, 200}";
},
{
alignment = -1;
name = _pixel;
transform = "{1, 0, 0, 1, 500, 300}";
},
{
alignment = -1;
name = _pixel;
transform = "{1, 0, 0, 1, 600, 300}";
},
{
alignment = -1;
name = _pixel;
transform = "{1, 0, 0, 1, 600, 200}";
},
{
alignment = -1;
name = _pixel;
transform = "{1, 0, 0, 1, 600, 100}";
},
{
alignment = -1;
name = _pixel;
transform = "{1, 0, 0, 1, 700, 100}";
},
{
alignment = -1;
name = _pixel;
transform = "{1, 0, 0, 1, 600, 0}";
},
{
alignment = -1;
name = _pixel;
transform = "{1, 0, 0, 1, 300, -100}";
},
{
alignment = -1;
name = _pixel;
transform = "{1, 0, 0, 1, 400, -100}";
},
{
alignment = -1;
name = _pixel;
transform = "{1, 0, 0, 1, 700, 0}";
},
{
alignment = -1;
name = _pixel;
transform = "{1, 0, 0, 1, 700, 300}";
},
{
alignment = -1;
name = _pixel;
transform = "{1, 0, 0, 1, 200, 100}";
},
{
alignment = -1;
name = _pixel;
transform = "{1, 0, 0, 1, 100, 100}";
}
);
layerId = "29895EA3-C0A8-407E-9700-9C421B21F5CB";
name = "Color 3";
width = 800;
},
{
associatedMasterId = "EBA6CC13-AC95-47AE-A422-BCD5D8D196D3";
components = (
{
alignment = -1;
name = _pixel;
transform = "{1, 0, 0, 1, 200, 100}";
},
{
alignment = -1;
name = _pixel;
transform = "{1, 0, 0, 1, 200, 0}";
},
{
alignment = -1;
name = _pixel;
transform = "{1, 0, 0, 1, 100, 100}";
},
{
alignment = -1;
name = _pixel;
transform = "{1, 0, 0, 1, 500, 200}";
},
{
alignment = -1;
name = _pixel;
transform = "{1, 0, 0, 1, 700, 300}";
},
{
alignment = -1;
name = _pixel;
transform = "{1, 0, 0, 1, 600, 0}";
},
{
alignment = -1;
name = _pixel;
transform = "{1, 0, 0, 1, 500, 0}";
},
{
alignment = -1;
name = _pixel;
transform = "{1, 0, 0, 1, 500, 100}";
},
{
alignment = -1;
name = _pixel;
transform = "{1, 0, 0, 1, 500, 300}";
},
{
alignment = -1;
name = _pixel;
transform = "{1, 0, 0, 1, 500, 400}";
},
{
alignment = -1;
name = _pixel;
transform = "{1, 0, 0, 1, 600, 400}";
},
{
alignment = -1;
name = _pixel;
transform = "{1, 0, 0, 1, 600, 300}";
},
{
alignment = -1;
name = _pixel;
transform = "{1, 0, 0, 1, 600, 200}";
},
{
alignment = -1;
name = _pixel;
transform = "{1, 0, 0, 1, 700, 200}";
},
{
alignment = -1;
name = _pixel;
transform = "{1, 0, 0, 1, 600, 100}";
},
{
alignment = -1;
name = _pixel;
transform = "{1, 0, 0, 1, 300, 0}";
},
{
alignment = -1;
name = _pixel;
transform = "{1, 0, 0, 1, 400, 0}";
},
{
alignment = -1;
name = _pixel;
transform = "{1, 0, 0, 1, 700, 100}";
},
{
alignment = -1;
name = _pixel;
transform = "{1, 0, 0, 1, 700, 400}";
},
{
alignment = -1;
name = _pixel;
transform = "{1, 0, 0, 1, 200, 200}";
},
{
alignment = -1;
name = _pixel;
transform = "{1, 0, 0, 1, 100, 200}";
}
);
layerId = "6BDB1F0B-2B1B-407F-A896-AC70F68403C9";
name = "Color 2";
width = 800;
},
{
associatedMasterId = "EBA6CC13-AC95-47AE-A422-BCD5D8D196D3";
components = (
{
alignment = -1;
name = _pixel;
transform = "{1, 0, 0, 1, 200, 200}";
},
{
alignment = -1;
name = _pixel;
transform = "{1, 0, 0, 1, 200, 100}";
},
{
alignment = -1;
name = _pixel;
transform = "{1, 0, 0, 1, 100, 200}";
},
{
alignment = -1;
name = _pixel;
transform = "{1, 0, 0, 1, 500, 300}";
},
{
alignment = -1;
name = _pixel;
transform = "{1, 0, 0, 1, 700, 400}";
},
{
alignment = -1;
name = _pixel;
transform = "{1, 0, 0, 1, 600, 100}";
},
{
alignment = -1;
name = _pixel;
transform = "{1, 0, 0, 1, 500, 100}";
},
{
alignment = -1;
name = _pixel;
transform = "{1, 0, 0, 1, 500, 200}";
},
{
alignment = -1;
name = _pixel;
transform = "{1, 0, 0, 1, 500, 400}";
},
{
alignment = -1;
name = _pixel;
transform = "{1, 0, 0, 1, 500, 500}";
},
{
alignment = -1;
name = _pixel;
transform = "{1, 0, 0, 1, 600, 500}";
},
{
alignment = -1;
name = _pixel;
transform = "{1, 0, 0, 1, 600, 400}";
},
{
alignment = -1;
name = _pixel;
transform = "{1, 0, 0, 1, 600, 300}";
},
{
alignment = -1;
name = _pixel;
transform = "{1, 0, 0, 1, 700, 300}";
},
{
alignment = -1;
name = _pixel;
transform = "{1, 0, 0, 1, 600, 200}";
},
{
alignment = -1;
name = _pixel;
transform = "{1, 0, 0, 1, 300, 100}";
},
{
alignment = -1;
name = _pixel;
transform = "{1, 0, 0, 1, 400, 100}";
},
{
alignment = -1;
name = _pixel;
transform = "{1, 0, 0, 1, 700, 200}";
},
{
alignment = -1;
name = _pixel;
transform = "{1, 0, 0, 1, 700, 500}";
},
{
alignment = -1;
name = _pixel;
transform = "{1, 0, 0, 1, 200, 300}";
},
{
alignment = -1;
name = _pixel;
transform = "{1, 0, 0, 1, 100, 300}";
}
);
layerId = "DC2F6F49-0614-4506-825E-CA2227696917";
name = "Color 1";
width = 800;
},
{
associatedMasterId = "EBA6CC13-AC95-47AE-A422-BCD5D8D196D3";
components = (
{
alignment = -1;
name = _pixel;
transform = "{1, 0, 0, 1, 200, 300}";
},
{
alignment = -1;
name = _pixel;
transform = "{1, 0, 0, 1, 200, 200}";
},
{
alignment = -1;
name = _pixel;
transform = "{1, 0, 0, 1, 100, 300}";
},
{
alignment = -1;
name = _pixel;
transform = "{1, 0, 0, 1, 500, 400}";
},
{
alignment = -1;
name = _pixel;
transform = "{1, 0, 0, 1, 700, 500}";
},
{
alignment = -1;
name = _pixel;
transform = "{1, 0, 0, 1, 600, 200}";
},
{
alignment = -1;
name = _pixel;
transform = "{1, 0, 0, 1, 500, 200}";
},
{
alignment = -1;
name = _pixel;
transform = "{1, 0, 0, 1, 500, 300}";
},
{
alignment = -1;
name = _pixel;
transform = "{1, 0, 0, 1, 500, 500}";
},
{
alignment = -1;
name = _pixel;
transform = "{1, 0, 0, 1, 500, 600}";
},
{
alignment = -1;
name = _pixel;
transform = "{1, 0, 0, 1, 600, 600}";
},
{
alignment = -1;
name = _pixel;
transform = "{1, 0, 0, 1, 600, 500}";
},
{
alignment = -1;
name = _pixel;
transform = "{1, 0, 0, 1, 600, 400}";
},
{
alignment = -1;
name = _pixel;
transform = "{1, 0, 0, 1, 700, 400}";
},
{
alignment = -1;
name = _pixel;
transform = "{1, 0, 0, 1, 600, 300}";
},
{
alignment = -1;
name = _pixel;
transform = "{1, 0, 0, 1, 300, 200}";
},
{
alignment = -1;
name = _pixel;
transform = "{1, 0, 0, 1, 400, 200}";
},
{
alignment = -1;
name = _pixel;
transform = "{1, 0, 0, 1, 700, 300}";
},
{
alignment = -1;
name = _pixel;
transform = "{1, 0, 0, 1, 700, 600}";
},
{
alignment = -1;
name = _pixel;
transform = "{1, 0, 0, 1, 200, 400}";
},
{
alignment = -1;
name = _pixel;
transform = "{1, 0, 0, 1, 100, 400}";
}
);
layerId = "333BF133-DB41-4575-B232-D783EF459194";
name = "Color 0";
width = 800;
}
);
unicode = "004A,006A";
},
{
glyphname = K;
lastChange = "2020-02-16 00:19:35 +0000";
layers = (
{
layerId = "EBA6CC13-AC95-47AE-A422-BCD5D8D196D3";
paths = (
{
closed = 1;
nodes = (
"500 700 LINE",
"500 400 LINE",
"300 400 LINE",
"300 700 LINE",
"100 700 LINE",
"100 -100 LINE",
"300 -100 LINE",
"300 0 LINE",
"500 0 LINE",
"500 -100 LINE",
"800 -100 LINE",
"800 700 LINE"
);
}
);
width = 800;
},
{
associatedMasterId = "EBA6CC13-AC95-47AE-A422-BCD5D8D196D3";
components = (
{
alignment = -1;
name = _pixel;
transform = "{1, 0, 0, 1, 100, 300}";
},
{
alignment = -1;
name = _pixel;
transform = "{1, 0, 0, 1, 200, 300}";
},
{
alignment = -1;
name = _pixel;
transform = "{1, 0, 0, 1, 200, 200}";
},
{
alignment = -1;
name = _pixel;
transform = "{1, 0, 0, 1, 200, 100}";
},
{
alignment = -1;
name = _pixel;
transform = "{1, 0, 0, 1, 200, 0}";
},
{
alignment = -1;
name = _pixel;
transform = "{1, 0, 0, 1, 200, -100}";
},
{
alignment = -1;
name = _pixel;
transform = "{1, 0, 0, 1, 100, -100}";
},
{
alignment = -1;
name = _pixel;
transform = "{1, 0, 0, 1, 100, 0}";
},
{
alignment = -1;
name = _pixel;
transform = "{1, 0, 0, 1, 100, 100}";
},
{
alignment = -1;
name = _pixel;
transform = "{1, 0, 0, 1, 100, 200}";
},
{
alignment = -1;
name = _pixel;
transform = "{1, 0, 0, 1, 500, 100}";
},
{
alignment = -1;
name = _pixel;
transform = "{1, 0, 0, 1, 700, 200}";
},
{
alignment = -1;
name = _pixel;
transform = "{1, 0, 0, 1, 700, -100}";
},
{
alignment = -1;
name = _pixel;
transform = "{1, 0, 0, 1, 600, -100}";
},
{
alignment = -1;
name = _pixel;
transform = "{1, 0, 0, 1, 500, -100}";
},
{
alignment = -1;
name = _pixel;
transform = "{1, 0, 0, 1, 500, 0}";
},
{
alignment = -1;
name = _pixel;
transform = "{1, 0, 0, 1, 500, 200}";
},
{
alignment = -1;
name = _pixel;
transform = "{1, 0, 0, 1, 500, 300}";
},
{
alignment = -1;
name = _pixel;
transform = "{1, 0, 0, 1, 600, 300}";
},
{
alignment = -1;
name = _pixel;
transform = "{1, 0, 0, 1, 600, 200}";
},
{
alignment = -1;
name = _pixel;
transform = "{1, 0, 0, 1, 300, 0}";
},
{
alignment = -1;
name = _pixel;
transform = "{1, 0, 0, 1, 400, 0}";
},
{
alignment = -1;
name = _pixel;
transform = "{1, 0, 0, 1, 600, 100}";
},
{
alignment = -1;
name = _pixel;
transform = "{1, 0, 0, 1, 700, 300}";
}
);
layerId = "29895EA3-C0A8-407E-9700-9C421B21F5CB";
name = "Color 3";
width = 800;
},
{
associatedMasterId = "EBA6CC13-AC95-47AE-A422-BCD5D8D196D3";
components = (
{
alignment = -1;
name = _pixel;
transform = "{1, 0, 0, 1, 100, 400}";
},
{
alignment = -1;
name = _pixel;
transform = "{1, 0, 0, 1, 200, 400}";
},
{
alignment = -1;
name = _pixel;
transform = "{1, 0, 0, 1, 200, 300}";
},
{
alignment = -1;
name = _pixel;
transform = "{1, 0, 0, 1, 200, 200}";
},
{
alignment = -1;
name = _pixel;
transform = "{1, 0, 0, 1, 200, 100}";
},
{
alignment = -1;
name = _pixel;
transform = "{1, 0, 0, 1, 200, 0}";
},
{
alignment = -1;
name = _pixel;
transform = "{1, 0, 0, 1, 100, 0}";
},
{
alignment = -1;
name = _pixel;
transform = "{1, 0, 0, 1, 100, 100}";
},
{
alignment = -1;
name = _pixel;
transform = "{1, 0, 0, 1, 100, 200}";
},
{
alignment = -1;
name = _pixel;
transform = "{1, 0, 0, 1, 100, 300}";
},
{
alignment = -1;
name = _pixel;
transform = "{1, 0, 0, 1, 500, 200}";
},
{
alignment = -1;
name = _pixel;
transform = "{1, 0, 0, 1, 700, 300}";
},
{
alignment = -1;
name = _pixel;
transform = "{1, 0, 0, 1, 700, 0}";
},
{
alignment = -1;
name = _pixel;
transform = "{1, 0, 0, 1, 600, 0}";
},
{
alignment = -1;
name = _pixel;
transform = "{1, 0, 0, 1, 500, 0}";
},
{
alignment = -1;
name = _pixel;
transform = "{1, 0, 0, 1, 500, 100}";
},
{
alignment = -1;
name = _pixel;
transform = "{1, 0, 0, 1, 500, 300}";
},
{
alignment = -1;
name = _pixel;
transform = "{1, 0, 0, 1, 500, 400}";
},
{
alignment = -1;
name = _pixel;
transform = "{1, 0, 0, 1, 600, 400}";
},
{
alignment = -1;
name = _pixel;
transform = "{1, 0, 0, 1, 600, 300}";
},
{
alignment = -1;
name = _pixel;
transform = "{1, 0, 0, 1, 300, 100}";
},
{
alignment = -1;
name = _pixel;
transform = "{1, 0, 0, 1, 400, 100}";
},
{
alignment = -1;
name = _pixel;
transform = "{1, 0, 0, 1, 600, 200}";
},
{
alignment = -1;
name = _pixel;
transform = "{1, 0, 0, 1, 700, 400}";
}
);
layerId = "6BDB1F0B-2B1B-407F-A896-AC70F68403C9";
name = "Color 2";
width = 800;
},
{
associatedMasterId = "EBA6CC13-AC95-47AE-A422-BCD5D8D196D3";
components = (
{
alignment = -1;
name = _pixel;
transform = "{1, 0, 0, 1, 100, 500}";
},
{
alignment = -1;
name = _pixel;
transform = "{1, 0, 0, 1, 200, 500}";
},
{
alignment = -1;
name = _pixel;
transform = "{1, 0, 0, 1, 200, 400}";
},
{
alignment = -1;
name = _pixel;
transform = "{1, 0, 0, 1, 200, 300}";
},
{
alignment = -1;
name = _pixel;
transform = "{1, 0, 0, 1, 200, 200}";
},
{
alignment = -1;
name = _pixel;
transform = "{1, 0, 0, 1, 200, 100}";
},
{
alignment = -1;
name = _pixel;
transform = "{1, 0, 0, 1, 100, 100}";
},
{
alignment = -1;
name = _pixel;
transform = "{1, 0, 0, 1, 100, 200}";
},
{
alignment = -1;
name = _pixel;
transform = "{1, 0, 0, 1, 100, 300}";
},
{
alignment = -1;
name = _pixel;
transform = "{1, 0, 0, 1, 100, 400}";
},
{
alignment = -1;
name = _pixel;
transform = "{1, 0, 0, 1, 500, 300}";
},
{
alignment = -1;
name = _pixel;
transform = "{1, 0, 0, 1, 700, 400}";
},
{
alignment = -1;
name = _pixel;
transform = "{1, 0, 0, 1, 700, 100}";
},
{
alignment = -1;
name = _pixel;
transform = "{1, 0, 0, 1, 600, 100}";
},
{
alignment = -1;
name = _pixel;
transform = "{1, 0, 0, 1, 500, 100}";
},
{
alignment = -1;
name = _pixel;
transform = "{1, 0, 0, 1, 500, 200}";
},
{
alignment = -1;
name = _pixel;
transform = "{1, 0, 0, 1, 500, 400}";
},
{
alignment = -1;
name = _pixel;
transform = "{1, 0, 0, 1, 500, 500}";
},
{
alignment = -1;
name = _pixel;
transform = "{1, 0, 0, 1, 600, 500}";
},
{
alignment = -1;
name = _pixel;
transform = "{1, 0, 0, 1, 600, 400}";
},
{
alignment = -1;
name = _pixel;
transform = "{1, 0, 0, 1, 300, 200}";
},
{
alignment = -1;
name = _pixel;
transform = "{1, 0, 0, 1, 400, 200}";
},
{
alignment = -1;
name = _pixel;
transform = "{1, 0, 0, 1, 600, 300}";
},
{
alignment = -1;
name = _pixel;
transform = "{1, 0, 0, 1, 700, 500}";
}
);
layerId = "DC2F6F49-0614-4506-825E-CA2227696917";
name = "Color 1";
width = 800;
},
{
associatedMasterId = "EBA6CC13-AC95-47AE-A422-BCD5D8D196D3";
components = (
{
alignment = -1;
name = _pixel;
transform = "{1, 0, 0, 1, 100, 600}";
},
{
alignment = -1;
name = _pixel;
transform = "{1, 0, 0, 1, 200, 600}";
},
{
alignment = -1;
name = _pixel;
transform = "{1, 0, 0, 1, 200, 500}";
},
{
alignment = -1;
name = _pixel;
transform = "{1, 0, 0, 1, 200, 400}";
},
{
alignment = -1;
name = _pixel;
transform = "{1, 0, 0, 1, 200, 300}";
},
{
alignment = -1;
name = _pixel;
transform = "{1, 0, 0, 1, 200, 200}";
},
{
alignment = -1;
name = _pixel;
transform = "{1, 0, 0, 1, 100, 200}";
},
{
alignment = -1;
name = _pixel;
transform = "{1, 0, 0, 1, 100, 300}";
},
{
alignment = -1;
name = _pixel;
transform = "{1, 0, 0, 1, 100, 400}";
},
{
alignment = -1;
name = _pixel;
transform = "{1, 0, 0, 1, 100, 500}";
},
{
alignment = -1;
name = _pixel;
transform = "{1, 0, 0, 1, 500, 400}";
},
{
alignment = -1;
name = _pixel;
transform = "{1, 0, 0, 1, 700, 500}";
},
{
alignment = -1;
name = _pixel;
transform = "{1, 0, 0, 1, 700, 200}";
},
{
alignment = -1;
name = _pixel;
transform = "{1, 0, 0, 1, 600, 200}";
},
{
alignment = -1;
name = _pixel;
transform = "{1, 0, 0, 1, 500, 200}";
},
{
alignment = -1;
name = _pixel;
transform = "{1, 0, 0, 1, 500, 300}";
},
{
alignment = -1;
name = _pixel;
transform = "{1, 0, 0, 1, 500, 500}";
},
{
alignment = -1;
name = _pixel;
transform = "{1, 0, 0, 1, 500, 600}";
},
{
alignment = -1;
name = _pixel;
transform = "{1, 0, 0, 1, 600, 600}";
},
{
alignment = -1;
name = _pixel;
transform = "{1, 0, 0, 1, 600, 500}";
},
{
alignment = -1;
name = _pixel;
transform = "{1, 0, 0, 1, 300, 300}";
},
{
alignment = -1;
name = _pixel;
transform = "{1, 0, 0, 1, 400, 300}";
},
{
alignment = -1;
name = _pixel;
transform = "{1, 0, 0, 1, 600, 400}";
},
{
alignment = -1;
name = _pixel;
transform = "{1, 0, 0, 1, 700, 600}";
}
);
layerId = "333BF133-DB41-4575-B232-D783EF459194";
name = "Color 0";
width = 800;
}
);
unicode = "004B,006B";
},
{
glyphname = L;
lastChange = "2020-02-16 00:31:19 +0000";
layers = (
{
layerId = "EBA6CC13-AC95-47AE-A422-BCD5D8D196D3";
paths = (
{
closed = 1;
nodes = (
"500 500 LINE",
"500 300 LINE",
"300 300 LINE",
"300 700 LINE",
"100 700 LINE",
"100 -100 LINE",
"800 -100 LINE",
"800 500 LINE"
);
}
);
width = 800;
},
{
associatedMasterId = "EBA6CC13-AC95-47AE-A422-BCD5D8D196D3";
components = (
{
alignment = -1;
name = _pixel;
transform = "{1, 0, 0, 1, 100, 300}";
},
{
alignment = -1;
name = _pixel;
transform = "{1, 0, 0, 1, 200, 300}";
},
{
alignment = -1;
name = _pixel;
transform = "{1, 0, 0, 1, 200, 200}";
},
{
alignment = -1;
name = _pixel;
transform = "{1, 0, 0, 1, 200, 100}";
},
{
alignment = -1;
name = _pixel;
transform = "{1, 0, 0, 1, 200, 0}";
},
{
alignment = -1;
name = _pixel;
transform = "{1, 0, 0, 1, 200, -100}";
},
{
alignment = -1;
name = _pixel;
transform = "{1, 0, 0, 1, 100, -100}";
},
{
alignment = -1;
name = _pixel;
transform = "{1, 0, 0, 1, 100, 0}";
},
{
alignment = -1;
name = _pixel;
transform = "{1, 0, 0, 1, 100, 100}";
},
{
alignment = -1;
name = _pixel;
transform = "{1, 0, 0, 1, 100, 200}";
},
{
alignment = -1;
name = _pixel;
transform = "{1, 0, 0, 1, 700, -100}";
},
{
alignment = -1;
name = _pixel;
transform = "{1, 0, 0, 1, 600, -100}";
},
{
alignment = -1;
name = _pixel;
transform = "{1, 0, 0, 1, 500, -100}";
},
{
alignment = -1;
name = _pixel;
transform = "{1, 0, 0, 1, 300, -100}";
},
{
alignment = -1;
name = _pixel;
transform = "{1, 0, 0, 1, 400, -100}";
},
{
alignment = -1;
name = _pixel;
transform = "{1, 0, 0, 1, 700, 0}";
},
{
alignment = -1;
name = _pixel;
transform = "{1, 0, 0, 1, 500, 0}";
},
{
alignment = -1;
name = _pixel;
transform = "{1, 0, 0, 1, 600, 0}";
},
{
alignment = -1;
name = _pixel;
transform = "{1, 0, 0, 1, 500, 100}";
},
{
alignment = -1;
name = _pixel;
transform = "{1, 0, 0, 1, 600, 100}";
},
{
alignment = -1;
name = _pixel;
transform = "{1, 0, 0, 1, 700, 100}";
}
);
layerId = "29895EA3-C0A8-407E-9700-9C421B21F5CB";
name = "Color 3";
width = 800;
},
{
associatedMasterId = "EBA6CC13-AC95-47AE-A422-BCD5D8D196D3";
components = (
{
alignment = -1;
name = _pixel;
transform = "{1, 0, 0, 1, 100, 400}";
},
{
alignment = -1;
name = _pixel;
transform = "{1, 0, 0, 1, 200, 400}";
},
{
alignment = -1;
name = _pixel;
transform = "{1, 0, 0, 1, 200, 300}";
},
{
alignment = -1;
name = _pixel;
transform = "{1, 0, 0, 1, 200, 200}";
},
{
alignment = -1;
name = _pixel;
transform = "{1, 0, 0, 1, 200, 100}";
},
{
alignment = -1;
name = _pixel;
transform = "{1, 0, 0, 1, 200, 0}";
},
{
alignment = -1;
name = _pixel;
transform = "{1, 0, 0, 1, 100, 0}";
},
{
alignment = -1;
name = _pixel;
transform = "{1, 0, 0, 1, 100, 100}";
},
{
alignment = -1;
name = _pixel;
transform = "{1, 0, 0, 1, 100, 200}";
},
{
alignment = -1;
name = _pixel;
transform = "{1, 0, 0, 1, 100, 300}";
},
{
alignment = -1;
name = _pixel;
transform = "{1, 0, 0, 1, 700, 0}";
},
{
alignment = -1;
name = _pixel;
transform = "{1, 0, 0, 1, 600, 0}";
},
{
alignment = -1;
name = _pixel;
transform = "{1, 0, 0, 1, 500, 0}";
},
{
alignment = -1;
name = _pixel;
transform = "{1, 0, 0, 1, 300, 0}";
},
{
alignment = -1;
name = _pixel;
transform = "{1, 0, 0, 1, 400, 0}";
},
{
alignment = -1;
name = _pixel;
transform = "{1, 0, 0, 1, 700, 100}";
},
{
alignment = -1;
name = _pixel;
transform = "{1, 0, 0, 1, 500, 100}";
},
{
alignment = -1;
name = _pixel;
transform = "{1, 0, 0, 1, 600, 100}";
},
{
alignment = -1;
name = _pixel;
transform = "{1, 0, 0, 1, 500, 200}";
},
{
alignment = -1;
name = _pixel;
transform = "{1, 0, 0, 1, 600, 200}";
},
{
alignment = -1;
name = _pixel;
transform = "{1, 0, 0, 1, 700, 200}";
}
);
layerId = "6BDB1F0B-2B1B-407F-A896-AC70F68403C9";
name = "Color 2";
width = 800;
},
{
associatedMasterId = "EBA6CC13-AC95-47AE-A422-BCD5D8D196D3";
components = (
{
alignment = -1;
name = _pixel;
transform = "{1, 0, 0, 1, 100, 500}";
},
{
alignment = -1;
name = _pixel;
transform = "{1, 0, 0, 1, 200, 500}";
},
{
alignment = -1;
name = _pixel;
transform = "{1, 0, 0, 1, 200, 400}";
},
{
alignment = -1;
name = _pixel;
transform = "{1, 0, 0, 1, 200, 300}";
},
{
alignment = -1;
name = _pixel;
transform = "{1, 0, 0, 1, 200, 200}";
},
{
alignment = -1;
name = _pixel;
transform = "{1, 0, 0, 1, 200, 100}";
},
{
alignment = -1;
name = _pixel;
transform = "{1, 0, 0, 1, 100, 100}";
},
{
alignment = -1;
name = _pixel;
transform = "{1, 0, 0, 1, 100, 200}";
},
{
alignment = -1;
name = _pixel;
transform = "{1, 0, 0, 1, 100, 300}";
},
{
alignment = -1;
name = _pixel;
transform = "{1, 0, 0, 1, 100, 400}";
},
{
alignment = -1;
name = _pixel;
transform = "{1, 0, 0, 1, 700, 100}";
},
{
alignment = -1;
name = _pixel;
transform = "{1, 0, 0, 1, 600, 100}";
},
{
alignment = -1;
name = _pixel;
transform = "{1, 0, 0, 1, 500, 100}";
},
{
alignment = -1;
name = _pixel;
transform = "{1, 0, 0, 1, 300, 100}";
},
{
alignment = -1;
name = _pixel;
transform = "{1, 0, 0, 1, 400, 100}";
},
{
alignment = -1;
name = _pixel;
transform = "{1, 0, 0, 1, 700, 200}";
},
{
alignment = -1;
name = _pixel;
transform = "{1, 0, 0, 1, 500, 200}";
},
{
alignment = -1;
name = _pixel;
transform = "{1, 0, 0, 1, 600, 200}";
},
{
alignment = -1;
name = _pixel;
transform = "{1, 0, 0, 1, 500, 300}";
},
{
alignment = -1;
name = _pixel;
transform = "{1, 0, 0, 1, 600, 300}";
},
{
alignment = -1;
name = _pixel;
transform = "{1, 0, 0, 1, 700, 300}";
}
);
layerId = "DC2F6F49-0614-4506-825E-CA2227696917";
name = "Color 1";
width = 800;
},
{
associatedMasterId = "EBA6CC13-AC95-47AE-A422-BCD5D8D196D3";
components = (
{
alignment = -1;
name = _pixel;
transform = "{1, 0, 0, 1, 100, 600}";
},
{
alignment = -1;
name = _pixel;
transform = "{1, 0, 0, 1, 200, 600}";
},
{
alignment = -1;
name = _pixel;
transform = "{1, 0, 0, 1, 200, 500}";
},
{
alignment = -1;
name = _pixel;
transform = "{1, 0, 0, 1, 200, 400}";
},
{
alignment = -1;
name = _pixel;
transform = "{1, 0, 0, 1, 200, 300}";
},
{
alignment = -1;
name = _pixel;
transform = "{1, 0, 0, 1, 200, 200}";
},
{
alignment = -1;
name = _pixel;
transform = "{1, 0, 0, 1, 100, 200}";
},
{
alignment = -1;
name = _pixel;
transform = "{1, 0, 0, 1, 100, 300}";
},
{
alignment = -1;
name = _pixel;
transform = "{1, 0, 0, 1, 100, 400}";
},
{
alignment = -1;
name = _pixel;
transform = "{1, 0, 0, 1, 100, 500}";
},
{
alignment = -1;
name = _pixel;
transform = "{1, 0, 0, 1, 700, 200}";
},
{
alignment = -1;
name = _pixel;
transform = "{1, 0, 0, 1, 600, 200}";
},
{
alignment = -1;
name = _pixel;
transform = "{1, 0, 0, 1, 500, 200}";
},
{
alignment = -1;
name = _pixel;
transform = "{1, 0, 0, 1, 300, 200}";
},
{
alignment = -1;
name = _pixel;
transform = "{1, 0, 0, 1, 400, 200}";
},
{
alignment = -1;
name = _pixel;
transform = "{1, 0, 0, 1, 700, 300}";
},
{
alignment = -1;
name = _pixel;
transform = "{1, 0, 0, 1, 500, 300}";
},
{
alignment = -1;
name = _pixel;
transform = "{1, 0, 0, 1, 600, 300}";
},
{
alignment = -1;
name = _pixel;
transform = "{1, 0, 0, 1, 500, 400}";
},
{
alignment = -1;
name = _pixel;
transform = "{1, 0, 0, 1, 600, 400}";
},
{
alignment = -1;
name = _pixel;
transform = "{1, 0, 0, 1, 700, 400}";
}
);
layerId = "333BF133-DB41-4575-B232-D783EF459194";
name = "Color 0";
width = 800;
}
);
unicode = "004C,006C";
},
{
glyphname = M;
lastChange = "2020-02-16 00:19:35 +0000";
layers = (
{
layerId = "EBA6CC13-AC95-47AE-A422-BCD5D8D196D3";
paths = (
{
closed = 1;
nodes = (
"500 700 LINE",
"500 600 LINE",
"400 600 LINE",
"400 500 LINE",
"300 500 LINE",
"300 600 LINE",
"200 600 LINE",
"200 700 LINE",
"100 700 LINE",
"100 -100 LINE",
"200 -100 LINE",
"200 200 LINE",
"300 200 LINE",
"300 0 LINE",
"400 0 LINE",
"400 200 LINE",
"500 200 LINE",
"500 -100 LINE",
"800 -100 LINE",
"800 700 LINE"
);
}
);
width = 800;
},
{
associatedMasterId = "EBA6CC13-AC95-47AE-A422-BCD5D8D196D3";
components = (
{
alignment = -1;
name = _pixel;
transform = "{1, 0, 0, 1, 100, 200}";
},
{
alignment = -1;
name = _pixel;
transform = "{1, 0, 0, 1, 100, 100}";
},
{
alignment = -1;
name = _pixel;
transform = "{1, 0, 0, 1, 100, 0}";
},
{
alignment = -1;
name = _pixel;
transform = "{1, 0, 0, 1, 100, -100}";
},
{
alignment = -1;
name = _pixel;
transform = "{1, 0, 0, 1, 600, 300}";
},
{
alignment = -1;
name = _pixel;
transform = "{1, 0, 0, 1, 600, 200}";
},
{
alignment = -1;
name = _pixel;
transform = "{1, 0, 0, 1, 600, 100}";
},
{
alignment = -1;
name = _pixel;
transform = "{1, 0, 0, 1, 600, 0}";
},
{
alignment = -1;
name = _pixel;
transform = "{1, 0, 0, 1, 600, -100}";
},
{
alignment = -1;
name = _pixel;
transform = "{1, 0, 0, 1, 500, -100}";
},
{
alignment = -1;
name = _pixel;
transform = "{1, 0, 0, 1, 500, 300}";
},
{
alignment = -1;
name = _pixel;
transform = "{1, 0, 0, 1, 500, 200}";
},
{
alignment = -1;
name = _pixel;
transform = "{1, 0, 0, 1, 500, 100}";
},
{
alignment = -1;
name = _pixel;
transform = "{1, 0, 0, 1, 500, 0}";
},
{
alignment = -1;
name = _pixel;
transform = "{1, 0, 0, 1, 200, 200}";
},
{
alignment = -1;
name = _pixel;
transform = "{1, 0, 0, 1, 400, 200}";
},
{
alignment = -1;
name = _pixel;
transform = "{1, 0, 0, 1, 100, 300}";
},
{
alignment = -1;
name = _pixel;
transform = "{1, 0, 0, 1, 300, 100}";
},
{
alignment = -1;
name = _pixel;
transform = "{1, 0, 0, 1, 300, 0}";
},
{
alignment = -1;
name = _pixel;
transform = "{1, 0, 0, 1, 700, 300}";
},
{
alignment = -1;
name = _pixel;
transform = "{1, 0, 0, 1, 700, 200}";
},
{
alignment = -1;
name = _pixel;
transform = "{1, 0, 0, 1, 700, 100}";
},
{
alignment = -1;
name = _pixel;
transform = "{1, 0, 0, 1, 700, 0}";
},
{
alignment = -1;
name = _pixel;
transform = "{1, 0, 0, 1, 700, -100}";
}
);
layerId = "29895EA3-C0A8-407E-9700-9C421B21F5CB";
name = "Color 3";
width = 800;
},
{
associatedMasterId = "EBA6CC13-AC95-47AE-A422-BCD5D8D196D3";
components = (
{
alignment = -1;
name = _pixel;
transform = "{1, 0, 0, 1, 100, 300}";
},
{
alignment = -1;
name = _pixel;
transform = "{1, 0, 0, 1, 100, 200}";
},
{
alignment = -1;
name = _pixel;
transform = "{1, 0, 0, 1, 100, 100}";
},
{
alignment = -1;
name = _pixel;
transform = "{1, 0, 0, 1, 100, 0}";
},
{
alignment = -1;
name = _pixel;
transform = "{1, 0, 0, 1, 600, 400}";
},
{
alignment = -1;
name = _pixel;
transform = "{1, 0, 0, 1, 600, 300}";
},
{
alignment = -1;
name = _pixel;
transform = "{1, 0, 0, 1, 600, 200}";
},
{
alignment = -1;
name = _pixel;
transform = "{1, 0, 0, 1, 600, 100}";
},
{
alignment = -1;
name = _pixel;
transform = "{1, 0, 0, 1, 600, 0}";
},
{
alignment = -1;
name = _pixel;
transform = "{1, 0, 0, 1, 500, 0}";
},
{
alignment = -1;
name = _pixel;
transform = "{1, 0, 0, 1, 500, 400}";
},
{
alignment = -1;
name = _pixel;
transform = "{1, 0, 0, 1, 500, 300}";
},
{
alignment = -1;
name = _pixel;
transform = "{1, 0, 0, 1, 500, 200}";
},
{
alignment = -1;
name = _pixel;
transform = "{1, 0, 0, 1, 500, 100}";
},
{
alignment = -1;
name = _pixel;
transform = "{1, 0, 0, 1, 200, 300}";
},
{
alignment = -1;
name = _pixel;
transform = "{1, 0, 0, 1, 400, 300}";
},
{
alignment = -1;
name = _pixel;
transform = "{1, 0, 0, 1, 100, 400}";
},
{
alignment = -1;
name = _pixel;
transform = "{1, 0, 0, 1, 300, 200}";
},
{
alignment = -1;
name = _pixel;
transform = "{1, 0, 0, 1, 300, 100}";
},
{
alignment = -1;
name = _pixel;
transform = "{1, 0, 0, 1, 700, 400}";
},
{
alignment = -1;
name = _pixel;
transform = "{1, 0, 0, 1, 700, 300}";
},
{
alignment = -1;
name = _pixel;
transform = "{1, 0, 0, 1, 700, 200}";
},
{
alignment = -1;
name = _pixel;
transform = "{1, 0, 0, 1, 700, 100}";
},
{
alignment = -1;
name = _pixel;
transform = "{1, 0, 0, 1, 700, 0}";
}
);
layerId = "6BDB1F0B-2B1B-407F-A896-AC70F68403C9";
name = "Color 2";
width = 800;
},
{
associatedMasterId = "EBA6CC13-AC95-47AE-A422-BCD5D8D196D3";
components = (
{
alignment = -1;
name = _pixel;
transform = "{1, 0, 0, 1, 100, 400}";
},
{
alignment = -1;
name = _pixel;
transform = "{1, 0, 0, 1, 100, 300}";
},
{
alignment = -1;
name = _pixel;
transform = "{1, 0, 0, 1, 100, 200}";
},
{
alignment = -1;
name = _pixel;
transform = "{1, 0, 0, 1, 100, 100}";
},
{
alignment = -1;
name = _pixel;
transform = "{1, 0, 0, 1, 600, 500}";
},
{
alignment = -1;
name = _pixel;
transform = "{1, 0, 0, 1, 600, 400}";
},
{
alignment = -1;
name = _pixel;
transform = "{1, 0, 0, 1, 600, 300}";
},
{
alignment = -1;
name = _pixel;
transform = "{1, 0, 0, 1, 600, 200}";
},
{
alignment = -1;
name = _pixel;
transform = "{1, 0, 0, 1, 600, 100}";
},
{
alignment = -1;
name = _pixel;
transform = "{1, 0, 0, 1, 500, 100}";
},
{
alignment = -1;
name = _pixel;
transform = "{1, 0, 0, 1, 500, 500}";
},
{
alignment = -1;
name = _pixel;
transform = "{1, 0, 0, 1, 500, 400}";
},
{
alignment = -1;
name = _pixel;
transform = "{1, 0, 0, 1, 500, 300}";
},
{
alignment = -1;
name = _pixel;
transform = "{1, 0, 0, 1, 500, 200}";
},
{
alignment = -1;
name = _pixel;
transform = "{1, 0, 0, 1, 200, 400}";
},
{
alignment = -1;
name = _pixel;
transform = "{1, 0, 0, 1, 400, 400}";
},
{
alignment = -1;
name = _pixel;
transform = "{1, 0, 0, 1, 100, 500}";
},
{
alignment = -1;
name = _pixel;
transform = "{1, 0, 0, 1, 300, 300}";
},
{
alignment = -1;
name = _pixel;
transform = "{1, 0, 0, 1, 300, 200}";
},
{
alignment = -1;
name = _pixel;
transform = "{1, 0, 0, 1, 700, 500}";
},
{
alignment = -1;
name = _pixel;
transform = "{1, 0, 0, 1, 700, 400}";
},
{
alignment = -1;
name = _pixel;
transform = "{1, 0, 0, 1, 700, 300}";
},
{
alignment = -1;
name = _pixel;
transform = "{1, 0, 0, 1, 700, 200}";
},
{
alignment = -1;
name = _pixel;
transform = "{1, 0, 0, 1, 700, 100}";
}
);
layerId = "DC2F6F49-0614-4506-825E-CA2227696917";
name = "Color 1";
width = 800;
},
{
associatedMasterId = "EBA6CC13-AC95-47AE-A422-BCD5D8D196D3";
components = (
{
alignment = -1;
name = _pixel;
transform = "{1, 0, 0, 1, 100, 500}";
},
{
alignment = -1;
name = _pixel;
transform = "{1, 0, 0, 1, 100, 400}";
},
{
alignment = -1;
name = _pixel;
transform = "{1, 0, 0, 1, 100, 300}";
},
{
alignment = -1;
name = _pixel;
transform = "{1, 0, 0, 1, 100, 200}";
},
{
alignment = -1;
name = _pixel;
transform = "{1, 0, 0, 1, 600, 600}";
},
{
alignment = -1;
name = _pixel;
transform = "{1, 0, 0, 1, 600, 500}";
},
{
alignment = -1;
name = _pixel;
transform = "{1, 0, 0, 1, 600, 400}";
},
{
alignment = -1;
name = _pixel;
transform = "{1, 0, 0, 1, 600, 300}";
},
{
alignment = -1;
name = _pixel;
transform = "{1, 0, 0, 1, 600, 200}";
},
{
alignment = -1;
name = _pixel;
transform = "{1, 0, 0, 1, 500, 200}";
},
{
alignment = -1;
name = _pixel;
transform = "{1, 0, 0, 1, 500, 600}";
},
{
alignment = -1;
name = _pixel;
transform = "{1, 0, 0, 1, 500, 500}";
},
{
alignment = -1;
name = _pixel;
transform = "{1, 0, 0, 1, 500, 400}";
},
{
alignment = -1;
name = _pixel;
transform = "{1, 0, 0, 1, 500, 300}";
},
{
alignment = -1;
name = _pixel;
transform = "{1, 0, 0, 1, 200, 500}";
},
{
alignment = -1;
name = _pixel;
transform = "{1, 0, 0, 1, 400, 500}";
},
{
alignment = -1;
name = _pixel;
transform = "{1, 0, 0, 1, 100, 600}";
},
{
alignment = -1;
name = _pixel;
transform = "{1, 0, 0, 1, 300, 400}";
},
{
alignment = -1;
name = _pixel;
transform = "{1, 0, 0, 1, 300, 300}";
},
{
alignment = -1;
name = _pixel;
transform = "{1, 0, 0, 1, 700, 600}";
},
{
alignment = -1;
name = _pixel;
transform = "{1, 0, 0, 1, 700, 500}";
},
{
alignment = -1;
name = _pixel;
transform = "{1, 0, 0, 1, 700, 400}";
},
{
alignment = -1;
name = _pixel;
transform = "{1, 0, 0, 1, 700, 300}";
},
{
alignment = -1;
name = _pixel;
transform = "{1, 0, 0, 1, 700, 200}";
}
);
layerId = "333BF133-DB41-4575-B232-D783EF459194";
name = "Color 0";
width = 800;
}
);
unicode = "004D,006D";
},
{
glyphname = N;
lastChange = "2020-02-16 00:19:36 +0000";
layers = (
{
layerId = "EBA6CC13-AC95-47AE-A422-BCD5D8D196D3";
paths = (
{
closed = 1;
nodes = (
"500 700 LINE",
"500 500 LINE",
"400 500 LINE",
"400 600 LINE",
"300 600 LINE",
"300 700 LINE",
"100 700 LINE",
"100 -100 LINE",
"300 -100 LINE",
"300 200 LINE",
"400 200 LINE",
"400 100 LINE",
"500 100 LINE",
"500 -100 LINE",
"800 -100 LINE",
"800 700 LINE"
);
}
);
width = 800;
},
{
associatedMasterId = "EBA6CC13-AC95-47AE-A422-BCD5D8D196D3";
components = (
{
alignment = -1;
name = _pixel;
transform = "{1, 0, 0, 1, 100, 300}";
},
{
alignment = -1;
name = _pixel;
transform = "{1, 0, 0, 1, 200, 200}";
},
{
alignment = -1;
name = _pixel;
transform = "{1, 0, 0, 1, 200, 100}";
},
{
alignment = -1;
name = _pixel;
transform = "{1, 0, 0, 1, 200, 0}";
},
{
alignment = -1;
name = _pixel;
transform = "{1, 0, 0, 1, 200, -100}";
},
{
alignment = -1;
name = _pixel;
transform = "{1, 0, 0, 1, 100, -100}";
},
{
alignment = -1;
name = _pixel;
transform = "{1, 0, 0, 1, 100, 0}";
},
{
alignment = -1;
name = _pixel;
transform = "{1, 0, 0, 1, 100, 100}";
},
{
alignment = -1;
name = _pixel;
transform = "{1, 0, 0, 1, 100, 200}";
},
{
alignment = -1;
name = _pixel;
transform = "{1, 0, 0, 1, 700, 300}";
},
{
alignment = -1;
name = _pixel;
transform = "{1, 0, 0, 1, 700, 200}";
},
{
alignment = -1;
name = _pixel;
transform = "{1, 0, 0, 1, 700, 100}";
},
{
alignment = -1;
name = _pixel;
transform = "{1, 0, 0, 1, 700, 0}";
},
{
alignment = -1;
name = _pixel;
transform = "{1, 0, 0, 1, 700, -100}";
},
{
alignment = -1;
name = _pixel;
transform = "{1, 0, 0, 1, 600, -100}";
},
{
alignment = -1;
name = _pixel;
transform = "{1, 0, 0, 1, 500, -100}";
},
{
alignment = -1;
name = _pixel;
transform = "{1, 0, 0, 1, 500, 0}";
},
{
alignment = -1;
name = _pixel;
transform = "{1, 0, 0, 1, 600, 300}";
},
{
alignment = -1;
name = _pixel;
transform = "{1, 0, 0, 1, 600, 200}";
},
{
alignment = -1;
name = _pixel;
transform = "{1, 0, 0, 1, 600, 100}";
},
{
alignment = -1;
name = _pixel;
transform = "{1, 0, 0, 1, 600, 0}";
},
{
alignment = -1;
name = _pixel;
transform = "{1, 0, 0, 1, 300, 200}";
},
{
alignment = -1;
name = _pixel;
transform = "{1, 0, 0, 1, 500, 300}";
},
{
alignment = -1;
name = _pixel;
transform = "{1, 0, 0, 1, 500, 200}";
},
{
alignment = -1;
name = _pixel;
transform = "{1, 0, 0, 1, 500, 100}";
},
{
alignment = -1;
name = _pixel;
transform = "{1, 0, 0, 1, 200, 300}";
},
{
alignment = -1;
name = _pixel;
transform = "{1, 0, 0, 1, 400, 100}";
}
);
layerId = "29895EA3-C0A8-407E-9700-9C421B21F5CB";
name = "Color 3";
width = 800;
},
{
associatedMasterId = "EBA6CC13-AC95-47AE-A422-BCD5D8D196D3";
components = (
{
alignment = -1;
name = _pixel;
transform = "{1, 0, 0, 1, 100, 400}";
},
{
alignment = -1;
name = _pixel;
transform = "{1, 0, 0, 1, 200, 300}";
},
{
alignment = -1;
name = _pixel;
transform = "{1, 0, 0, 1, 200, 200}";
},
{
alignment = -1;
name = _pixel;
transform = "{1, 0, 0, 1, 200, 100}";
},
{
alignment = -1;
name = _pixel;
transform = "{1, 0, 0, 1, 200, 0}";
},
{
alignment = -1;
name = _pixel;
transform = "{1, 0, 0, 1, 100, 0}";
},
{
alignment = -1;
name = _pixel;
transform = "{1, 0, 0, 1, 100, 100}";
},
{
alignment = -1;
name = _pixel;
transform = "{1, 0, 0, 1, 100, 200}";
},
{
alignment = -1;
name = _pixel;
transform = "{1, 0, 0, 1, 100, 300}";
},
{
alignment = -1;
name = _pixel;
transform = "{1, 0, 0, 1, 700, 400}";
},
{
alignment = -1;
name = _pixel;
transform = "{1, 0, 0, 1, 700, 300}";
},
{
alignment = -1;
name = _pixel;
transform = "{1, 0, 0, 1, 700, 200}";
},
{
alignment = -1;
name = _pixel;
transform = "{1, 0, 0, 1, 700, 100}";
},
{
alignment = -1;
name = _pixel;
transform = "{1, 0, 0, 1, 700, 0}";
},
{
alignment = -1;
name = _pixel;
transform = "{1, 0, 0, 1, 600, 0}";
},
{
alignment = -1;
name = _pixel;
transform = "{1, 0, 0, 1, 500, 0}";
},
{
alignment = -1;
name = _pixel;
transform = "{1, 0, 0, 1, 500, 100}";
},
{
alignment = -1;
name = _pixel;
transform = "{1, 0, 0, 1, 600, 400}";
},
{
alignment = -1;
name = _pixel;
transform = "{1, 0, 0, 1, 600, 300}";
},
{
alignment = -1;
name = _pixel;
transform = "{1, 0, 0, 1, 600, 200}";
},
{
alignment = -1;
name = _pixel;
transform = "{1, 0, 0, 1, 600, 100}";
},
{
alignment = -1;
name = _pixel;
transform = "{1, 0, 0, 1, 300, 300}";
},
{
alignment = -1;
name = _pixel;
transform = "{1, 0, 0, 1, 500, 400}";
},
{
alignment = -1;
name = _pixel;
transform = "{1, 0, 0, 1, 500, 300}";
},
{
alignment = -1;
name = _pixel;
transform = "{1, 0, 0, 1, 500, 200}";
},
{
alignment = -1;
name = _pixel;
transform = "{1, 0, 0, 1, 200, 400}";
},
{
alignment = -1;
name = _pixel;
transform = "{1, 0, 0, 1, 400, 200}";
}
);
layerId = "6BDB1F0B-2B1B-407F-A896-AC70F68403C9";
name = "Color 2";
width = 800;
},
{
associatedMasterId = "EBA6CC13-AC95-47AE-A422-BCD5D8D196D3";
components = (
{
alignment = -1;
name = _pixel;
transform = "{1, 0, 0, 1, 100, 500}";
},
{
alignment = -1;
name = _pixel;
transform = "{1, 0, 0, 1, 200, 400}";
},
{
alignment = -1;
name = _pixel;
transform = "{1, 0, 0, 1, 200, 300}";
},
{
alignment = -1;
name = _pixel;
transform = "{1, 0, 0, 1, 200, 200}";
},
{
alignment = -1;
name = _pixel;
transform = "{1, 0, 0, 1, 200, 100}";
},
{
alignment = -1;
name = _pixel;
transform = "{1, 0, 0, 1, 100, 100}";
},
{
alignment = -1;
name = _pixel;
transform = "{1, 0, 0, 1, 100, 200}";
},
{
alignment = -1;
name = _pixel;
transform = "{1, 0, 0, 1, 100, 300}";
},
{
alignment = -1;
name = _pixel;
transform = "{1, 0, 0, 1, 100, 400}";
},
{
alignment = -1;
name = _pixel;
transform = "{1, 0, 0, 1, 700, 500}";
},
{
alignment = -1;
name = _pixel;
transform = "{1, 0, 0, 1, 700, 400}";
},
{
alignment = -1;
name = _pixel;
transform = "{1, 0, 0, 1, 700, 300}";
},
{
alignment = -1;
name = _pixel;
transform = "{1, 0, 0, 1, 700, 200}";
},
{
alignment = -1;
name = _pixel;
transform = "{1, 0, 0, 1, 700, 100}";
},
{
alignment = -1;
name = _pixel;
transform = "{1, 0, 0, 1, 600, 100}";
},
{
alignment = -1;
name = _pixel;
transform = "{1, 0, 0, 1, 500, 100}";
},
{
alignment = -1;
name = _pixel;
transform = "{1, 0, 0, 1, 500, 200}";
},
{
alignment = -1;
name = _pixel;
transform = "{1, 0, 0, 1, 600, 500}";
},
{
alignment = -1;
name = _pixel;
transform = "{1, 0, 0, 1, 600, 400}";
},
{
alignment = -1;
name = _pixel;
transform = "{1, 0, 0, 1, 600, 300}";
},
{
alignment = -1;
name = _pixel;
transform = "{1, 0, 0, 1, 600, 200}";
},
{
alignment = -1;
name = _pixel;
transform = "{1, 0, 0, 1, 300, 400}";
},
{
alignment = -1;
name = _pixel;
transform = "{1, 0, 0, 1, 500, 500}";
},
{
alignment = -1;
name = _pixel;
transform = "{1, 0, 0, 1, 500, 400}";
},
{
alignment = -1;
name = _pixel;
transform = "{1, 0, 0, 1, 500, 300}";
},
{
alignment = -1;
name = _pixel;
transform = "{1, 0, 0, 1, 200, 500}";
},
{
alignment = -1;
name = _pixel;
transform = "{1, 0, 0, 1, 400, 300}";
}
);
layerId = "DC2F6F49-0614-4506-825E-CA2227696917";
name = "Color 1";
width = 800;
},
{
associatedMasterId = "EBA6CC13-AC95-47AE-A422-BCD5D8D196D3";
components = (
{
alignment = -1;
name = _pixel;
transform = "{1, 0, 0, 1, 100, 600}";
},
{
alignment = -1;
name = _pixel;
transform = "{1, 0, 0, 1, 200, 500}";
},
{
alignment = -1;
name = _pixel;
transform = "{1, 0, 0, 1, 200, 400}";
},
{
alignment = -1;
name = _pixel;
transform = "{1, 0, 0, 1, 200, 300}";
},
{
alignment = -1;
name = _pixel;
transform = "{1, 0, 0, 1, 200, 200}";
},
{
alignment = -1;
name = _pixel;
transform = "{1, 0, 0, 1, 100, 200}";
},
{
alignment = -1;
name = _pixel;
transform = "{1, 0, 0, 1, 100, 300}";
},
{
alignment = -1;
name = _pixel;
transform = "{1, 0, 0, 1, 100, 400}";
},
{
alignment = -1;
name = _pixel;
transform = "{1, 0, 0, 1, 100, 500}";
},
{
alignment = -1;
name = _pixel;
transform = "{1, 0, 0, 1, 700, 600}";
},
{
alignment = -1;
name = _pixel;
transform = "{1, 0, 0, 1, 700, 500}";
},
{
alignment = -1;
name = _pixel;
transform = "{1, 0, 0, 1, 700, 400}";
},
{
alignment = -1;
name = _pixel;
transform = "{1, 0, 0, 1, 700, 300}";
},
{
alignment = -1;
name = _pixel;
transform = "{1, 0, 0, 1, 700, 200}";
},
{
alignment = -1;
name = _pixel;
transform = "{1, 0, 0, 1, 600, 200}";
},
{
alignment = -1;
name = _pixel;
transform = "{1, 0, 0, 1, 500, 200}";
},
{
alignment = -1;
name = _pixel;
transform = "{1, 0, 0, 1, 500, 300}";
},
{
alignment = -1;
name = _pixel;
transform = "{1, 0, 0, 1, 600, 600}";
},
{
alignment = -1;
name = _pixel;
transform = "{1, 0, 0, 1, 600, 500}";
},
{
alignment = -1;
name = _pixel;
transform = "{1, 0, 0, 1, 600, 400}";
},
{
alignment = -1;
name = _pixel;
transform = "{1, 0, 0, 1, 600, 300}";
},
{
alignment = -1;
name = _pixel;
transform = "{1, 0, 0, 1, 300, 500}";
},
{
alignment = -1;
name = _pixel;
transform = "{1, 0, 0, 1, 500, 600}";
},
{
alignment = -1;
name = _pixel;
transform = "{1, 0, 0, 1, 500, 500}";
},
{
alignment = -1;
name = _pixel;
transform = "{1, 0, 0, 1, 500, 400}";
},
{
alignment = -1;
name = _pixel;
transform = "{1, 0, 0, 1, 200, 600}";
},
{
alignment = -1;
name = _pixel;
transform = "{1, 0, 0, 1, 400, 400}";
}
);
layerId = "333BF133-DB41-4575-B232-D783EF459194";
name = "Color 0";
width = 800;
}
);
unicode = "004E,006E";
},
{
glyphname = O;
lastChange = "2020-02-16 00:31:19 +0000";
layers = (
{
layerId = "EBA6CC13-AC95-47AE-A422-BCD5D8D196D3";
paths = (
{
closed = 1;
nodes = (
"700 700 LINE",
"200 700 LINE",
"200 600 LINE",
"100 600 LINE",
"100 0 LINE",
"200 0 LINE",
"200 -100 LINE",
"700 -100 LINE",
"700 0 LINE",
"800 0 LINE",
"800 600 LINE",
"700 600 LINE"
);
}
);
width = 800;
},
{
associatedMasterId = "EBA6CC13-AC95-47AE-A422-BCD5D8D196D3";
components = (
{
alignment = -1;
name = _pixel;
transform = "{1, 0, 0, 1, 200, 300}";
},
{
alignment = -1;
name = _pixel;
transform = "{1, 0, 0, 1, 200, 200}";
},
{
alignment = -1;
name = _pixel;
transform = "{1, 0, 0, 1, 200, 100}";
},
{
alignment = -1;
name = _pixel;
transform = "{1, 0, 0, 1, 200, 0}";
},
{
alignment = -1;
name = _pixel;
transform = "{1, 0, 0, 1, 200, -100}";
},
{
alignment = -1;
name = _pixel;
transform = "{1, 0, 0, 1, 100, 0}";
},
{
alignment = -1;
name = _pixel;
transform = "{1, 0, 0, 1, 100, 100}";
},
{
alignment = -1;
name = _pixel;
transform = "{1, 0, 0, 1, 100, 200}";
},
{
alignment = -1;
name = _pixel;
transform = "{1, 0, 0, 1, 500, 100}";
},
{
alignment = -1;
name = _pixel;
transform = "{1, 0, 0, 1, 700, 200}";
},
{
alignment = -1;
name = _pixel;
transform = "{1, 0, 0, 1, 600, -100}";
},
{
alignment = -1;
name = _pixel;
transform = "{1, 0, 0, 1, 500, -100}";
},
{
alignment = -1;
name = _pixel;
transform = "{1, 0, 0, 1, 500, 0}";
},
{
alignment = -1;
name = _pixel;
transform = "{1, 0, 0, 1, 500, 200}";
},
{
alignment = -1;
name = _pixel;
transform = "{1, 0, 0, 1, 500, 300}";
},
{
alignment = -1;
name = _pixel;
transform = "{1, 0, 0, 1, 600, 300}";
},
{
alignment = -1;
name = _pixel;
transform = "{1, 0, 0, 1, 600, 200}";
},
{
alignment = -1;
name = _pixel;
transform = "{1, 0, 0, 1, 300, 300}";
},
{
alignment = -1;
name = _pixel;
transform = "{1, 0, 0, 1, 400, 300}";
},
{
alignment = -1;
name = _pixel;
transform = "{1, 0, 0, 1, 600, 100}";
},
{
alignment = -1;
name = _pixel;
transform = "{1, 0, 0, 1, 700, 100}";
},
{
alignment = -1;
name = _pixel;
transform = "{1, 0, 0, 1, 600, 0}";
},
{
alignment = -1;
name = _pixel;
transform = "{1, 0, 0, 1, 300, -100}";
},
{
alignment = -1;
name = _pixel;
transform = "{1, 0, 0, 1, 400, -100}";
},
{
alignment = -1;
name = _pixel;
transform = "{1, 0, 0, 1, 700, 0}";
}
);
layerId = "29895EA3-C0A8-407E-9700-9C421B21F5CB";
name = "Color 3";
width = 800;
},
{
associatedMasterId = "EBA6CC13-AC95-47AE-A422-BCD5D8D196D3";
components = (
{
alignment = -1;
name = _pixel;
transform = "{1, 0, 0, 1, 200, 400}";
},
{
alignment = -1;
name = _pixel;
transform = "{1, 0, 0, 1, 200, 300}";
},
{
alignment = -1;
name = _pixel;
transform = "{1, 0, 0, 1, 200, 200}";
},
{
alignment = -1;
name = _pixel;
transform = "{1, 0, 0, 1, 200, 100}";
},
{
alignment = -1;
name = _pixel;
transform = "{1, 0, 0, 1, 200, 0}";
},
{
alignment = -1;
name = _pixel;
transform = "{1, 0, 0, 1, 100, 100}";
},
{
alignment = -1;
name = _pixel;
transform = "{1, 0, 0, 1, 100, 200}";
},
{
alignment = -1;
name = _pixel;
transform = "{1, 0, 0, 1, 100, 300}";
},
{
alignment = -1;
name = _pixel;
transform = "{1, 0, 0, 1, 500, 200}";
},
{
alignment = -1;
name = _pixel;
transform = "{1, 0, 0, 1, 700, 300}";
},
{
alignment = -1;
name = _pixel;
transform = "{1, 0, 0, 1, 600, 0}";
},
{
alignment = -1;
name = _pixel;
transform = "{1, 0, 0, 1, 500, 0}";
},
{
alignment = -1;
name = _pixel;
transform = "{1, 0, 0, 1, 500, 100}";
},
{
alignment = -1;
name = _pixel;
transform = "{1, 0, 0, 1, 500, 300}";
},
{
alignment = -1;
name = _pixel;
transform = "{1, 0, 0, 1, 500, 400}";
},
{
alignment = -1;
name = _pixel;
transform = "{1, 0, 0, 1, 600, 400}";
},
{
alignment = -1;
name = _pixel;
transform = "{1, 0, 0, 1, 600, 300}";
},
{
alignment = -1;
name = _pixel;
transform = "{1, 0, 0, 1, 300, 400}";
},
{
alignment = -1;
name = _pixel;
transform = "{1, 0, 0, 1, 400, 400}";
},
{
alignment = -1;
name = _pixel;
transform = "{1, 0, 0, 1, 600, 200}";
},
{
alignment = -1;
name = _pixel;
transform = "{1, 0, 0, 1, 700, 200}";
},
{
alignment = -1;
name = _pixel;
transform = "{1, 0, 0, 1, 600, 100}";
},
{
alignment = -1;
name = _pixel;
transform = "{1, 0, 0, 1, 300, 0}";
},
{
alignment = -1;
name = _pixel;
transform = "{1, 0, 0, 1, 400, 0}";
},
{
alignment = -1;
name = _pixel;
transform = "{1, 0, 0, 1, 700, 100}";
}
);
layerId = "6BDB1F0B-2B1B-407F-A896-AC70F68403C9";
name = "Color 2";
width = 800;
},
{
associatedMasterId = "EBA6CC13-AC95-47AE-A422-BCD5D8D196D3";
components = (
{
alignment = -1;
name = _pixel;
transform = "{1, 0, 0, 1, 200, 500}";
},
{
alignment = -1;
name = _pixel;
transform = "{1, 0, 0, 1, 200, 400}";
},
{
alignment = -1;
name = _pixel;
transform = "{1, 0, 0, 1, 200, 300}";
},
{
alignment = -1;
name = _pixel;
transform = "{1, 0, 0, 1, 200, 200}";
},
{
alignment = -1;
name = _pixel;
transform = "{1, 0, 0, 1, 200, 100}";
},
{
alignment = -1;
name = _pixel;
transform = "{1, 0, 0, 1, 100, 200}";
},
{
alignment = -1;
name = _pixel;
transform = "{1, 0, 0, 1, 100, 300}";
},
{
alignment = -1;
name = _pixel;
transform = "{1, 0, 0, 1, 100, 400}";
},
{
alignment = -1;
name = _pixel;
transform = "{1, 0, 0, 1, 500, 300}";
},
{
alignment = -1;
name = _pixel;
transform = "{1, 0, 0, 1, 700, 400}";
},
{
alignment = -1;
name = _pixel;
transform = "{1, 0, 0, 1, 600, 100}";
},
{
alignment = -1;
name = _pixel;
transform = "{1, 0, 0, 1, 500, 100}";
},
{
alignment = -1;
name = _pixel;
transform = "{1, 0, 0, 1, 500, 200}";
},
{
alignment = -1;
name = _pixel;
transform = "{1, 0, 0, 1, 500, 400}";
},
{
alignment = -1;
name = _pixel;
transform = "{1, 0, 0, 1, 500, 500}";
},
{
alignment = -1;
name = _pixel;
transform = "{1, 0, 0, 1, 600, 500}";
},
{
alignment = -1;
name = _pixel;
transform = "{1, 0, 0, 1, 600, 400}";
},
{
alignment = -1;
name = _pixel;
transform = "{1, 0, 0, 1, 300, 500}";
},
{
alignment = -1;
name = _pixel;
transform = "{1, 0, 0, 1, 400, 500}";
},
{
alignment = -1;
name = _pixel;
transform = "{1, 0, 0, 1, 600, 300}";
},
{
alignment = -1;
name = _pixel;
transform = "{1, 0, 0, 1, 700, 300}";
},
{
alignment = -1;
name = _pixel;
transform = "{1, 0, 0, 1, 600, 200}";
},
{
alignment = -1;
name = _pixel;
transform = "{1, 0, 0, 1, 300, 100}";
},
{
alignment = -1;
name = _pixel;
transform = "{1, 0, 0, 1, 400, 100}";
},
{
alignment = -1;
name = _pixel;
transform = "{1, 0, 0, 1, 700, 200}";
}
);
layerId = "DC2F6F49-0614-4506-825E-CA2227696917";
name = "Color 1";
width = 800;
},
{
associatedMasterId = "EBA6CC13-AC95-47AE-A422-BCD5D8D196D3";
components = (
{
alignment = -1;
name = _pixel;
transform = "{1, 0, 0, 1, 200, 600}";
},
{
alignment = -1;
name = _pixel;
transform = "{1, 0, 0, 1, 200, 500}";
},
{
alignment = -1;
name = _pixel;
transform = "{1, 0, 0, 1, 200, 400}";
},
{
alignment = -1;
name = _pixel;
transform = "{1, 0, 0, 1, 200, 300}";
},
{
alignment = -1;
name = _pixel;
transform = "{1, 0, 0, 1, 200, 200}";
},
{
alignment = -1;
name = _pixel;
transform = "{1, 0, 0, 1, 100, 300}";
},
{
alignment = -1;
name = _pixel;
transform = "{1, 0, 0, 1, 100, 400}";
},
{
alignment = -1;
name = _pixel;
transform = "{1, 0, 0, 1, 100, 500}";
},
{
alignment = -1;
name = _pixel;
transform = "{1, 0, 0, 1, 500, 400}";
},
{
alignment = -1;
name = _pixel;
transform = "{1, 0, 0, 1, 700, 500}";
},
{
alignment = -1;
name = _pixel;
transform = "{1, 0, 0, 1, 600, 200}";
},
{
alignment = -1;
name = _pixel;
transform = "{1, 0, 0, 1, 500, 200}";
},
{
alignment = -1;
name = _pixel;
transform = "{1, 0, 0, 1, 500, 300}";
},
{
alignment = -1;
name = _pixel;
transform = "{1, 0, 0, 1, 500, 500}";
},
{
alignment = -1;
name = _pixel;
transform = "{1, 0, 0, 1, 500, 600}";
},
{
alignment = -1;
name = _pixel;
transform = "{1, 0, 0, 1, 600, 600}";
},
{
alignment = -1;
name = _pixel;
transform = "{1, 0, 0, 1, 600, 500}";
},
{
alignment = -1;
name = _pixel;
transform = "{1, 0, 0, 1, 300, 600}";
},
{
alignment = -1;
name = _pixel;
transform = "{1, 0, 0, 1, 400, 600}";
},
{
alignment = -1;
name = _pixel;
transform = "{1, 0, 0, 1, 600, 400}";
},
{
alignment = -1;
name = _pixel;
transform = "{1, 0, 0, 1, 700, 400}";
},
{
alignment = -1;
name = _pixel;
transform = "{1, 0, 0, 1, 600, 300}";
},
{
alignment = -1;
name = _pixel;
transform = "{1, 0, 0, 1, 300, 200}";
},
{
alignment = -1;
name = _pixel;
transform = "{1, 0, 0, 1, 400, 200}";
},
{
alignment = -1;
name = _pixel;
transform = "{1, 0, 0, 1, 700, 300}";
}
);
layerId = "333BF133-DB41-4575-B232-D783EF459194";
name = "Color 0";
width = 800;
}
);
unicode = "004F,006F";
},
{
glyphname = P;
lastChange = "2020-02-16 00:31:19 +0000";
layers = (
{
layerId = "EBA6CC13-AC95-47AE-A422-BCD5D8D196D3";
paths = (
{
closed = 1;
nodes = (
"700 700 LINE",
"100 700 LINE",
"100 -100 LINE",
"300 -100 LINE",
"300 0 LINE",
"700 0 LINE",
"700 100 LINE",
"800 100 LINE",
"800 600 LINE",
"700 600 LINE"
);
}
);
width = 800;
},
{
associatedMasterId = "EBA6CC13-AC95-47AE-A422-BCD5D8D196D3";
components = (
{
alignment = -1;
name = _pixel;
transform = "{1, 0, 0, 1, 100, 300}";
},
{
alignment = -1;
name = _pixel;
transform = "{1, 0, 0, 1, 200, 300}";
},
{
alignment = -1;
name = _pixel;
transform = "{1, 0, 0, 1, 200, 200}";
},
{
alignment = -1;
name = _pixel;
transform = "{1, 0, 0, 1, 200, 100}";
},
{
alignment = -1;
name = _pixel;
transform = "{1, 0, 0, 1, 200, 0}";
},
{
alignment = -1;
name = _pixel;
transform = "{1, 0, 0, 1, 200, -100}";
},
{
alignment = -1;
name = _pixel;
transform = "{1, 0, 0, 1, 100, -100}";
},
{
alignment = -1;
name = _pixel;
transform = "{1, 0, 0, 1, 100, 0}";
},
{
alignment = -1;
name = _pixel;
transform = "{1, 0, 0, 1, 100, 100}";
},
{
alignment = -1;
name = _pixel;
transform = "{1, 0, 0, 1, 100, 200}";
},
{
alignment = -1;
name = _pixel;
transform = "{1, 0, 0, 1, 500, 100}";
},
{
alignment = -1;
name = _pixel;
transform = "{1, 0, 0, 1, 700, 200}";
},
{
alignment = -1;
name = _pixel;
transform = "{1, 0, 0, 1, 500, 0}";
},
{
alignment = -1;
name = _pixel;
transform = "{1, 0, 0, 1, 500, 200}";
},
{
alignment = -1;
name = _pixel;
transform = "{1, 0, 0, 1, 500, 300}";
},
{
alignment = -1;
name = _pixel;
transform = "{1, 0, 0, 1, 600, 300}";
},
{
alignment = -1;
name = _pixel;
transform = "{1, 0, 0, 1, 600, 200}";
},
{
alignment = -1;
name = _pixel;
transform = "{1, 0, 0, 1, 300, 0}";
},
{
alignment = -1;
name = _pixel;
transform = "{1, 0, 0, 1, 400, 0}";
},
{
alignment = -1;
name = _pixel;
transform = "{1, 0, 0, 1, 300, 300}";
},
{
alignment = -1;
name = _pixel;
transform = "{1, 0, 0, 1, 400, 300}";
},
{
alignment = -1;
name = _pixel;
transform = "{1, 0, 0, 1, 600, 100}";
},
{
alignment = -1;
name = _pixel;
transform = "{1, 0, 0, 1, 700, 100}";
},
{
alignment = -1;
name = _pixel;
transform = "{1, 0, 0, 1, 600, 0}";
}
);
layerId = "29895EA3-C0A8-407E-9700-9C421B21F5CB";
name = "Color 3";
width = 800;
},
{
associatedMasterId = "EBA6CC13-AC95-47AE-A422-BCD5D8D196D3";
components = (
{
alignment = -1;
name = _pixel;
transform = "{1, 0, 0, 1, 100, 400}";
},
{
alignment = -1;
name = _pixel;
transform = "{1, 0, 0, 1, 200, 400}";
},
{
alignment = -1;
name = _pixel;
transform = "{1, 0, 0, 1, 200, 300}";
},
{
alignment = -1;
name = _pixel;
transform = "{1, 0, 0, 1, 200, 200}";
},
{
alignment = -1;
name = _pixel;
transform = "{1, 0, 0, 1, 200, 100}";
},
{
alignment = -1;
name = _pixel;
transform = "{1, 0, 0, 1, 200, 0}";
},
{
alignment = -1;
name = _pixel;
transform = "{1, 0, 0, 1, 100, 0}";
},
{
alignment = -1;
name = _pixel;
transform = "{1, 0, 0, 1, 100, 100}";
},
{
alignment = -1;
name = _pixel;
transform = "{1, 0, 0, 1, 100, 200}";
},
{
alignment = -1;
name = _pixel;
transform = "{1, 0, 0, 1, 100, 300}";
},
{
alignment = -1;
name = _pixel;
transform = "{1, 0, 0, 1, 500, 200}";
},
{
alignment = -1;
name = _pixel;
transform = "{1, 0, 0, 1, 700, 300}";
},
{
alignment = -1;
name = _pixel;
transform = "{1, 0, 0, 1, 500, 100}";
},
{
alignment = -1;
name = _pixel;
transform = "{1, 0, 0, 1, 500, 300}";
},
{
alignment = -1;
name = _pixel;
transform = "{1, 0, 0, 1, 500, 400}";
},
{
alignment = -1;
name = _pixel;
transform = "{1, 0, 0, 1, 600, 400}";
},
{
alignment = -1;
name = _pixel;
transform = "{1, 0, 0, 1, 600, 300}";
},
{
alignment = -1;
name = _pixel;
transform = "{1, 0, 0, 1, 300, 100}";
},
{
alignment = -1;
name = _pixel;
transform = "{1, 0, 0, 1, 400, 100}";
},
{
alignment = -1;
name = _pixel;
transform = "{1, 0, 0, 1, 300, 400}";
},
{
alignment = -1;
name = _pixel;
transform = "{1, 0, 0, 1, 400, 400}";
},
{
alignment = -1;
name = _pixel;
transform = "{1, 0, 0, 1, 600, 200}";
},
{
alignment = -1;
name = _pixel;
transform = "{1, 0, 0, 1, 700, 200}";
},
{
alignment = -1;
name = _pixel;
transform = "{1, 0, 0, 1, 600, 100}";
}
);
layerId = "6BDB1F0B-2B1B-407F-A896-AC70F68403C9";
name = "Color 2";
width = 800;
},
{
associatedMasterId = "EBA6CC13-AC95-47AE-A422-BCD5D8D196D3";
components = (
{
alignment = -1;
name = _pixel;
transform = "{1, 0, 0, 1, 100, 500}";
},
{
alignment = -1;
name = _pixel;
transform = "{1, 0, 0, 1, 200, 500}";
},
{
alignment = -1;
name = _pixel;
transform = "{1, 0, 0, 1, 200, 400}";
},
{
alignment = -1;
name = _pixel;
transform = "{1, 0, 0, 1, 200, 300}";
},
{
alignment = -1;
name = _pixel;
transform = "{1, 0, 0, 1, 200, 200}";
},
{
alignment = -1;
name = _pixel;
transform = "{1, 0, 0, 1, 200, 100}";
},
{
alignment = -1;
name = _pixel;
transform = "{1, 0, 0, 1, 100, 100}";
},
{
alignment = -1;
name = _pixel;
transform = "{1, 0, 0, 1, 100, 200}";
},
{
alignment = -1;
name = _pixel;
transform = "{1, 0, 0, 1, 100, 300}";
},
{
alignment = -1;
name = _pixel;
transform = "{1, 0, 0, 1, 100, 400}";
},
{
alignment = -1;
name = _pixel;
transform = "{1, 0, 0, 1, 500, 300}";
},
{
alignment = -1;
name = _pixel;
transform = "{1, 0, 0, 1, 700, 400}";
},
{
alignment = -1;
name = _pixel;
transform = "{1, 0, 0, 1, 500, 200}";
},
{
alignment = -1;
name = _pixel;
transform = "{1, 0, 0, 1, 500, 400}";
},
{
alignment = -1;
name = _pixel;
transform = "{1, 0, 0, 1, 500, 500}";
},
{
alignment = -1;
name = _pixel;
transform = "{1, 0, 0, 1, 600, 500}";
},
{
alignment = -1;
name = _pixel;
transform = "{1, 0, 0, 1, 600, 400}";
},
{
alignment = -1;
name = _pixel;
transform = "{1, 0, 0, 1, 300, 200}";
},
{
alignment = -1;
name = _pixel;
transform = "{1, 0, 0, 1, 400, 200}";
},
{
alignment = -1;
name = _pixel;
transform = "{1, 0, 0, 1, 300, 500}";
},
{
alignment = -1;
name = _pixel;
transform = "{1, 0, 0, 1, 400, 500}";
},
{
alignment = -1;
name = _pixel;
transform = "{1, 0, 0, 1, 600, 300}";
},
{
alignment = -1;
name = _pixel;
transform = "{1, 0, 0, 1, 700, 300}";
},
{
alignment = -1;
name = _pixel;
transform = "{1, 0, 0, 1, 600, 200}";
}
);
layerId = "DC2F6F49-0614-4506-825E-CA2227696917";
name = "Color 1";
width = 800;
},
{
associatedMasterId = "EBA6CC13-AC95-47AE-A422-BCD5D8D196D3";
components = (
{
alignment = -1;
name = _pixel;
transform = "{1, 0, 0, 1, 100, 600}";
},
{
alignment = -1;
name = _pixel;
transform = "{1, 0, 0, 1, 200, 600}";
},
{
alignment = -1;
name = _pixel;
transform = "{1, 0, 0, 1, 200, 500}";
},
{
alignment = -1;
name = _pixel;
transform = "{1, 0, 0, 1, 200, 400}";
},
{
alignment = -1;
name = _pixel;
transform = "{1, 0, 0, 1, 200, 300}";
},
{
alignment = -1;
name = _pixel;
transform = "{1, 0, 0, 1, 200, 200}";
},
{
alignment = -1;
name = _pixel;
transform = "{1, 0, 0, 1, 100, 200}";
},
{
alignment = -1;
name = _pixel;
transform = "{1, 0, 0, 1, 100, 300}";
},
{
alignment = -1;
name = _pixel;
transform = "{1, 0, 0, 1, 100, 400}";
},
{
alignment = -1;
name = _pixel;
transform = "{1, 0, 0, 1, 100, 500}";
},
{
alignment = -1;
name = _pixel;
transform = "{1, 0, 0, 1, 500, 400}";
},
{
alignment = -1;
name = _pixel;
transform = "{1, 0, 0, 1, 700, 500}";
},
{
alignment = -1;
name = _pixel;
transform = "{1, 0, 0, 1, 500, 300}";
},
{
alignment = -1;
name = _pixel;
transform = "{1, 0, 0, 1, 500, 500}";
},
{
alignment = -1;
name = _pixel;
transform = "{1, 0, 0, 1, 500, 600}";
},
{
alignment = -1;
name = _pixel;
transform = "{1, 0, 0, 1, 600, 600}";
},
{
alignment = -1;
name = _pixel;
transform = "{1, 0, 0, 1, 600, 500}";
},
{
alignment = -1;
name = _pixel;
transform = "{1, 0, 0, 1, 300, 300}";
},
{
alignment = -1;
name = _pixel;
transform = "{1, 0, 0, 1, 400, 300}";
},
{
alignment = -1;
name = _pixel;
transform = "{1, 0, 0, 1, 300, 600}";
},
{
alignment = -1;
name = _pixel;
transform = "{1, 0, 0, 1, 400, 600}";
},
{
alignment = -1;
name = _pixel;
transform = "{1, 0, 0, 1, 600, 400}";
},
{
alignment = -1;
name = _pixel;
transform = "{1, 0, 0, 1, 700, 400}";
},
{
alignment = -1;
name = _pixel;
transform = "{1, 0, 0, 1, 600, 300}";
}
);
layerId = "333BF133-DB41-4575-B232-D783EF459194";
name = "Color 0";
width = 800;
}
);
unicode = "0050,0070";
},
{
glyphname = Q;
lastChange = "2020-02-16 00:31:19 +0000";
layers = (
{
layerId = "EBA6CC13-AC95-47AE-A422-BCD5D8D196D3";
paths = (
{
closed = 1;
nodes = (
"700 700 LINE",
"200 700 LINE",
"200 600 LINE",
"100 600 LINE",
"100 0 LINE",
"200 0 LINE",
"200 -100 LINE",
"800 -100 LINE",
"800 600 LINE",
"700 600 LINE"
);
}
);
width = 800;
},
{
associatedMasterId = "EBA6CC13-AC95-47AE-A422-BCD5D8D196D3";
components = (
{
alignment = -1;
name = _pixel;
transform = "{1, 0, 0, 1, 200, 300}";
},
{
alignment = -1;
name = _pixel;
transform = "{1, 0, 0, 1, 200, 200}";
},
{
alignment = -1;
name = _pixel;
transform = "{1, 0, 0, 1, 200, 100}";
},
{
alignment = -1;
name = _pixel;
transform = "{1, 0, 0, 1, 200, 0}";
},
{
alignment = -1;
name = _pixel;
transform = "{1, 0, 0, 1, 200, -100}";
},
{
alignment = -1;
name = _pixel;
transform = "{1, 0, 0, 1, 100, 0}";
},
{
alignment = -1;
name = _pixel;
transform = "{1, 0, 0, 1, 100, 100}";
},
{
alignment = -1;
name = _pixel;
transform = "{1, 0, 0, 1, 100, 200}";
},
{
alignment = -1;
name = _pixel;
transform = "{1, 0, 0, 1, 500, 100}";
},
{
alignment = -1;
name = _pixel;
transform = "{1, 0, 0, 1, 700, 200}";
},
{
alignment = -1;
name = _pixel;
transform = "{1, 0, 0, 1, 500, -100}";
},
{
alignment = -1;
name = _pixel;
transform = "{1, 0, 0, 1, 500, 0}";
},
{
alignment = -1;
name = _pixel;
transform = "{1, 0, 0, 1, 500, 200}";
},
{
alignment = -1;
name = _pixel;
transform = "{1, 0, 0, 1, 500, 300}";
},
{
alignment = -1;
name = _pixel;
transform = "{1, 0, 0, 1, 600, 300}";
},
{
alignment = -1;
name = _pixel;
transform = "{1, 0, 0, 1, 600, 200}";
},
{
alignment = -1;
name = _pixel;
transform = "{1, 0, 0, 1, 300, 300}";
},
{
alignment = -1;
name = _pixel;
transform = "{1, 0, 0, 1, 400, 300}";
},
{
alignment = -1;
name = _pixel;
transform = "{1, 0, 0, 1, 600, 100}";
},
{
alignment = -1;
name = _pixel;
transform = "{1, 0, 0, 1, 700, 100}";
},
{
alignment = -1;
name = _pixel;
transform = "{1, 0, 0, 1, 300, -100}";
},
{
alignment = -1;
name = _pixel;
transform = "{1, 0, 0, 1, 700, -100}";
},
{
alignment = -1;
name = _pixel;
transform = "{1, 0, 0, 1, 400, 0}";
},
{
alignment = -1;
name = _pixel;
transform = "{1, 0, 0, 1, 400, -100}";
},
{
alignment = -1;
name = _pixel;
transform = "{1, 0, 0, 1, 600, 0}";
},
{
alignment = -1;
name = _pixel;
transform = "{1, 0, 0, 1, 600, -100}";
}
);
layerId = "29895EA3-C0A8-407E-9700-9C421B21F5CB";
name = "Color 3";
width = 800;
},
{
associatedMasterId = "EBA6CC13-AC95-47AE-A422-BCD5D8D196D3";
components = (
{
alignment = -1;
name = _pixel;
transform = "{1, 0, 0, 1, 200, 400}";
},
{
alignment = -1;
name = _pixel;
transform = "{1, 0, 0, 1, 200, 300}";
},
{
alignment = -1;
name = _pixel;
transform = "{1, 0, 0, 1, 200, 200}";
},
{
alignment = -1;
name = _pixel;
transform = "{1, 0, 0, 1, 200, 100}";
},
{
alignment = -1;
name = _pixel;
transform = "{1, 0, 0, 1, 200, 0}";
},
{
alignment = -1;
name = _pixel;
transform = "{1, 0, 0, 1, 100, 100}";
},
{
alignment = -1;
name = _pixel;
transform = "{1, 0, 0, 1, 100, 200}";
},
{
alignment = -1;
name = _pixel;
transform = "{1, 0, 0, 1, 100, 300}";
},
{
alignment = -1;
name = _pixel;
transform = "{1, 0, 0, 1, 500, 200}";
},
{
alignment = -1;
name = _pixel;
transform = "{1, 0, 0, 1, 700, 300}";
},
{
alignment = -1;
name = _pixel;
transform = "{1, 0, 0, 1, 500, 0}";
},
{
alignment = -1;
name = _pixel;
transform = "{1, 0, 0, 1, 500, 100}";
},
{
alignment = -1;
name = _pixel;
transform = "{1, 0, 0, 1, 500, 300}";
},
{
alignment = -1;
name = _pixel;
transform = "{1, 0, 0, 1, 500, 400}";
},
{
alignment = -1;
name = _pixel;
transform = "{1, 0, 0, 1, 600, 400}";
},
{
alignment = -1;
name = _pixel;
transform = "{1, 0, 0, 1, 600, 300}";
},
{
alignment = -1;
name = _pixel;
transform = "{1, 0, 0, 1, 300, 400}";
},
{
alignment = -1;
name = _pixel;
transform = "{1, 0, 0, 1, 400, 400}";
},
{
alignment = -1;
name = _pixel;
transform = "{1, 0, 0, 1, 600, 200}";
},
{
alignment = -1;
name = _pixel;
transform = "{1, 0, 0, 1, 700, 200}";
},
{
alignment = -1;
name = _pixel;
transform = "{1, 0, 0, 1, 300, 0}";
},
{
alignment = -1;
name = _pixel;
transform = "{1, 0, 0, 1, 700, 0}";
},
{
alignment = -1;
name = _pixel;
transform = "{1, 0, 0, 1, 400, 100}";
},
{
alignment = -1;
name = _pixel;
transform = "{1, 0, 0, 1, 400, 0}";
},
{
alignment = -1;
name = _pixel;
transform = "{1, 0, 0, 1, 600, 100}";
},
{
alignment = -1;
name = _pixel;
transform = "{1, 0, 0, 1, 600, 0}";
}
);
layerId = "6BDB1F0B-2B1B-407F-A896-AC70F68403C9";
name = "Color 2";
width = 800;
},
{
associatedMasterId = "EBA6CC13-AC95-47AE-A422-BCD5D8D196D3";
components = (
{
alignment = -1;
name = _pixel;
transform = "{1, 0, 0, 1, 200, 500}";
},
{
alignment = -1;
name = _pixel;
transform = "{1, 0, 0, 1, 200, 400}";
},
{
alignment = -1;
name = _pixel;
transform = "{1, 0, 0, 1, 200, 300}";
},
{
alignment = -1;
name = _pixel;
transform = "{1, 0, 0, 1, 200, 200}";
},
{
alignment = -1;
name = _pixel;
transform = "{1, 0, 0, 1, 200, 100}";
},
{
alignment = -1;
name = _pixel;
transform = "{1, 0, 0, 1, 100, 200}";
},
{
alignment = -1;
name = _pixel;
transform = "{1, 0, 0, 1, 100, 300}";
},
{
alignment = -1;
name = _pixel;
transform = "{1, 0, 0, 1, 100, 400}";
},
{
alignment = -1;
name = _pixel;
transform = "{1, 0, 0, 1, 500, 300}";
},
{
alignment = -1;
name = _pixel;
transform = "{1, 0, 0, 1, 700, 400}";
},
{
alignment = -1;
name = _pixel;
transform = "{1, 0, 0, 1, 500, 100}";
},
{
alignment = -1;
name = _pixel;
transform = "{1, 0, 0, 1, 500, 200}";
},
{
alignment = -1;
name = _pixel;
transform = "{1, 0, 0, 1, 500, 400}";
},
{
alignment = -1;
name = _pixel;
transform = "{1, 0, 0, 1, 500, 500}";
},
{
alignment = -1;
name = _pixel;
transform = "{1, 0, 0, 1, 600, 500}";
},
{
alignment = -1;
name = _pixel;
transform = "{1, 0, 0, 1, 600, 400}";
},
{
alignment = -1;
name = _pixel;
transform = "{1, 0, 0, 1, 300, 500}";
},
{
alignment = -1;
name = _pixel;
transform = "{1, 0, 0, 1, 400, 500}";
},
{
alignment = -1;
name = _pixel;
transform = "{1, 0, 0, 1, 600, 300}";
},
{
alignment = -1;
name = _pixel;
transform = "{1, 0, 0, 1, 700, 300}";
},
{
alignment = -1;
name = _pixel;
transform = "{1, 0, 0, 1, 300, 100}";
},
{
alignment = -1;
name = _pixel;
transform = "{1, 0, 0, 1, 700, 100}";
},
{
alignment = -1;
name = _pixel;
transform = "{1, 0, 0, 1, 400, 200}";
},
{
alignment = -1;
name = _pixel;
transform = "{1, 0, 0, 1, 400, 100}";
},
{
alignment = -1;
name = _pixel;
transform = "{1, 0, 0, 1, 600, 200}";
},
{
alignment = -1;
name = _pixel;
transform = "{1, 0, 0, 1, 600, 100}";
}
);
layerId = "DC2F6F49-0614-4506-825E-CA2227696917";
name = "Color 1";
width = 800;
},
{
associatedMasterId = "EBA6CC13-AC95-47AE-A422-BCD5D8D196D3";
components = (
{
alignment = -1;
name = _pixel;
transform = "{1, 0, 0, 1, 200, 600}";
},
{
alignment = -1;
name = _pixel;
transform = "{1, 0, 0, 1, 200, 500}";
},
{
alignment = -1;
name = _pixel;
transform = "{1, 0, 0, 1, 200, 400}";
},
{
alignment = -1;
name = _pixel;
transform = "{1, 0, 0, 1, 200, 300}";
},
{
alignment = -1;
name = _pixel;
transform = "{1, 0, 0, 1, 200, 200}";
},
{
alignment = -1;
name = _pixel;
transform = "{1, 0, 0, 1, 100, 300}";
},
{
alignment = -1;
name = _pixel;
transform = "{1, 0, 0, 1, 100, 400}";
},
{
alignment = -1;
name = _pixel;
transform = "{1, 0, 0, 1, 100, 500}";
},
{
alignment = -1;
name = _pixel;
transform = "{1, 0, 0, 1, 500, 400}";
},
{
alignment = -1;
name = _pixel;
transform = "{1, 0, 0, 1, 700, 500}";
},
{
alignment = -1;
name = _pixel;
transform = "{1, 0, 0, 1, 500, 200}";
},
{
alignment = -1;
name = _pixel;
transform = "{1, 0, 0, 1, 500, 300}";
},
{
alignment = -1;
name = _pixel;
transform = "{1, 0, 0, 1, 500, 500}";
},
{
alignment = -1;
name = _pixel;
transform = "{1, 0, 0, 1, 500, 600}";
},
{
alignment = -1;
name = _pixel;
transform = "{1, 0, 0, 1, 600, 600}";
},
{
alignment = -1;
name = _pixel;
transform = "{1, 0, 0, 1, 600, 500}";
},
{
alignment = -1;
name = _pixel;
transform = "{1, 0, 0, 1, 300, 600}";
},
{
alignment = -1;
name = _pixel;
transform = "{1, 0, 0, 1, 400, 600}";
},
{
alignment = -1;
name = _pixel;
transform = "{1, 0, 0, 1, 600, 400}";
},
{
alignment = -1;
name = _pixel;
transform = "{1, 0, 0, 1, 700, 400}";
},
{
alignment = -1;
name = _pixel;
transform = "{1, 0, 0, 1, 300, 200}";
},
{
alignment = -1;
name = _pixel;
transform = "{1, 0, 0, 1, 700, 200}";
},
{
alignment = -1;
name = _pixel;
transform = "{1, 0, 0, 1, 400, 300}";
},
{
alignment = -1;
name = _pixel;
transform = "{1, 0, 0, 1, 400, 200}";
},
{
alignment = -1;
name = _pixel;
transform = "{1, 0, 0, 1, 600, 300}";
},
{
alignment = -1;
name = _pixel;
transform = "{1, 0, 0, 1, 600, 200}";
}
);
layerId = "333BF133-DB41-4575-B232-D783EF459194";
name = "Color 0";
width = 800;
}
);
unicode = "0051,0071";
},
{
glyphname = R;
lastChange = "2020-02-16 00:19:42 +0000";
layers = (
{
layerId = "EBA6CC13-AC95-47AE-A422-BCD5D8D196D3";
paths = (
{
closed = 1;
nodes = (
"700 700 LINE",
"100 700 LINE",
"100 -100 LINE",
"300 -100 LINE",
"300 0 LINE",
"500 0 LINE",
"500 -100 LINE",
"800 -100 LINE",
"800 600 LINE",
"700 600 LINE"
);
}
);
width = 800;
},
{
associatedMasterId = "EBA6CC13-AC95-47AE-A422-BCD5D8D196D3";
components = (
{
alignment = -1;
name = _pixel;
transform = "{1, 0, 0, 1, 100, 300}";
},
{
alignment = -1;
name = _pixel;
transform = "{1, 0, 0, 1, 200, 300}";
},
{
alignment = -1;
name = _pixel;
transform = "{1, 0, 0, 1, 200, 200}";
},
{
alignment = -1;
name = _pixel;
transform = "{1, 0, 0, 1, 200, 100}";
},
{
alignment = -1;
name = _pixel;
transform = "{1, 0, 0, 1, 200, 0}";
},
{
alignment = -1;
name = _pixel;
transform = "{1, 0, 0, 1, 200, -100}";
},
{
alignment = -1;
name = _pixel;
transform = "{1, 0, 0, 1, 100, -100}";
},
{
alignment = -1;
name = _pixel;
transform = "{1, 0, 0, 1, 100, 0}";
},
{
alignment = -1;
name = _pixel;
transform = "{1, 0, 0, 1, 100, 100}";
},
{
alignment = -1;
name = _pixel;
transform = "{1, 0, 0, 1, 100, 200}";
},
{
alignment = -1;
name = _pixel;
transform = "{1, 0, 0, 1, 500, 100}";
},
{
alignment = -1;
name = _pixel;
transform = "{1, 0, 0, 1, 700, 200}";
},
{
alignment = -1;
name = _pixel;
transform = "{1, 0, 0, 1, 700, -100}";
},
{
alignment = -1;
name = _pixel;
transform = "{1, 0, 0, 1, 600, -100}";
},
{
alignment = -1;
name = _pixel;
transform = "{1, 0, 0, 1, 500, -100}";
},
{
alignment = -1;
name = _pixel;
transform = "{1, 0, 0, 1, 500, 0}";
},
{
alignment = -1;
name = _pixel;
transform = "{1, 0, 0, 1, 500, 200}";
},
{
alignment = -1;
name = _pixel;
transform = "{1, 0, 0, 1, 500, 300}";
},
{
alignment = -1;
name = _pixel;
transform = "{1, 0, 0, 1, 600, 300}";
},
{
alignment = -1;
name = _pixel;
transform = "{1, 0, 0, 1, 600, 200}";
},
{
alignment = -1;
name = _pixel;
transform = "{1, 0, 0, 1, 300, 0}";
},
{
alignment = -1;
name = _pixel;
transform = "{1, 0, 0, 1, 400, 0}";
},
{
alignment = -1;
name = _pixel;
transform = "{1, 0, 0, 1, 300, 300}";
},
{
alignment = -1;
name = _pixel;
transform = "{1, 0, 0, 1, 400, 300}";
},
{
alignment = -1;
name = _pixel;
transform = "{1, 0, 0, 1, 600, 100}";
},
{
alignment = -1;
name = _pixel;
transform = "{1, 0, 0, 1, 700, 100}";
},
{
alignment = -1;
name = _pixel;
transform = "{1, 0, 0, 1, 600, 0}";
}
);
layerId = "29895EA3-C0A8-407E-9700-9C421B21F5CB";
name = "Color 3";
width = 800;
},
{
associatedMasterId = "EBA6CC13-AC95-47AE-A422-BCD5D8D196D3";
components = (
{
alignment = -1;
name = _pixel;
transform = "{1, 0, 0, 1, 100, 400}";
},
{
alignment = -1;
name = _pixel;
transform = "{1, 0, 0, 1, 200, 400}";
},
{
alignment = -1;
name = _pixel;
transform = "{1, 0, 0, 1, 200, 300}";
},
{
alignment = -1;
name = _pixel;
transform = "{1, 0, 0, 1, 200, 200}";
},
{
alignment = -1;
name = _pixel;
transform = "{1, 0, 0, 1, 200, 100}";
},
{
alignment = -1;
name = _pixel;
transform = "{1, 0, 0, 1, 200, 0}";
},
{
alignment = -1;
name = _pixel;
transform = "{1, 0, 0, 1, 100, 0}";
},
{
alignment = -1;
name = _pixel;
transform = "{1, 0, 0, 1, 100, 100}";
},
{
alignment = -1;
name = _pixel;
transform = "{1, 0, 0, 1, 100, 200}";
},
{
alignment = -1;
name = _pixel;
transform = "{1, 0, 0, 1, 100, 300}";
},
{
alignment = -1;
name = _pixel;
transform = "{1, 0, 0, 1, 500, 200}";
},
{
alignment = -1;
name = _pixel;
transform = "{1, 0, 0, 1, 700, 300}";
},
{
alignment = -1;
name = _pixel;
transform = "{1, 0, 0, 1, 700, 0}";
},
{
alignment = -1;
name = _pixel;
transform = "{1, 0, 0, 1, 600, 0}";
},
{
alignment = -1;
name = _pixel;
transform = "{1, 0, 0, 1, 500, 0}";
},
{
alignment = -1;
name = _pixel;
transform = "{1, 0, 0, 1, 500, 100}";
},
{
alignment = -1;
name = _pixel;
transform = "{1, 0, 0, 1, 500, 300}";
},
{
alignment = -1;
name = _pixel;
transform = "{1, 0, 0, 1, 500, 400}";
},
{
alignment = -1;
name = _pixel;
transform = "{1, 0, 0, 1, 600, 400}";
},
{
alignment = -1;
name = _pixel;
transform = "{1, 0, 0, 1, 600, 300}";
},
{
alignment = -1;
name = _pixel;
transform = "{1, 0, 0, 1, 300, 100}";
},
{
alignment = -1;
name = _pixel;
transform = "{1, 0, 0, 1, 400, 100}";
},
{
alignment = -1;
name = _pixel;
transform = "{1, 0, 0, 1, 300, 400}";
},
{
alignment = -1;
name = _pixel;
transform = "{1, 0, 0, 1, 400, 400}";
},
{
alignment = -1;
name = _pixel;
transform = "{1, 0, 0, 1, 600, 200}";
},
{
alignment = -1;
name = _pixel;
transform = "{1, 0, 0, 1, 700, 200}";
},
{
alignment = -1;
name = _pixel;
transform = "{1, 0, 0, 1, 600, 100}";
}
);
layerId = "6BDB1F0B-2B1B-407F-A896-AC70F68403C9";
name = "Color 2";
width = 800;
},
{
associatedMasterId = "EBA6CC13-AC95-47AE-A422-BCD5D8D196D3";
components = (
{
alignment = -1;
name = _pixel;
transform = "{1, 0, 0, 1, 100, 500}";
},
{
alignment = -1;
name = _pixel;
transform = "{1, 0, 0, 1, 200, 500}";
},
{
alignment = -1;
name = _pixel;
transform = "{1, 0, 0, 1, 200, 400}";
},
{
alignment = -1;
name = _pixel;
transform = "{1, 0, 0, 1, 200, 300}";
},
{
alignment = -1;
name = _pixel;
transform = "{1, 0, 0, 1, 200, 200}";
},
{
alignment = -1;
name = _pixel;
transform = "{1, 0, 0, 1, 200, 100}";
},
{
alignment = -1;
name = _pixel;
transform = "{1, 0, 0, 1, 100, 100}";
},
{
alignment = -1;
name = _pixel;
transform = "{1, 0, 0, 1, 100, 200}";
},
{
alignment = -1;
name = _pixel;
transform = "{1, 0, 0, 1, 100, 300}";
},
{
alignment = -1;
name = _pixel;
transform = "{1, 0, 0, 1, 100, 400}";
},
{
alignment = -1;
name = _pixel;
transform = "{1, 0, 0, 1, 500, 300}";
},
{
alignment = -1;
name = _pixel;
transform = "{1, 0, 0, 1, 700, 400}";
},
{
alignment = -1;
name = _pixel;
transform = "{1, 0, 0, 1, 700, 100}";
},
{
alignment = -1;
name = _pixel;
transform = "{1, 0, 0, 1, 600, 100}";
},
{
alignment = -1;
name = _pixel;
transform = "{1, 0, 0, 1, 500, 100}";
},
{
alignment = -1;
name = _pixel;
transform = "{1, 0, 0, 1, 500, 200}";
},
{
alignment = -1;
name = _pixel;
transform = "{1, 0, 0, 1, 500, 400}";
},
{
alignment = -1;
name = _pixel;
transform = "{1, 0, 0, 1, 500, 500}";
},
{
alignment = -1;
name = _pixel;
transform = "{1, 0, 0, 1, 600, 500}";
},
{
alignment = -1;
name = _pixel;
transform = "{1, 0, 0, 1, 600, 400}";
},
{
alignment = -1;
name = _pixel;
transform = "{1, 0, 0, 1, 300, 200}";
},
{
alignment = -1;
name = _pixel;
transform = "{1, 0, 0, 1, 400, 200}";
},
{
alignment = -1;
name = _pixel;
transform = "{1, 0, 0, 1, 300, 500}";
},
{
alignment = -1;
name = _pixel;
transform = "{1, 0, 0, 1, 400, 500}";
},
{
alignment = -1;
name = _pixel;
transform = "{1, 0, 0, 1, 600, 300}";
},
{
alignment = -1;
name = _pixel;
transform = "{1, 0, 0, 1, 700, 300}";
},
{
alignment = -1;
name = _pixel;
transform = "{1, 0, 0, 1, 600, 200}";
}
);
layerId = "DC2F6F49-0614-4506-825E-CA2227696917";
name = "Color 1";
width = 800;
},
{
associatedMasterId = "EBA6CC13-AC95-47AE-A422-BCD5D8D196D3";
components = (
{
alignment = -1;
name = _pixel;
transform = "{1, 0, 0, 1, 100, 600}";
},
{
alignment = -1;
name = _pixel;
transform = "{1, 0, 0, 1, 200, 600}";
},
{
alignment = -1;
name = _pixel;
transform = "{1, 0, 0, 1, 200, 500}";
},
{
alignment = -1;
name = _pixel;
transform = "{1, 0, 0, 1, 200, 400}";
},
{
alignment = -1;
name = _pixel;
transform = "{1, 0, 0, 1, 200, 300}";
},
{
alignment = -1;
name = _pixel;
transform = "{1, 0, 0, 1, 200, 200}";
},
{
alignment = -1;
name = _pixel;
transform = "{1, 0, 0, 1, 100, 200}";
},
{
alignment = -1;
name = _pixel;
transform = "{1, 0, 0, 1, 100, 300}";
},
{
alignment = -1;
name = _pixel;
transform = "{1, 0, 0, 1, 100, 400}";
},
{
alignment = -1;
name = _pixel;
transform = "{1, 0, 0, 1, 100, 500}";
},
{
alignment = -1;
name = _pixel;
transform = "{1, 0, 0, 1, 500, 400}";
},
{
alignment = -1;
name = _pixel;
transform = "{1, 0, 0, 1, 700, 500}";
},
{
alignment = -1;
name = _pixel;
transform = "{1, 0, 0, 1, 700, 200}";
},
{
alignment = -1;
name = _pixel;
transform = "{1, 0, 0, 1, 600, 200}";
},
{
alignment = -1;
name = _pixel;
transform = "{1, 0, 0, 1, 500, 200}";
},
{
alignment = -1;
name = _pixel;
transform = "{1, 0, 0, 1, 500, 300}";
},
{
alignment = -1;
name = _pixel;
transform = "{1, 0, 0, 1, 500, 500}";
},
{
alignment = -1;
name = _pixel;
transform = "{1, 0, 0, 1, 500, 600}";
},
{
alignment = -1;
name = _pixel;
transform = "{1, 0, 0, 1, 600, 600}";
},
{
alignment = -1;
name = _pixel;
transform = "{1, 0, 0, 1, 600, 500}";
},
{
alignment = -1;
name = _pixel;
transform = "{1, 0, 0, 1, 300, 300}";
},
{
alignment = -1;
name = _pixel;
transform = "{1, 0, 0, 1, 400, 300}";
},
{
alignment = -1;
name = _pixel;
transform = "{1, 0, 0, 1, 300, 600}";
},
{
alignment = -1;
name = _pixel;
transform = "{1, 0, 0, 1, 400, 600}";
},
{
alignment = -1;
name = _pixel;
transform = "{1, 0, 0, 1, 600, 400}";
},
{
alignment = -1;
name = _pixel;
transform = "{1, 0, 0, 1, 700, 400}";
},
{
alignment = -1;
name = _pixel;
transform = "{1, 0, 0, 1, 600, 300}";
}
);
layerId = "333BF133-DB41-4575-B232-D783EF459194";
name = "Color 0";
width = 800;
}
);
unicode = "0052,0072";
},
{
glyphname = S;
lastChange = "2020-02-16 00:31:19 +0000";
layers = (
{
layerId = "EBA6CC13-AC95-47AE-A422-BCD5D8D196D3";
paths = (
{
closed = 1;
nodes = (
"200 700 LINE",
"200 600 LINE",
"100 600 LINE",
"100 -100 LINE",
"700 -100 LINE",
"700 0 LINE",
"800 0 LINE",
"800 700 LINE"
);
}
);
width = 800;
},
{
associatedMasterId = "EBA6CC13-AC95-47AE-A422-BCD5D8D196D3";
components = (
{
alignment = -1;
name = _pixel;
transform = "{1, 0, 0, 1, 200, 300}";
},
{
alignment = -1;
name = _pixel;
transform = "{1, 0, 0, 1, 200, 200}";
},
{
alignment = -1;
name = _pixel;
transform = "{1, 0, 0, 1, 200, -100}";
},
{
alignment = -1;
name = _pixel;
transform = "{1, 0, 0, 1, 100, 200}";
},
{
alignment = -1;
name = _pixel;
transform = "{1, 0, 0, 1, 600, -100}";
},
{
alignment = -1;
name = _pixel;
transform = "{1, 0, 0, 1, 500, -100}";
},
{
alignment = -1;
name = _pixel;
transform = "{1, 0, 0, 1, 500, 0}";
},
{
alignment = -1;
name = _pixel;
transform = "{1, 0, 0, 1, 500, 300}";
},
{
alignment = -1;
name = _pixel;
transform = "{1, 0, 0, 1, 600, 300}";
},
{
alignment = -1;
name = _pixel;
transform = "{1, 0, 0, 1, 300, 300}";
},
{
alignment = -1;
name = _pixel;
transform = "{1, 0, 0, 1, 400, 300}";
},
{
alignment = -1;
name = _pixel;
transform = "{1, 0, 0, 1, 600, 0}";
},
{
alignment = -1;
name = _pixel;
transform = "{1, 0, 0, 1, 300, -100}";
},
{
alignment = -1;
name = _pixel;
transform = "{1, 0, 0, 1, 400, -100}";
},
{
alignment = -1;
name = _pixel;
transform = "{1, 0, 0, 1, 700, 0}";
},
{
alignment = -1;
name = _pixel;
transform = "{1, 0, 0, 1, 300, 100}";
},
{
alignment = -1;
name = _pixel;
transform = "{1, 0, 0, 1, 400, 100}";
},
{
alignment = -1;
name = _pixel;
transform = "{1, 0, 0, 1, 500, 100}";
},
{
alignment = -1;
name = _pixel;
transform = "{1, 0, 0, 1, 200, 100}";
},
{
alignment = -1;
name = _pixel;
transform = "{1, 0, 0, 1, 600, 100}";
},
{
alignment = -1;
name = _pixel;
transform = "{1, 0, 0, 1, 700, 100}";
},
{
alignment = -1;
name = _pixel;
transform = "{1, 0, 0, 1, 700, 300}";
},
{
alignment = -1;
name = _pixel;
transform = "{1, 0, 0, 1, 100, -100}";
},
{
alignment = -1;
name = _pixel;
transform = "{1, 0, 0, 1, 100, 100}";
}
);
layerId = "29895EA3-C0A8-407E-9700-9C421B21F5CB";
name = "Color 3";
width = 800;
},
{
associatedMasterId = "EBA6CC13-AC95-47AE-A422-BCD5D8D196D3";
components = (
{
alignment = -1;
name = _pixel;
transform = "{1, 0, 0, 1, 200, 400}";
},
{
alignment = -1;
name = _pixel;
transform = "{1, 0, 0, 1, 200, 300}";
},
{
alignment = -1;
name = _pixel;
transform = "{1, 0, 0, 1, 200, 0}";
},
{
alignment = -1;
name = _pixel;
transform = "{1, 0, 0, 1, 100, 300}";
},
{
alignment = -1;
name = _pixel;
transform = "{1, 0, 0, 1, 600, 0}";
},
{
alignment = -1;
name = _pixel;
transform = "{1, 0, 0, 1, 500, 0}";
},
{
alignment = -1;
name = _pixel;
transform = "{1, 0, 0, 1, 500, 100}";
},
{
alignment = -1;
name = _pixel;
transform = "{1, 0, 0, 1, 500, 400}";
},
{
alignment = -1;
name = _pixel;
transform = "{1, 0, 0, 1, 600, 400}";
},
{
alignment = -1;
name = _pixel;
transform = "{1, 0, 0, 1, 300, 400}";
},
{
alignment = -1;
name = _pixel;
transform = "{1, 0, 0, 1, 400, 400}";
},
{
alignment = -1;
name = _pixel;
transform = "{1, 0, 0, 1, 600, 100}";
},
{
alignment = -1;
name = _pixel;
transform = "{1, 0, 0, 1, 300, 0}";
},
{
alignment = -1;
name = _pixel;
transform = "{1, 0, 0, 1, 400, 0}";
},
{
alignment = -1;
name = _pixel;
transform = "{1, 0, 0, 1, 700, 100}";
},
{
alignment = -1;
name = _pixel;
transform = "{1, 0, 0, 1, 300, 200}";
},
{
alignment = -1;
name = _pixel;
transform = "{1, 0, 0, 1, 400, 200}";
},
{
alignment = -1;
name = _pixel;
transform = "{1, 0, 0, 1, 500, 200}";
},
{
alignment = -1;
name = _pixel;
transform = "{1, 0, 0, 1, 200, 200}";
},
{
alignment = -1;
name = _pixel;
transform = "{1, 0, 0, 1, 600, 200}";
},
{
alignment = -1;
name = _pixel;
transform = "{1, 0, 0, 1, 700, 200}";
},
{
alignment = -1;
name = _pixel;
transform = "{1, 0, 0, 1, 700, 400}";
},
{
alignment = -1;
name = _pixel;
transform = "{1, 0, 0, 1, 100, 0}";
},
{
alignment = -1;
name = _pixel;
transform = "{1, 0, 0, 1, 100, 200}";
}
);
layerId = "6BDB1F0B-2B1B-407F-A896-AC70F68403C9";
name = "Color 2";
width = 800;
},
{
associatedMasterId = "EBA6CC13-AC95-47AE-A422-BCD5D8D196D3";
components = (
{
alignment = -1;
name = _pixel;
transform = "{1, 0, 0, 1, 200, 500}";
},
{
alignment = -1;
name = _pixel;
transform = "{1, 0, 0, 1, 200, 400}";
},
{
alignment = -1;
name = _pixel;
transform = "{1, 0, 0, 1, 200, 100}";
},
{
alignment = -1;
name = _pixel;
transform = "{1, 0, 0, 1, 100, 400}";
},
{
alignment = -1;
name = _pixel;
transform = "{1, 0, 0, 1, 600, 100}";
},
{
alignment = -1;
name = _pixel;
transform = "{1, 0, 0, 1, 500, 100}";
},
{
alignment = -1;
name = _pixel;
transform = "{1, 0, 0, 1, 500, 200}";
},
{
alignment = -1;
name = _pixel;
transform = "{1, 0, 0, 1, 500, 500}";
},
{
alignment = -1;
name = _pixel;
transform = "{1, 0, 0, 1, 600, 500}";
},
{
alignment = -1;
name = _pixel;
transform = "{1, 0, 0, 1, 300, 500}";
},
{
alignment = -1;
name = _pixel;
transform = "{1, 0, 0, 1, 400, 500}";
},
{
alignment = -1;
name = _pixel;
transform = "{1, 0, 0, 1, 600, 200}";
},
{
alignment = -1;
name = _pixel;
transform = "{1, 0, 0, 1, 300, 100}";
},
{
alignment = -1;
name = _pixel;
transform = "{1, 0, 0, 1, 400, 100}";
},
{
alignment = -1;
name = _pixel;
transform = "{1, 0, 0, 1, 700, 200}";
},
{
alignment = -1;
name = _pixel;
transform = "{1, 0, 0, 1, 300, 300}";
},
{
alignment = -1;
name = _pixel;
transform = "{1, 0, 0, 1, 400, 300}";
},
{
alignment = -1;
name = _pixel;
transform = "{1, 0, 0, 1, 500, 300}";
},
{
alignment = -1;
name = _pixel;
transform = "{1, 0, 0, 1, 200, 300}";
},
{
alignment = -1;
name = _pixel;
transform = "{1, 0, 0, 1, 600, 300}";
},
{
alignment = -1;
name = _pixel;
transform = "{1, 0, 0, 1, 700, 300}";
},
{
alignment = -1;
name = _pixel;
transform = "{1, 0, 0, 1, 700, 500}";
},
{
alignment = -1;
name = _pixel;
transform = "{1, 0, 0, 1, 100, 100}";
},
{
alignment = -1;
name = _pixel;
transform = "{1, 0, 0, 1, 100, 300}";
}
);
layerId = "DC2F6F49-0614-4506-825E-CA2227696917";
name = "Color 1";
width = 800;
},
{
associatedMasterId = "EBA6CC13-AC95-47AE-A422-BCD5D8D196D3";
components = (
{
alignment = -1;
name = _pixel;
transform = "{1, 0, 0, 1, 200, 600}";
},
{
alignment = -1;
name = _pixel;
transform = "{1, 0, 0, 1, 200, 500}";
},
{
alignment = -1;
name = _pixel;
transform = "{1, 0, 0, 1, 200, 200}";
},
{
alignment = -1;
name = _pixel;
transform = "{1, 0, 0, 1, 100, 500}";
},
{
alignment = -1;
name = _pixel;
transform = "{1, 0, 0, 1, 600, 200}";
},
{
alignment = -1;
name = _pixel;
transform = "{1, 0, 0, 1, 500, 200}";
},
{
alignment = -1;
name = _pixel;
transform = "{1, 0, 0, 1, 500, 300}";
},
{
alignment = -1;
name = _pixel;
transform = "{1, 0, 0, 1, 500, 600}";
},
{
alignment = -1;
name = _pixel;
transform = "{1, 0, 0, 1, 600, 600}";
},
{
alignment = -1;
name = _pixel;
transform = "{1, 0, 0, 1, 300, 600}";
},
{
alignment = -1;
name = _pixel;
transform = "{1, 0, 0, 1, 400, 600}";
},
{
alignment = -1;
name = _pixel;
transform = "{1, 0, 0, 1, 600, 300}";
},
{
alignment = -1;
name = _pixel;
transform = "{1, 0, 0, 1, 300, 200}";
},
{
alignment = -1;
name = _pixel;
transform = "{1, 0, 0, 1, 400, 200}";
},
{
alignment = -1;
name = _pixel;
transform = "{1, 0, 0, 1, 700, 300}";
},
{
alignment = -1;
name = _pixel;
transform = "{1, 0, 0, 1, 300, 400}";
},
{
alignment = -1;
name = _pixel;
transform = "{1, 0, 0, 1, 400, 400}";
},
{
alignment = -1;
name = _pixel;
transform = "{1, 0, 0, 1, 500, 400}";
},
{
alignment = -1;
name = _pixel;
transform = "{1, 0, 0, 1, 200, 400}";
},
{
alignment = -1;
name = _pixel;
transform = "{1, 0, 0, 1, 600, 400}";
},
{
alignment = -1;
name = _pixel;
transform = "{1, 0, 0, 1, 700, 400}";
},
{
alignment = -1;
name = _pixel;
transform = "{1, 0, 0, 1, 700, 600}";
},
{
alignment = -1;
name = _pixel;
transform = "{1, 0, 0, 1, 100, 200}";
},
{
alignment = -1;
name = _pixel;
transform = "{1, 0, 0, 1, 100, 400}";
}
);
layerId = "333BF133-DB41-4575-B232-D783EF459194";
name = "Color 0";
width = 800;
}
);
unicode = "0053,0073";
},
{
glyphname = T;
lastChange = "2020-02-16 00:31:19 +0000";
layers = (
{
layerId = "EBA6CC13-AC95-47AE-A422-BCD5D8D196D3";
paths = (
{
closed = 1;
nodes = (
"100 700 LINE",
"100 200 LINE",
"200 200 LINE",
"200 300 LINE",
"300 300 LINE",
"300 -100 LINE",
"600 -100 LINE",
"600 300 LINE",
"700 300 LINE",
"700 200 LINE",
"800 200 LINE",
"800 700 LINE"
);
}
);
width = 800;
},
{
associatedMasterId = "EBA6CC13-AC95-47AE-A422-BCD5D8D196D3";
components = (
{
alignment = -1;
name = _pixel;
transform = "{1, 0, 0, 1, 200, 300}";
},
{
alignment = -1;
name = _pixel;
transform = "{1, 0, 0, 1, 500, 100}";
},
{
alignment = -1;
name = _pixel;
transform = "{1, 0, 0, 1, 500, -100}";
},
{
alignment = -1;
name = _pixel;
transform = "{1, 0, 0, 1, 500, 0}";
},
{
alignment = -1;
name = _pixel;
transform = "{1, 0, 0, 1, 500, 200}";
},
{
alignment = -1;
name = _pixel;
transform = "{1, 0, 0, 1, 500, 300}";
},
{
alignment = -1;
name = _pixel;
transform = "{1, 0, 0, 1, 600, 300}";
},
{
alignment = -1;
name = _pixel;
transform = "{1, 0, 0, 1, 300, 0}";
},
{
alignment = -1;
name = _pixel;
transform = "{1, 0, 0, 1, 400, 0}";
},
{
alignment = -1;
name = _pixel;
transform = "{1, 0, 0, 1, 400, 300}";
},
{
alignment = -1;
name = _pixel;
transform = "{1, 0, 0, 1, 400, 200}";
},
{
alignment = -1;
name = _pixel;
transform = "{1, 0, 0, 1, 400, 100}";
},
{
alignment = -1;
name = _pixel;
transform = "{1, 0, 0, 1, 400, -100}";
},
{
alignment = -1;
name = _pixel;
transform = "{1, 0, 0, 1, 300, -100}";
},
{
alignment = -1;
name = _pixel;
transform = "{1, 0, 0, 1, 300, 100}";
},
{
alignment = -1;
name = _pixel;
transform = "{1, 0, 0, 1, 300, 200}";
},
{
alignment = -1;
name = _pixel;
transform = "{1, 0, 0, 1, 300, 300}";
},
{
alignment = -1;
name = _pixel;
transform = "{1, 0, 0, 1, 100, 300}";
},
{
alignment = -1;
name = _pixel;
transform = "{1, 0, 0, 1, 700, 300}";
},
{
alignment = -1;
name = _pixel;
transform = "{1, 0, 0, 1, 700, 200}";
},
{
alignment = -1;
name = _pixel;
transform = "{1, 0, 0, 1, 100, 200}";
}
);
layerId = "29895EA3-C0A8-407E-9700-9C421B21F5CB";
name = "Color 3";
width = 800;
},
{
associatedMasterId = "EBA6CC13-AC95-47AE-A422-BCD5D8D196D3";
components = (
{
alignment = -1;
name = _pixel;
transform = "{1, 0, 0, 1, 200, 400}";
},
{
alignment = -1;
name = _pixel;
transform = "{1, 0, 0, 1, 500, 200}";
},
{
alignment = -1;
name = _pixel;
transform = "{1, 0, 0, 1, 500, 0}";
},
{
alignment = -1;
name = _pixel;
transform = "{1, 0, 0, 1, 500, 100}";
},
{
alignment = -1;
name = _pixel;
transform = "{1, 0, 0, 1, 500, 300}";
},
{
alignment = -1;
name = _pixel;
transform = "{1, 0, 0, 1, 500, 400}";
},
{
alignment = -1;
name = _pixel;
transform = "{1, 0, 0, 1, 600, 400}";
},
{
alignment = -1;
name = _pixel;
transform = "{1, 0, 0, 1, 300, 100}";
},
{
alignment = -1;
name = _pixel;
transform = "{1, 0, 0, 1, 400, 100}";
},
{
alignment = -1;
name = _pixel;
transform = "{1, 0, 0, 1, 400, 400}";
},
{
alignment = -1;
name = _pixel;
transform = "{1, 0, 0, 1, 400, 300}";
},
{
alignment = -1;
name = _pixel;
transform = "{1, 0, 0, 1, 400, 200}";
},
{
alignment = -1;
name = _pixel;
transform = "{1, 0, 0, 1, 400, 0}";
},
{
alignment = -1;
name = _pixel;
transform = "{1, 0, 0, 1, 300, 0}";
},
{
alignment = -1;
name = _pixel;
transform = "{1, 0, 0, 1, 300, 200}";
},
{
alignment = -1;
name = _pixel;
transform = "{1, 0, 0, 1, 300, 300}";
},
{
alignment = -1;
name = _pixel;
transform = "{1, 0, 0, 1, 300, 400}";
},
{
alignment = -1;
name = _pixel;
transform = "{1, 0, 0, 1, 100, 400}";
},
{
alignment = -1;
name = _pixel;
transform = "{1, 0, 0, 1, 700, 400}";
},
{
alignment = -1;
name = _pixel;
transform = "{1, 0, 0, 1, 700, 300}";
},
{
alignment = -1;
name = _pixel;
transform = "{1, 0, 0, 1, 100, 300}";
}
);
layerId = "6BDB1F0B-2B1B-407F-A896-AC70F68403C9";
name = "Color 2";
width = 800;
},
{
associatedMasterId = "EBA6CC13-AC95-47AE-A422-BCD5D8D196D3";
components = (
{
alignment = -1;
name = _pixel;
transform = "{1, 0, 0, 1, 200, 500}";
},
{
alignment = -1;
name = _pixel;
transform = "{1, 0, 0, 1, 500, 300}";
},
{
alignment = -1;
name = _pixel;
transform = "{1, 0, 0, 1, 500, 100}";
},
{
alignment = -1;
name = _pixel;
transform = "{1, 0, 0, 1, 500, 200}";
},
{
alignment = -1;
name = _pixel;
transform = "{1, 0, 0, 1, 500, 400}";
},
{
alignment = -1;
name = _pixel;
transform = "{1, 0, 0, 1, 500, 500}";
},
{
alignment = -1;
name = _pixel;
transform = "{1, 0, 0, 1, 600, 500}";
},
{
alignment = -1;
name = _pixel;
transform = "{1, 0, 0, 1, 300, 200}";
},
{
alignment = -1;
name = _pixel;
transform = "{1, 0, 0, 1, 400, 200}";
},
{
alignment = -1;
name = _pixel;
transform = "{1, 0, 0, 1, 400, 500}";
},
{
alignment = -1;
name = _pixel;
transform = "{1, 0, 0, 1, 400, 400}";
},
{
alignment = -1;
name = _pixel;
transform = "{1, 0, 0, 1, 400, 300}";
},
{
alignment = -1;
name = _pixel;
transform = "{1, 0, 0, 1, 400, 100}";
},
{
alignment = -1;
name = _pixel;
transform = "{1, 0, 0, 1, 300, 100}";
},
{
alignment = -1;
name = _pixel;
transform = "{1, 0, 0, 1, 300, 300}";
},
{
alignment = -1;
name = _pixel;
transform = "{1, 0, 0, 1, 300, 400}";
},
{
alignment = -1;
name = _pixel;
transform = "{1, 0, 0, 1, 300, 500}";
},
{
alignment = -1;
name = _pixel;
transform = "{1, 0, 0, 1, 100, 500}";
},
{
alignment = -1;
name = _pixel;
transform = "{1, 0, 0, 1, 700, 500}";
},
{
alignment = -1;
name = _pixel;
transform = "{1, 0, 0, 1, 700, 400}";
},
{
alignment = -1;
name = _pixel;
transform = "{1, 0, 0, 1, 100, 400}";
}
);
layerId = "DC2F6F49-0614-4506-825E-CA2227696917";
name = "Color 1";
width = 800;
},
{
associatedMasterId = "EBA6CC13-AC95-47AE-A422-BCD5D8D196D3";
components = (
{
alignment = -1;
name = _pixel;
transform = "{1, 0, 0, 1, 200, 600}";
},
{
alignment = -1;
name = _pixel;
transform = "{1, 0, 0, 1, 500, 400}";
},
{
alignment = -1;
name = _pixel;
transform = "{1, 0, 0, 1, 500, 200}";
},
{
alignment = -1;
name = _pixel;
transform = "{1, 0, 0, 1, 500, 300}";
},
{
alignment = -1;
name = _pixel;
transform = "{1, 0, 0, 1, 500, 500}";
},
{
alignment = -1;
name = _pixel;
transform = "{1, 0, 0, 1, 500, 600}";
},
{
alignment = -1;
name = _pixel;
transform = "{1, 0, 0, 1, 600, 600}";
},
{
alignment = -1;
name = _pixel;
transform = "{1, 0, 0, 1, 300, 300}";
},
{
alignment = -1;
name = _pixel;
transform = "{1, 0, 0, 1, 400, 300}";
},
{
alignment = -1;
name = _pixel;
transform = "{1, 0, 0, 1, 400, 600}";
},
{
alignment = -1;
name = _pixel;
transform = "{1, 0, 0, 1, 400, 500}";
},
{
alignment = -1;
name = _pixel;
transform = "{1, 0, 0, 1, 400, 400}";
},
{
alignment = -1;
name = _pixel;
transform = "{1, 0, 0, 1, 400, 200}";
},
{
alignment = -1;
name = _pixel;
transform = "{1, 0, 0, 1, 300, 200}";
},
{
alignment = -1;
name = _pixel;
transform = "{1, 0, 0, 1, 300, 400}";
},
{
alignment = -1;
name = _pixel;
transform = "{1, 0, 0, 1, 300, 500}";
},
{
alignment = -1;
name = _pixel;
transform = "{1, 0, 0, 1, 300, 600}";
},
{
alignment = -1;
name = _pixel;
transform = "{1, 0, 0, 1, 100, 600}";
},
{
alignment = -1;
name = _pixel;
transform = "{1, 0, 0, 1, 700, 600}";
},
{
alignment = -1;
name = _pixel;
transform = "{1, 0, 0, 1, 700, 500}";
},
{
alignment = -1;
name = _pixel;
transform = "{1, 0, 0, 1, 100, 500}";
}
);
layerId = "333BF133-DB41-4575-B232-D783EF459194";
name = "Color 0";
width = 800;
}
);
unicode = "0054,0074";
},
{
glyphname = U;
lastChange = "2020-02-16 00:31:19 +0000";
layers = (
{
layerId = "EBA6CC13-AC95-47AE-A422-BCD5D8D196D3";
paths = (
{
closed = 1;
nodes = (
"500 700 LINE",
"500 300 LINE",
"300 300 LINE",
"300 700 LINE",
"100 700 LINE",
"100 0 LINE",
"200 0 LINE",
"200 -100 LINE",
"700 -100 LINE",
"700 0 LINE",
"800 0 LINE",
"800 700 LINE"
);
}
);
width = 800;
},
{
associatedMasterId = "EBA6CC13-AC95-47AE-A422-BCD5D8D196D3";
components = (
{
alignment = -1;
name = _pixel;
transform = "{1, 0, 0, 1, 200, 300}";
},
{
alignment = -1;
name = _pixel;
transform = "{1, 0, 0, 1, 200, 200}";
},
{
alignment = -1;
name = _pixel;
transform = "{1, 0, 0, 1, 200, 100}";
},
{
alignment = -1;
name = _pixel;
transform = "{1, 0, 0, 1, 200, 0}";
},
{
alignment = -1;
name = _pixel;
transform = "{1, 0, 0, 1, 200, -100}";
},
{
alignment = -1;
name = _pixel;
transform = "{1, 0, 0, 1, 100, 0}";
},
{
alignment = -1;
name = _pixel;
transform = "{1, 0, 0, 1, 100, 100}";
},
{
alignment = -1;
name = _pixel;
transform = "{1, 0, 0, 1, 100, 200}";
},
{
alignment = -1;
name = _pixel;
transform = "{1, 0, 0, 1, 500, 100}";
},
{
alignment = -1;
name = _pixel;
transform = "{1, 0, 0, 1, 700, 200}";
},
{
alignment = -1;
name = _pixel;
transform = "{1, 0, 0, 1, 600, -100}";
},
{
alignment = -1;
name = _pixel;
transform = "{1, 0, 0, 1, 500, -100}";
},
{
alignment = -1;
name = _pixel;
transform = "{1, 0, 0, 1, 500, 0}";
},
{
alignment = -1;
name = _pixel;
transform = "{1, 0, 0, 1, 500, 200}";
},
{
alignment = -1;
name = _pixel;
transform = "{1, 0, 0, 1, 500, 300}";
},
{
alignment = -1;
name = _pixel;
transform = "{1, 0, 0, 1, 600, 300}";
},
{
alignment = -1;
name = _pixel;
transform = "{1, 0, 0, 1, 600, 200}";
},
{
alignment = -1;
name = _pixel;
transform = "{1, 0, 0, 1, 600, 100}";
},
{
alignment = -1;
name = _pixel;
transform = "{1, 0, 0, 1, 700, 100}";
},
{
alignment = -1;
name = _pixel;
transform = "{1, 0, 0, 1, 600, 0}";
},
{
alignment = -1;
name = _pixel;
transform = "{1, 0, 0, 1, 300, -100}";
},
{
alignment = -1;
name = _pixel;
transform = "{1, 0, 0, 1, 400, -100}";
},
{
alignment = -1;
name = _pixel;
transform = "{1, 0, 0, 1, 700, 0}";
},
{
alignment = -1;
name = _pixel;
transform = "{1, 0, 0, 1, 100, 300}";
},
{
alignment = -1;
name = _pixel;
transform = "{1, 0, 0, 1, 700, 300}";
}
);
layerId = "29895EA3-C0A8-407E-9700-9C421B21F5CB";
name = "Color 3";
width = 800;
},
{
associatedMasterId = "EBA6CC13-AC95-47AE-A422-BCD5D8D196D3";
components = (
{
alignment = -1;
name = _pixel;
transform = "{1, 0, 0, 1, 200, 400}";
},
{
alignment = -1;
name = _pixel;
transform = "{1, 0, 0, 1, 200, 300}";
},
{
alignment = -1;
name = _pixel;
transform = "{1, 0, 0, 1, 200, 200}";
},
{
alignment = -1;
name = _pixel;
transform = "{1, 0, 0, 1, 200, 100}";
},
{
alignment = -1;
name = _pixel;
transform = "{1, 0, 0, 1, 200, 0}";
},
{
alignment = -1;
name = _pixel;
transform = "{1, 0, 0, 1, 100, 100}";
},
{
alignment = -1;
name = _pixel;
transform = "{1, 0, 0, 1, 100, 200}";
},
{
alignment = -1;
name = _pixel;
transform = "{1, 0, 0, 1, 100, 300}";
},
{
alignment = -1;
name = _pixel;
transform = "{1, 0, 0, 1, 500, 200}";
},
{
alignment = -1;
name = _pixel;
transform = "{1, 0, 0, 1, 700, 300}";
},
{
alignment = -1;
name = _pixel;
transform = "{1, 0, 0, 1, 600, 0}";
},
{
alignment = -1;
name = _pixel;
transform = "{1, 0, 0, 1, 500, 0}";
},
{
alignment = -1;
name = _pixel;
transform = "{1, 0, 0, 1, 500, 100}";
},
{
alignment = -1;
name = _pixel;
transform = "{1, 0, 0, 1, 500, 300}";
},
{
alignment = -1;
name = _pixel;
transform = "{1, 0, 0, 1, 500, 400}";
},
{
alignment = -1;
name = _pixel;
transform = "{1, 0, 0, 1, 600, 400}";
},
{
alignment = -1;
name = _pixel;
transform = "{1, 0, 0, 1, 600, 300}";
},
{
alignment = -1;
name = _pixel;
transform = "{1, 0, 0, 1, 600, 200}";
},
{
alignment = -1;
name = _pixel;
transform = "{1, 0, 0, 1, 700, 200}";
},
{
alignment = -1;
name = _pixel;
transform = "{1, 0, 0, 1, 600, 100}";
},
{
alignment = -1;
name = _pixel;
transform = "{1, 0, 0, 1, 300, 0}";
},
{
alignment = -1;
name = _pixel;
transform = "{1, 0, 0, 1, 400, 0}";
},
{
alignment = -1;
name = _pixel;
transform = "{1, 0, 0, 1, 700, 100}";
},
{
alignment = -1;
name = _pixel;
transform = "{1, 0, 0, 1, 100, 400}";
},
{
alignment = -1;
name = _pixel;
transform = "{1, 0, 0, 1, 700, 400}";
}
);
layerId = "6BDB1F0B-2B1B-407F-A896-AC70F68403C9";
name = "Color 2";
width = 800;
},
{
associatedMasterId = "EBA6CC13-AC95-47AE-A422-BCD5D8D196D3";
components = (
{
alignment = -1;
name = _pixel;
transform = "{1, 0, 0, 1, 200, 500}";
},
{
alignment = -1;
name = _pixel;
transform = "{1, 0, 0, 1, 200, 400}";
},
{
alignment = -1;
name = _pixel;
transform = "{1, 0, 0, 1, 200, 300}";
},
{
alignment = -1;
name = _pixel;
transform = "{1, 0, 0, 1, 200, 200}";
},
{
alignment = -1;
name = _pixel;
transform = "{1, 0, 0, 1, 200, 100}";
},
{
alignment = -1;
name = _pixel;
transform = "{1, 0, 0, 1, 100, 200}";
},
{
alignment = -1;
name = _pixel;
transform = "{1, 0, 0, 1, 100, 300}";
},
{
alignment = -1;
name = _pixel;
transform = "{1, 0, 0, 1, 100, 400}";
},
{
alignment = -1;
name = _pixel;
transform = "{1, 0, 0, 1, 500, 300}";
},
{
alignment = -1;
name = _pixel;
transform = "{1, 0, 0, 1, 700, 400}";
},
{
alignment = -1;
name = _pixel;
transform = "{1, 0, 0, 1, 600, 100}";
},
{
alignment = -1;
name = _pixel;
transform = "{1, 0, 0, 1, 500, 100}";
},
{
alignment = -1;
name = _pixel;
transform = "{1, 0, 0, 1, 500, 200}";
},
{
alignment = -1;
name = _pixel;
transform = "{1, 0, 0, 1, 500, 400}";
},
{
alignment = -1;
name = _pixel;
transform = "{1, 0, 0, 1, 500, 500}";
},
{
alignment = -1;
name = _pixel;
transform = "{1, 0, 0, 1, 600, 500}";
},
{
alignment = -1;
name = _pixel;
transform = "{1, 0, 0, 1, 600, 400}";
},
{
alignment = -1;
name = _pixel;
transform = "{1, 0, 0, 1, 600, 300}";
},
{
alignment = -1;
name = _pixel;
transform = "{1, 0, 0, 1, 700, 300}";
},
{
alignment = -1;
name = _pixel;
transform = "{1, 0, 0, 1, 600, 200}";
},
{
alignment = -1;
name = _pixel;
transform = "{1, 0, 0, 1, 300, 100}";
},
{
alignment = -1;
name = _pixel;
transform = "{1, 0, 0, 1, 400, 100}";
},
{
alignment = -1;
name = _pixel;
transform = "{1, 0, 0, 1, 700, 200}";
},
{
alignment = -1;
name = _pixel;
transform = "{1, 0, 0, 1, 100, 500}";
},
{
alignment = -1;
name = _pixel;
transform = "{1, 0, 0, 1, 700, 500}";
}
);
layerId = "DC2F6F49-0614-4506-825E-CA2227696917";
name = "Color 1";
width = 800;
},
{
associatedMasterId = "EBA6CC13-AC95-47AE-A422-BCD5D8D196D3";
components = (
{
alignment = -1;
name = _pixel;
transform = "{1, 0, 0, 1, 200, 600}";
},
{
alignment = -1;
name = _pixel;
transform = "{1, 0, 0, 1, 200, 500}";
},
{
alignment = -1;
name = _pixel;
transform = "{1, 0, 0, 1, 200, 400}";
},
{
alignment = -1;
name = _pixel;
transform = "{1, 0, 0, 1, 200, 300}";
},
{
alignment = -1;
name = _pixel;
transform = "{1, 0, 0, 1, 200, 200}";
},
{
alignment = -1;
name = _pixel;
transform = "{1, 0, 0, 1, 100, 300}";
},
{
alignment = -1;
name = _pixel;
transform = "{1, 0, 0, 1, 100, 400}";
},
{
alignment = -1;
name = _pixel;
transform = "{1, 0, 0, 1, 100, 500}";
},
{
alignment = -1;
name = _pixel;
transform = "{1, 0, 0, 1, 500, 400}";
},
{
alignment = -1;
name = _pixel;
transform = "{1, 0, 0, 1, 700, 500}";
},
{
alignment = -1;
name = _pixel;
transform = "{1, 0, 0, 1, 600, 200}";
},
{
alignment = -1;
name = _pixel;
transform = "{1, 0, 0, 1, 500, 200}";
},
{
alignment = -1;
name = _pixel;
transform = "{1, 0, 0, 1, 500, 300}";
},
{
alignment = -1;
name = _pixel;
transform = "{1, 0, 0, 1, 500, 500}";
},
{
alignment = -1;
name = _pixel;
transform = "{1, 0, 0, 1, 500, 600}";
},
{
alignment = -1;
name = _pixel;
transform = "{1, 0, 0, 1, 600, 600}";
},
{
alignment = -1;
name = _pixel;
transform = "{1, 0, 0, 1, 600, 500}";
},
{
alignment = -1;
name = _pixel;
transform = "{1, 0, 0, 1, 600, 400}";
},
{
alignment = -1;
name = _pixel;
transform = "{1, 0, 0, 1, 700, 400}";
},
{
alignment = -1;
name = _pixel;
transform = "{1, 0, 0, 1, 600, 300}";
},
{
alignment = -1;
name = _pixel;
transform = "{1, 0, 0, 1, 300, 200}";
},
{
alignment = -1;
name = _pixel;
transform = "{1, 0, 0, 1, 400, 200}";
},
{
alignment = -1;
name = _pixel;
transform = "{1, 0, 0, 1, 700, 300}";
},
{
alignment = -1;
name = _pixel;
transform = "{1, 0, 0, 1, 100, 600}";
},
{
alignment = -1;
name = _pixel;
transform = "{1, 0, 0, 1, 700, 600}";
}
);
layerId = "333BF133-DB41-4575-B232-D783EF459194";
name = "Color 0";
width = 800;
}
);
unicode = "0055,0075";
},
{
glyphname = V;
lastChange = "2020-02-16 00:31:19 +0000";
layers = (
{
layerId = "EBA6CC13-AC95-47AE-A422-BCD5D8D196D3";
paths = (
{
closed = 1;
nodes = (
"500 700 LINE",
"500 300 LINE",
"300 300 LINE",
"300 700 LINE",
"100 700 LINE",
"100 -100 LINE",
"600 -100 LINE",
"600 0 LINE",
"700 0 LINE",
"700 100 LINE",
"800 100 LINE",
"800 700 LINE"
);
}
);
width = 800;
},
{
associatedMasterId = "EBA6CC13-AC95-47AE-A422-BCD5D8D196D3";
components = (
{
alignment = -1;
name = _pixel;
transform = "{1, 0, 0, 1, 200, 300}";
},
{
alignment = -1;
name = _pixel;
transform = "{1, 0, 0, 1, 200, 200}";
},
{
alignment = -1;
name = _pixel;
transform = "{1, 0, 0, 1, 200, 100}";
},
{
alignment = -1;
name = _pixel;
transform = "{1, 0, 0, 1, 200, 0}";
},
{
alignment = -1;
name = _pixel;
transform = "{1, 0, 0, 1, 200, -100}";
},
{
alignment = -1;
name = _pixel;
transform = "{1, 0, 0, 1, 100, 0}";
},
{
alignment = -1;
name = _pixel;
transform = "{1, 0, 0, 1, 100, 100}";
},
{
alignment = -1;
name = _pixel;
transform = "{1, 0, 0, 1, 100, 200}";
},
{
alignment = -1;
name = _pixel;
transform = "{1, 0, 0, 1, 500, 100}";
},
{
alignment = -1;
name = _pixel;
transform = "{1, 0, 0, 1, 700, 200}";
},
{
alignment = -1;
name = _pixel;
transform = "{1, 0, 0, 1, 500, -100}";
},
{
alignment = -1;
name = _pixel;
transform = "{1, 0, 0, 1, 500, 0}";
},
{
alignment = -1;
name = _pixel;
transform = "{1, 0, 0, 1, 500, 200}";
},
{
alignment = -1;
name = _pixel;
transform = "{1, 0, 0, 1, 500, 300}";
},
{
alignment = -1;
name = _pixel;
transform = "{1, 0, 0, 1, 600, 300}";
},
{
alignment = -1;
name = _pixel;
transform = "{1, 0, 0, 1, 600, 200}";
},
{
alignment = -1;
name = _pixel;
transform = "{1, 0, 0, 1, 600, 100}";
},
{
alignment = -1;
name = _pixel;
transform = "{1, 0, 0, 1, 700, 100}";
},
{
alignment = -1;
name = _pixel;
transform = "{1, 0, 0, 1, 600, 0}";
},
{
alignment = -1;
name = _pixel;
transform = "{1, 0, 0, 1, 300, -100}";
},
{
alignment = -1;
name = _pixel;
transform = "{1, 0, 0, 1, 400, -100}";
},
{
alignment = -1;
name = _pixel;
transform = "{1, 0, 0, 1, 100, 300}";
},
{
alignment = -1;
name = _pixel;
transform = "{1, 0, 0, 1, 700, 300}";
},
{
alignment = -1;
name = _pixel;
transform = "{1, 0, 0, 1, 100, -100}";
}
);
layerId = "29895EA3-C0A8-407E-9700-9C421B21F5CB";
name = "Color 3";
width = 800;
},
{
associatedMasterId = "EBA6CC13-AC95-47AE-A422-BCD5D8D196D3";
components = (
{
alignment = -1;
name = _pixel;
transform = "{1, 0, 0, 1, 200, 400}";
},
{
alignment = -1;
name = _pixel;
transform = "{1, 0, 0, 1, 200, 300}";
},
{
alignment = -1;
name = _pixel;
transform = "{1, 0, 0, 1, 200, 200}";
},
{
alignment = -1;
name = _pixel;
transform = "{1, 0, 0, 1, 200, 100}";
},
{
alignment = -1;
name = _pixel;
transform = "{1, 0, 0, 1, 200, 0}";
},
{
alignment = -1;
name = _pixel;
transform = "{1, 0, 0, 1, 100, 100}";
},
{
alignment = -1;
name = _pixel;
transform = "{1, 0, 0, 1, 100, 200}";
},
{
alignment = -1;
name = _pixel;
transform = "{1, 0, 0, 1, 100, 300}";
},
{
alignment = -1;
name = _pixel;
transform = "{1, 0, 0, 1, 500, 200}";
},
{
alignment = -1;
name = _pixel;
transform = "{1, 0, 0, 1, 700, 300}";
},
{
alignment = -1;
name = _pixel;
transform = "{1, 0, 0, 1, 500, 0}";
},
{
alignment = -1;
name = _pixel;
transform = "{1, 0, 0, 1, 500, 100}";
},
{
alignment = -1;
name = _pixel;
transform = "{1, 0, 0, 1, 500, 300}";
},
{
alignment = -1;
name = _pixel;
transform = "{1, 0, 0, 1, 500, 400}";
},
{
alignment = -1;
name = _pixel;
transform = "{1, 0, 0, 1, 600, 400}";
},
{
alignment = -1;
name = _pixel;
transform = "{1, 0, 0, 1, 600, 300}";
},
{
alignment = -1;
name = _pixel;
transform = "{1, 0, 0, 1, 600, 200}";
},
{
alignment = -1;
name = _pixel;
transform = "{1, 0, 0, 1, 700, 200}";
},
{
alignment = -1;
name = _pixel;
transform = "{1, 0, 0, 1, 600, 100}";
},
{
alignment = -1;
name = _pixel;
transform = "{1, 0, 0, 1, 300, 0}";
},
{
alignment = -1;
name = _pixel;
transform = "{1, 0, 0, 1, 400, 0}";
},
{
alignment = -1;
name = _pixel;
transform = "{1, 0, 0, 1, 100, 400}";
},
{
alignment = -1;
name = _pixel;
transform = "{1, 0, 0, 1, 700, 400}";
},
{
alignment = -1;
name = _pixel;
transform = "{1, 0, 0, 1, 100, 0}";
}
);
layerId = "6BDB1F0B-2B1B-407F-A896-AC70F68403C9";
name = "Color 2";
width = 800;
},
{
associatedMasterId = "EBA6CC13-AC95-47AE-A422-BCD5D8D196D3";
components = (
{
alignment = -1;
name = _pixel;
transform = "{1, 0, 0, 1, 200, 500}";
},
{
alignment = -1;
name = _pixel;
transform = "{1, 0, 0, 1, 200, 400}";
},
{
alignment = -1;
name = _pixel;
transform = "{1, 0, 0, 1, 200, 300}";
},
{
alignment = -1;
name = _pixel;
transform = "{1, 0, 0, 1, 200, 200}";
},
{
alignment = -1;
name = _pixel;
transform = "{1, 0, 0, 1, 200, 100}";
},
{
alignment = -1;
name = _pixel;
transform = "{1, 0, 0, 1, 100, 200}";
},
{
alignment = -1;
name = _pixel;
transform = "{1, 0, 0, 1, 100, 300}";
},
{
alignment = -1;
name = _pixel;
transform = "{1, 0, 0, 1, 100, 400}";
},
{
alignment = -1;
name = _pixel;
transform = "{1, 0, 0, 1, 500, 300}";
},
{
alignment = -1;
name = _pixel;
transform = "{1, 0, 0, 1, 700, 400}";
},
{
alignment = -1;
name = _pixel;
transform = "{1, 0, 0, 1, 500, 100}";
},
{
alignment = -1;
name = _pixel;
transform = "{1, 0, 0, 1, 500, 200}";
},
{
alignment = -1;
name = _pixel;
transform = "{1, 0, 0, 1, 500, 400}";
},
{
alignment = -1;
name = _pixel;
transform = "{1, 0, 0, 1, 500, 500}";
},
{
alignment = -1;
name = _pixel;
transform = "{1, 0, 0, 1, 600, 500}";
},
{
alignment = -1;
name = _pixel;
transform = "{1, 0, 0, 1, 600, 400}";
},
{
alignment = -1;
name = _pixel;
transform = "{1, 0, 0, 1, 600, 300}";
},
{
alignment = -1;
name = _pixel;
transform = "{1, 0, 0, 1, 700, 300}";
},
{
alignment = -1;
name = _pixel;
transform = "{1, 0, 0, 1, 600, 200}";
},
{
alignment = -1;
name = _pixel;
transform = "{1, 0, 0, 1, 300, 100}";
},
{
alignment = -1;
name = _pixel;
transform = "{1, 0, 0, 1, 400, 100}";
},
{
alignment = -1;
name = _pixel;
transform = "{1, 0, 0, 1, 100, 500}";
},
{
alignment = -1;
name = _pixel;
transform = "{1, 0, 0, 1, 700, 500}";
},
{
alignment = -1;
name = _pixel;
transform = "{1, 0, 0, 1, 100, 100}";
}
);
layerId = "DC2F6F49-0614-4506-825E-CA2227696917";
name = "Color 1";
width = 800;
},
{
associatedMasterId = "EBA6CC13-AC95-47AE-A422-BCD5D8D196D3";
components = (
{
alignment = -1;
name = _pixel;
transform = "{1, 0, 0, 1, 200, 600}";
},
{
alignment = -1;
name = _pixel;
transform = "{1, 0, 0, 1, 200, 500}";
},
{
alignment = -1;
name = _pixel;
transform = "{1, 0, 0, 1, 200, 400}";
},
{
alignment = -1;
name = _pixel;
transform = "{1, 0, 0, 1, 200, 300}";
},
{
alignment = -1;
name = _pixel;
transform = "{1, 0, 0, 1, 200, 200}";
},
{
alignment = -1;
name = _pixel;
transform = "{1, 0, 0, 1, 100, 300}";
},
{
alignment = -1;
name = _pixel;
transform = "{1, 0, 0, 1, 100, 400}";
},
{
alignment = -1;
name = _pixel;
transform = "{1, 0, 0, 1, 100, 500}";
},
{
alignment = -1;
name = _pixel;
transform = "{1, 0, 0, 1, 500, 400}";
},
{
alignment = -1;
name = _pixel;
transform = "{1, 0, 0, 1, 700, 500}";
},
{
alignment = -1;
name = _pixel;
transform = "{1, 0, 0, 1, 500, 200}";
},
{
alignment = -1;
name = _pixel;
transform = "{1, 0, 0, 1, 500, 300}";
},
{
alignment = -1;
name = _pixel;
transform = "{1, 0, 0, 1, 500, 500}";
},
{
alignment = -1;
name = _pixel;
transform = "{1, 0, 0, 1, 500, 600}";
},
{
alignment = -1;
name = _pixel;
transform = "{1, 0, 0, 1, 600, 600}";
},
{
alignment = -1;
name = _pixel;
transform = "{1, 0, 0, 1, 600, 500}";
},
{
alignment = -1;
name = _pixel;
transform = "{1, 0, 0, 1, 600, 400}";
},
{
alignment = -1;
name = _pixel;
transform = "{1, 0, 0, 1, 700, 400}";
},
{
alignment = -1;
name = _pixel;
transform = "{1, 0, 0, 1, 600, 300}";
},
{
alignment = -1;
name = _pixel;
transform = "{1, 0, 0, 1, 300, 200}";
},
{
alignment = -1;
name = _pixel;
transform = "{1, 0, 0, 1, 400, 200}";
},
{
alignment = -1;
name = _pixel;
transform = "{1, 0, 0, 1, 100, 600}";
},
{
alignment = -1;
name = _pixel;
transform = "{1, 0, 0, 1, 700, 600}";
},
{
alignment = -1;
name = _pixel;
transform = "{1, 0, 0, 1, 100, 200}";
}
);
layerId = "333BF133-DB41-4575-B232-D783EF459194";
name = "Color 0";
width = 800;
}
);
unicode = "0056,0076";
},
{
glyphname = W;
lastChange = "2020-02-16 00:31:19 +0000";
layers = (
{
layerId = "EBA6CC13-AC95-47AE-A422-BCD5D8D196D3";
paths = (
{
closed = 1;
nodes = (
"500 700 LINE",
"500 300 LINE",
"400 300 LINE",
"400 600 LINE",
"300 600 LINE",
"300 300 LINE",
"200 300 LINE",
"200 700 LINE",
"100 700 LINE",
"100 0 LINE",
"200 0 LINE",
"200 -100 LINE",
"300 -100 LINE",
"300 0 LINE",
"400 0 LINE",
"400 -100 LINE",
"700 -100 LINE",
"700 0 LINE",
"800 0 LINE",
"800 700 LINE"
);
}
);
width = 800;
},
{
associatedMasterId = "EBA6CC13-AC95-47AE-A422-BCD5D8D196D3";
components = (
{
alignment = -1;
name = _pixel;
transform = "{1, 0, 0, 1, 200, -100}";
},
{
alignment = -1;
name = _pixel;
transform = "{1, 0, 0, 1, 100, 0}";
},
{
alignment = -1;
name = _pixel;
transform = "{1, 0, 0, 1, 100, 100}";
},
{
alignment = -1;
name = _pixel;
transform = "{1, 0, 0, 1, 100, 200}";
},
{
alignment = -1;
name = _pixel;
transform = "{1, 0, 0, 1, 500, 100}";
},
{
alignment = -1;
name = _pixel;
transform = "{1, 0, 0, 1, 700, 200}";
},
{
alignment = -1;
name = _pixel;
transform = "{1, 0, 0, 1, 600, -100}";
},
{
alignment = -1;
name = _pixel;
transform = "{1, 0, 0, 1, 500, -100}";
},
{
alignment = -1;
name = _pixel;
transform = "{1, 0, 0, 1, 500, 0}";
},
{
alignment = -1;
name = _pixel;
transform = "{1, 0, 0, 1, 500, 200}";
},
{
alignment = -1;
name = _pixel;
transform = "{1, 0, 0, 1, 500, 300}";
},
{
alignment = -1;
name = _pixel;
transform = "{1, 0, 0, 1, 600, 300}";
},
{
alignment = -1;
name = _pixel;
transform = "{1, 0, 0, 1, 600, 200}";
},
{
alignment = -1;
name = _pixel;
transform = "{1, 0, 0, 1, 600, 100}";
},
{
alignment = -1;
name = _pixel;
transform = "{1, 0, 0, 1, 700, 100}";
},
{
alignment = -1;
name = _pixel;
transform = "{1, 0, 0, 1, 600, 0}";
},
{
alignment = -1;
name = _pixel;
transform = "{1, 0, 0, 1, 400, -100}";
},
{
alignment = -1;
name = _pixel;
transform = "{1, 0, 0, 1, 700, 0}";
},
{
alignment = -1;
name = _pixel;
transform = "{1, 0, 0, 1, 100, 300}";
},
{
alignment = -1;
name = _pixel;
transform = "{1, 0, 0, 1, 700, 300}";
},
{
alignment = -1;
name = _pixel;
transform = "{1, 0, 0, 1, 300, 100}";
},
{
alignment = -1;
name = _pixel;
transform = "{1, 0, 0, 1, 300, 0}";
}
);
layerId = "29895EA3-C0A8-407E-9700-9C421B21F5CB";
name = "Color 3";
width = 800;
},
{
associatedMasterId = "EBA6CC13-AC95-47AE-A422-BCD5D8D196D3";
components = (
{
alignment = -1;
name = _pixel;
transform = "{1, 0, 0, 1, 200, 0}";
},
{
alignment = -1;
name = _pixel;
transform = "{1, 0, 0, 1, 100, 100}";
},
{
alignment = -1;
name = _pixel;
transform = "{1, 0, 0, 1, 100, 200}";
},
{
alignment = -1;
name = _pixel;
transform = "{1, 0, 0, 1, 100, 300}";
},
{
alignment = -1;
name = _pixel;
transform = "{1, 0, 0, 1, 500, 200}";
},
{
alignment = -1;
name = _pixel;
transform = "{1, 0, 0, 1, 700, 300}";
},
{
alignment = -1;
name = _pixel;
transform = "{1, 0, 0, 1, 600, 0}";
},
{
alignment = -1;
name = _pixel;
transform = "{1, 0, 0, 1, 500, 0}";
},
{
alignment = -1;
name = _pixel;
transform = "{1, 0, 0, 1, 500, 100}";
},
{
alignment = -1;
name = _pixel;
transform = "{1, 0, 0, 1, 500, 300}";
},
{
alignment = -1;
name = _pixel;
transform = "{1, 0, 0, 1, 500, 400}";
},
{
alignment = -1;
name = _pixel;
transform = "{1, 0, 0, 1, 600, 400}";
},
{
alignment = -1;
name = _pixel;
transform = "{1, 0, 0, 1, 600, 300}";
},
{
alignment = -1;
name = _pixel;
transform = "{1, 0, 0, 1, 600, 200}";
},
{
alignment = -1;
name = _pixel;
transform = "{1, 0, 0, 1, 700, 200}";
},
{
alignment = -1;
name = _pixel;
transform = "{1, 0, 0, 1, 600, 100}";
},
{
alignment = -1;
name = _pixel;
transform = "{1, 0, 0, 1, 400, 0}";
},
{
alignment = -1;
name = _pixel;
transform = "{1, 0, 0, 1, 700, 100}";
},
{
alignment = -1;
name = _pixel;
transform = "{1, 0, 0, 1, 100, 400}";
},
{
alignment = -1;
name = _pixel;
transform = "{1, 0, 0, 1, 700, 400}";
},
{
alignment = -1;
name = _pixel;
transform = "{1, 0, 0, 1, 300, 200}";
},
{
alignment = -1;
name = _pixel;
transform = "{1, 0, 0, 1, 300, 100}";
}
);
layerId = "6BDB1F0B-2B1B-407F-A896-AC70F68403C9";
name = "Color 2";
width = 800;
},
{
associatedMasterId = "EBA6CC13-AC95-47AE-A422-BCD5D8D196D3";
components = (
{
alignment = -1;
name = _pixel;
transform = "{1, 0, 0, 1, 200, 100}";
},
{
alignment = -1;
name = _pixel;
transform = "{1, 0, 0, 1, 100, 200}";
},
{
alignment = -1;
name = _pixel;
transform = "{1, 0, 0, 1, 100, 300}";
},
{
alignment = -1;
name = _pixel;
transform = "{1, 0, 0, 1, 100, 400}";
},
{
alignment = -1;
name = _pixel;
transform = "{1, 0, 0, 1, 500, 300}";
},
{
alignment = -1;
name = _pixel;
transform = "{1, 0, 0, 1, 700, 400}";
},
{
alignment = -1;
name = _pixel;
transform = "{1, 0, 0, 1, 600, 100}";
},
{
alignment = -1;
name = _pixel;
transform = "{1, 0, 0, 1, 500, 100}";
},
{
alignment = -1;
name = _pixel;
transform = "{1, 0, 0, 1, 500, 200}";
},
{
alignment = -1;
name = _pixel;
transform = "{1, 0, 0, 1, 500, 400}";
},
{
alignment = -1;
name = _pixel;
transform = "{1, 0, 0, 1, 500, 500}";
},
{
alignment = -1;
name = _pixel;
transform = "{1, 0, 0, 1, 600, 500}";
},
{
alignment = -1;
name = _pixel;
transform = "{1, 0, 0, 1, 600, 400}";
},
{
alignment = -1;
name = _pixel;
transform = "{1, 0, 0, 1, 600, 300}";
},
{
alignment = -1;
name = _pixel;
transform = "{1, 0, 0, 1, 700, 300}";
},
{
alignment = -1;
name = _pixel;
transform = "{1, 0, 0, 1, 600, 200}";
},
{
alignment = -1;
name = _pixel;
transform = "{1, 0, 0, 1, 400, 100}";
},
{
alignment = -1;
name = _pixel;
transform = "{1, 0, 0, 1, 700, 200}";
},
{
alignment = -1;
name = _pixel;
transform = "{1, 0, 0, 1, 100, 500}";
},
{
alignment = -1;
name = _pixel;
transform = "{1, 0, 0, 1, 700, 500}";
},
{
alignment = -1;
name = _pixel;
transform = "{1, 0, 0, 1, 300, 300}";
},
{
alignment = -1;
name = _pixel;
transform = "{1, 0, 0, 1, 300, 200}";
}
);
layerId = "DC2F6F49-0614-4506-825E-CA2227696917";
name = "Color 1";
width = 800;
},
{
associatedMasterId = "EBA6CC13-AC95-47AE-A422-BCD5D8D196D3";
components = (
{
alignment = -1;
name = _pixel;
transform = "{1, 0, 0, 1, 200, 200}";
},
{
alignment = -1;
name = _pixel;
transform = "{1, 0, 0, 1, 100, 300}";
},
{
alignment = -1;
name = _pixel;
transform = "{1, 0, 0, 1, 100, 400}";
},
{
alignment = -1;
name = _pixel;
transform = "{1, 0, 0, 1, 100, 500}";
},
{
alignment = -1;
name = _pixel;
transform = "{1, 0, 0, 1, 500, 400}";
},
{
alignment = -1;
name = _pixel;
transform = "{1, 0, 0, 1, 700, 500}";
},
{
alignment = -1;
name = _pixel;
transform = "{1, 0, 0, 1, 600, 200}";
},
{
alignment = -1;
name = _pixel;
transform = "{1, 0, 0, 1, 500, 200}";
},
{
alignment = -1;
name = _pixel;
transform = "{1, 0, 0, 1, 500, 300}";
},
{
alignment = -1;
name = _pixel;
transform = "{1, 0, 0, 1, 500, 500}";
},
{
alignment = -1;
name = _pixel;
transform = "{1, 0, 0, 1, 500, 600}";
},
{
alignment = -1;
name = _pixel;
transform = "{1, 0, 0, 1, 600, 600}";
},
{
alignment = -1;
name = _pixel;
transform = "{1, 0, 0, 1, 600, 500}";
},
{
alignment = -1;
name = _pixel;
transform = "{1, 0, 0, 1, 600, 400}";
},
{
alignment = -1;
name = _pixel;
transform = "{1, 0, 0, 1, 700, 400}";
},
{
alignment = -1;
name = _pixel;
transform = "{1, 0, 0, 1, 600, 300}";
},
{
alignment = -1;
name = _pixel;
transform = "{1, 0, 0, 1, 400, 200}";
},
{
alignment = -1;
name = _pixel;
transform = "{1, 0, 0, 1, 700, 300}";
},
{
alignment = -1;
name = _pixel;
transform = "{1, 0, 0, 1, 100, 600}";
},
{
alignment = -1;
name = _pixel;
transform = "{1, 0, 0, 1, 700, 600}";
},
{
alignment = -1;
name = _pixel;
transform = "{1, 0, 0, 1, 300, 400}";
},
{
alignment = -1;
name = _pixel;
transform = "{1, 0, 0, 1, 300, 300}";
},
{
alignment = -1;
name = _pixel;
transform = "{1, 0, 0, 1, 300, 500}";
}
);
layerId = "333BF133-DB41-4575-B232-D783EF459194";
name = "Color 0";
width = 800;
}
);
unicode = "0057,0077";
},
{
glyphname = X;
lastChange = "2020-02-16 00:31:19 +0000";
layers = (
{
layerId = "EBA6CC13-AC95-47AE-A422-BCD5D8D196D3";
paths = (
{
closed = 1;
nodes = (
"500 700 LINE",
"500 400 LINE",
"300 400 LINE",
"300 700 LINE",
"100 700 LINE",
"100 -100 LINE",
"300 -100 LINE",
"300 0 LINE",
"500 0 LINE",
"500 -100 LINE",
"800 -100 LINE",
"800 700 LINE"
);
}
);
width = 800;
},
{
associatedMasterId = "EBA6CC13-AC95-47AE-A422-BCD5D8D196D3";
components = (
{
alignment = -1;
name = _pixel;
transform = "{1, 0, 0, 1, 100, 300}";
},
{
alignment = -1;
name = _pixel;
transform = "{1, 0, 0, 1, 200, 300}";
},
{
alignment = -1;
name = _pixel;
transform = "{1, 0, 0, 1, 200, 200}";
},
{
alignment = -1;
name = _pixel;
transform = "{1, 0, 0, 1, 200, 100}";
},
{
alignment = -1;
name = _pixel;
transform = "{1, 0, 0, 1, 200, -100}";
},
{
alignment = -1;
name = _pixel;
transform = "{1, 0, 0, 1, 100, -100}";
},
{
alignment = -1;
name = _pixel;
transform = "{1, 0, 0, 1, 100, 100}";
},
{
alignment = -1;
name = _pixel;
transform = "{1, 0, 0, 1, 100, 200}";
},
{
alignment = -1;
name = _pixel;
transform = "{1, 0, 0, 1, 500, 100}";
},
{
alignment = -1;
name = _pixel;
transform = "{1, 0, 0, 1, 700, 200}";
},
{
alignment = -1;
name = _pixel;
transform = "{1, 0, 0, 1, 700, -100}";
},
{
alignment = -1;
name = _pixel;
transform = "{1, 0, 0, 1, 600, -100}";
},
{
alignment = -1;
name = _pixel;
transform = "{1, 0, 0, 1, 500, -100}";
},
{
alignment = -1;
name = _pixel;
transform = "{1, 0, 0, 1, 500, 0}";
},
{
alignment = -1;
name = _pixel;
transform = "{1, 0, 0, 1, 500, 200}";
},
{
alignment = -1;
name = _pixel;
transform = "{1, 0, 0, 1, 500, 300}";
},
{
alignment = -1;
name = _pixel;
transform = "{1, 0, 0, 1, 600, 300}";
},
{
alignment = -1;
name = _pixel;
transform = "{1, 0, 0, 1, 600, 200}";
},
{
alignment = -1;
name = _pixel;
transform = "{1, 0, 0, 1, 300, 0}";
},
{
alignment = -1;
name = _pixel;
transform = "{1, 0, 0, 1, 400, 0}";
},
{
alignment = -1;
name = _pixel;
transform = "{1, 0, 0, 1, 600, 100}";
},
{
alignment = -1;
name = _pixel;
transform = "{1, 0, 0, 1, 700, 300}";
},
{
alignment = -1;
name = _pixel;
transform = "{1, 0, 0, 1, 200, 0}";
}
);
layerId = "29895EA3-C0A8-407E-9700-9C421B21F5CB";
name = "Color 3";
width = 800;
},
{
associatedMasterId = "EBA6CC13-AC95-47AE-A422-BCD5D8D196D3";
components = (
{
alignment = -1;
name = _pixel;
transform = "{1, 0, 0, 1, 100, 400}";
},
{
alignment = -1;
name = _pixel;
transform = "{1, 0, 0, 1, 200, 400}";
},
{
alignment = -1;
name = _pixel;
transform = "{1, 0, 0, 1, 200, 300}";
},
{
alignment = -1;
name = _pixel;
transform = "{1, 0, 0, 1, 200, 200}";
},
{
alignment = -1;
name = _pixel;
transform = "{1, 0, 0, 1, 200, 0}";
},
{
alignment = -1;
name = _pixel;
transform = "{1, 0, 0, 1, 100, 0}";
},
{
alignment = -1;
name = _pixel;
transform = "{1, 0, 0, 1, 100, 200}";
},
{
alignment = -1;
name = _pixel;
transform = "{1, 0, 0, 1, 100, 300}";
},
{
alignment = -1;
name = _pixel;
transform = "{1, 0, 0, 1, 500, 200}";
},
{
alignment = -1;
name = _pixel;
transform = "{1, 0, 0, 1, 700, 300}";
},
{
alignment = -1;
name = _pixel;
transform = "{1, 0, 0, 1, 700, 0}";
},
{
alignment = -1;
name = _pixel;
transform = "{1, 0, 0, 1, 600, 0}";
},
{
alignment = -1;
name = _pixel;
transform = "{1, 0, 0, 1, 500, 0}";
},
{
alignment = -1;
name = _pixel;
transform = "{1, 0, 0, 1, 500, 100}";
},
{
alignment = -1;
name = _pixel;
transform = "{1, 0, 0, 1, 500, 300}";
},
{
alignment = -1;
name = _pixel;
transform = "{1, 0, 0, 1, 500, 400}";
},
{
alignment = -1;
name = _pixel;
transform = "{1, 0, 0, 1, 600, 400}";
},
{
alignment = -1;
name = _pixel;
transform = "{1, 0, 0, 1, 600, 300}";
},
{
alignment = -1;
name = _pixel;
transform = "{1, 0, 0, 1, 300, 100}";
},
{
alignment = -1;
name = _pixel;
transform = "{1, 0, 0, 1, 400, 100}";
},
{
alignment = -1;
name = _pixel;
transform = "{1, 0, 0, 1, 600, 200}";
},
{
alignment = -1;
name = _pixel;
transform = "{1, 0, 0, 1, 700, 400}";
},
{
alignment = -1;
name = _pixel;
transform = "{1, 0, 0, 1, 200, 100}";
}
);
layerId = "6BDB1F0B-2B1B-407F-A896-AC70F68403C9";
name = "Color 2";
width = 800;
},
{
associatedMasterId = "EBA6CC13-AC95-47AE-A422-BCD5D8D196D3";
components = (
{
alignment = -1;
name = _pixel;
transform = "{1, 0, 0, 1, 100, 500}";
},
{
alignment = -1;
name = _pixel;
transform = "{1, 0, 0, 1, 200, 500}";
},
{
alignment = -1;
name = _pixel;
transform = "{1, 0, 0, 1, 200, 400}";
},
{
alignment = -1;
name = _pixel;
transform = "{1, 0, 0, 1, 200, 300}";
},
{
alignment = -1;
name = _pixel;
transform = "{1, 0, 0, 1, 200, 100}";
},
{
alignment = -1;
name = _pixel;
transform = "{1, 0, 0, 1, 100, 100}";
},
{
alignment = -1;
name = _pixel;
transform = "{1, 0, 0, 1, 100, 300}";
},
{
alignment = -1;
name = _pixel;
transform = "{1, 0, 0, 1, 100, 400}";
},
{
alignment = -1;
name = _pixel;
transform = "{1, 0, 0, 1, 500, 300}";
},
{
alignment = -1;
name = _pixel;
transform = "{1, 0, 0, 1, 700, 400}";
},
{
alignment = -1;
name = _pixel;
transform = "{1, 0, 0, 1, 700, 100}";
},
{
alignment = -1;
name = _pixel;
transform = "{1, 0, 0, 1, 600, 100}";
},
{
alignment = -1;
name = _pixel;
transform = "{1, 0, 0, 1, 500, 100}";
},
{
alignment = -1;
name = _pixel;
transform = "{1, 0, 0, 1, 500, 200}";
},
{
alignment = -1;
name = _pixel;
transform = "{1, 0, 0, 1, 500, 400}";
},
{
alignment = -1;
name = _pixel;
transform = "{1, 0, 0, 1, 500, 500}";
},
{
alignment = -1;
name = _pixel;
transform = "{1, 0, 0, 1, 600, 500}";
},
{
alignment = -1;
name = _pixel;
transform = "{1, 0, 0, 1, 600, 400}";
},
{
alignment = -1;
name = _pixel;
transform = "{1, 0, 0, 1, 300, 200}";
},
{
alignment = -1;
name = _pixel;
transform = "{1, 0, 0, 1, 400, 200}";
},
{
alignment = -1;
name = _pixel;
transform = "{1, 0, 0, 1, 600, 300}";
},
{
alignment = -1;
name = _pixel;
transform = "{1, 0, 0, 1, 700, 500}";
},
{
alignment = -1;
name = _pixel;
transform = "{1, 0, 0, 1, 200, 200}";
}
);
layerId = "DC2F6F49-0614-4506-825E-CA2227696917";
name = "Color 1";
width = 800;
},
{
associatedMasterId = "EBA6CC13-AC95-47AE-A422-BCD5D8D196D3";
components = (
{
alignment = -1;
name = _pixel;
transform = "{1, 0, 0, 1, 100, 600}";
},
{
alignment = -1;
name = _pixel;
transform = "{1, 0, 0, 1, 200, 600}";
},
{
alignment = -1;
name = _pixel;
transform = "{1, 0, 0, 1, 200, 500}";
},
{
alignment = -1;
name = _pixel;
transform = "{1, 0, 0, 1, 200, 400}";
},
{
alignment = -1;
name = _pixel;
transform = "{1, 0, 0, 1, 200, 200}";
},
{
alignment = -1;
name = _pixel;
transform = "{1, 0, 0, 1, 100, 200}";
},
{
alignment = -1;
name = _pixel;
transform = "{1, 0, 0, 1, 100, 400}";
},
{
alignment = -1;
name = _pixel;
transform = "{1, 0, 0, 1, 100, 500}";
},
{
alignment = -1;
name = _pixel;
transform = "{1, 0, 0, 1, 500, 400}";
},
{
alignment = -1;
name = _pixel;
transform = "{1, 0, 0, 1, 700, 500}";
},
{
alignment = -1;
name = _pixel;
transform = "{1, 0, 0, 1, 700, 200}";
},
{
alignment = -1;
name = _pixel;
transform = "{1, 0, 0, 1, 600, 200}";
},
{
alignment = -1;
name = _pixel;
transform = "{1, 0, 0, 1, 500, 200}";
},
{
alignment = -1;
name = _pixel;
transform = "{1, 0, 0, 1, 500, 300}";
},
{
alignment = -1;
name = _pixel;
transform = "{1, 0, 0, 1, 500, 500}";
},
{
alignment = -1;
name = _pixel;
transform = "{1, 0, 0, 1, 500, 600}";
},
{
alignment = -1;
name = _pixel;
transform = "{1, 0, 0, 1, 600, 600}";
},
{
alignment = -1;
name = _pixel;
transform = "{1, 0, 0, 1, 600, 500}";
},
{
alignment = -1;
name = _pixel;
transform = "{1, 0, 0, 1, 300, 300}";
},
{
alignment = -1;
name = _pixel;
transform = "{1, 0, 0, 1, 400, 300}";
},
{
alignment = -1;
name = _pixel;
transform = "{1, 0, 0, 1, 600, 400}";
},
{
alignment = -1;
name = _pixel;
transform = "{1, 0, 0, 1, 700, 600}";
},
{
alignment = -1;
name = _pixel;
transform = "{1, 0, 0, 1, 200, 300}";
}
);
layerId = "333BF133-DB41-4575-B232-D783EF459194";
name = "Color 0";
width = 800;
}
);
unicode = "0058,0078";
},
